<?xml version="1.0" encoding="UTF-8" standalone="no"?>
<!DOCTYPE svg PUBLIC "-//W3C//DTD SVG 1.1//EN" "http://www.w3.org/Graphics/SVG/1.1/DTD/svg11.dtd">
<svg xmlns="http://www.w3.org/2000/svg" xmlns:xlink="http://www.w3.org/1999/xlink" version="1.1" width="128.728pt" height="113.537pt" viewBox="0 0 128.728 113.537">
<g enable-background="new">
<path transform="matrix(1,0,0,-1,64.364,105.866008)" d="M -49.22154 0 C -49.22154 4.12675 -52.56685 7.47208 -56.69362 7.47208 C -60.82037 7.47208 -64.1657 4.12675 -64.1657 0 C -64.1657 -4.12675 -60.82037 -7.47208 -56.69362 -7.47208 C -52.56685 -7.47208 -49.22154 -4.12675 -49.22154 0 Z M -56.69362 0 " fill="#00ff00"/>
<path transform="matrix(1,0,0,-1,64.364,105.866008)" stroke-width=".3985" stroke-linecap="butt" stroke-miterlimit="10" stroke-linejoin="miter" fill="none" stroke="#000000" d="M -49.22154 0 C -49.22154 4.12675 -52.56685 7.47208 -56.69362 7.47208 C -60.82037 7.47208 -64.1657 4.12675 -64.1657 0 C -64.1657 -4.12675 -60.82037 -7.47208 -56.69362 -7.47208 C -52.56685 -7.47208 -49.22154 -4.12675 -49.22154 0 Z M -56.69362 0 "/>
<path transform="matrix(1,0,0,-1,64.364,105.866008)" d="M 7.47208 0 C 7.47208 4.12675 4.12675 7.47208 0 7.47208 C -4.12675 7.47208 -7.47208 4.12675 -7.47208 0 C -7.47208 -4.12675 -4.12675 -7.47208 0 -7.47208 C 4.12675 -7.47208 7.47208 -4.12675 7.47208 0 Z M 0 0 " fill="#0000ff"/>
<path transform="matrix(1,0,0,-1,64.364,105.866008)" stroke-width=".3985" stroke-linecap="butt" stroke-miterlimit="10" stroke-linejoin="miter" fill="none" stroke="#000000" d="M 7.47208 0 C 7.47208 4.12675 4.12675 7.47208 0 7.47208 C -4.12675 7.47208 -7.47208 4.12675 -7.47208 0 C -7.47208 -4.12675 -4.12675 -7.47208 0 -7.47208 C 4.12675 -7.47208 7.47208 -4.12675 7.47208 0 Z M 0 0 "/>
<path transform="matrix(1,0,0,-1,64.364,105.866008)" d="M 64.1657 0 C 64.1657 4.12675 60.82037 7.47208 56.69362 7.47208 C 52.56685 7.47208 49.22154 4.12675 49.22154 0 C 49.22154 -4.12675 52.56685 -7.47208 56.69362 -7.47208 C 60.82037 -7.47208 64.1657 -4.12675 64.1657 0 Z M 56.69362 0 " fill="#ff0000"/>
<path transform="matrix(1,0,0,-1,64.364,105.866008)" stroke-width=".3985" stroke-linecap="butt" stroke-miterlimit="10" stroke-linejoin="miter" fill="none" stroke="#000000" d="M 64.1657 0 C 64.1657 4.12675 60.82037 7.47208 56.69362 7.47208 C 52.56685 7.47208 49.22154 4.12675 49.22154 0 C 49.22154 -4.12675 52.56685 -7.47208 56.69362 -7.47208 C 60.82037 -7.47208 64.1657 -4.12675 64.1657 0 Z M 56.69362 0 "/>
<path transform="matrix(1,0,0,-1,64.364,105.866008)" d="M -20.87473 49.09824 C -20.87473 53.22499 -24.22005 56.57031 -28.3468 56.57031 C -32.47356 56.57031 -35.81888 53.22499 -35.81888 49.09824 C -35.81888 44.97147 -32.47356 41.62616 -28.3468 41.62616 C -24.22005 41.62616 -20.87473 44.97147 -20.87473 49.09824 Z M -28.3468 49.09824 " fill="#ff0000"/>
<path transform="matrix(1,0,0,-1,64.364,105.866008)" stroke-width=".3985" stroke-linecap="butt" stroke-miterlimit="10" stroke-linejoin="miter" fill="none" stroke="#000000" d="M -20.87473 49.09824 C -20.87473 53.22499 -24.22005 56.57031 -28.3468 56.57031 C -32.47356 56.57031 -35.81888 53.22499 -35.81888 49.09824 C -35.81888 44.97147 -32.47356 41.62616 -28.3468 41.62616 C -24.22005 41.62616 -20.87473 44.97147 -20.87473 49.09824 Z M -28.3468 49.09824 "/>
<path transform="matrix(1,0,0,-1,64.364,105.866008)" d="M 35.81888 49.09824 C 35.81888 53.22499 32.47356 56.57031 28.3468 56.57031 C 24.22005 56.57031 20.87473 53.22499 20.87473 49.09824 C 20.87473 44.97147 24.22005 41.62616 28.3468 41.62616 C 32.47356 41.62616 35.81888 44.97147 35.81888 49.09824 Z M 28.3468 49.09824 " fill="#00ff00"/>
<path transform="matrix(1,0,0,-1,64.364,105.866008)" stroke-width=".3985" stroke-linecap="butt" stroke-miterlimit="10" stroke-linejoin="miter" fill="none" stroke="#000000" d="M 35.81888 49.09824 C 35.81888 53.22499 32.47356 56.57031 28.3468 56.57031 C 24.22005 56.57031 20.87473 53.22499 20.87473 49.09824 C 20.87473 44.97147 24.22005 41.62616 28.3468 41.62616 C 32.47356 41.62616 35.81888 44.97147 35.81888 49.09824 Z M 28.3468 49.09824 "/>
<path transform="matrix(1,0,0,-1,64.364,105.866008)" d="M 7.47208 98.19606 C 7.47208 102.32281 4.12675 105.66814 0 105.66814 C -4.12675 105.66814 -7.47208 102.32281 -7.47208 98.19606 C -7.47208 94.0693 -4.12675 90.72398 0 90.72398 C 4.12675 90.72398 7.47208 94.0693 7.47208 98.19606 Z M 0 98.19606 " fill="#0000ff"/>
<path transform="matrix(1,0,0,-1,64.364,105.866008)" stroke-width=".3985" stroke-linecap="butt" stroke-miterlimit="10" stroke-linejoin="miter" fill="none" stroke="#000000" d="M 7.47208 98.19606 C 7.47208 102.32281 4.12675 105.66814 0 105.66814 C -4.12675 105.66814 -7.47208 102.32281 -7.47208 98.19606 C -7.47208 94.0693 -4.12675 90.72398 0 90.72398 C 4.12675 90.72398 7.47208 94.0693 7.47208 98.19606 Z M 0 98.19606 "/>
<path transform="matrix(1,0,0,-1,64.364,105.866008)" stroke-width=".3985" stroke-linecap="butt" stroke-miterlimit="10" stroke-linejoin="miter" fill="none" stroke="#000000" d="M -49.02228 0 L -8.6676 0 "/>
<path transform="matrix(1,0,0,-1,64.364,105.866008)" stroke-width=".3985" stroke-linecap="butt" stroke-miterlimit="10" stroke-linejoin="miter" fill="none" stroke="#000000" d="M 7.67133 0 L 48.026 0 "/>
<path transform="matrix(1,0,0,-1,64.364,105.866008)" stroke-width=".3985" stroke-linecap="butt" stroke-miterlimit="10" stroke-linejoin="miter" fill="none" stroke="#000000" d="M 52.85808 6.64345 L 32.68047 41.59198 "/>
<path transform="matrix(1,0,0,-1,64.364,105.866008)" stroke-width=".3985" stroke-linecap="butt" stroke-miterlimit="10" stroke-linejoin="miter" fill="none" stroke="#000000" d="M -52.85808 6.64345 L -32.68047 41.59198 "/>
<path transform="matrix(1,0,0,-1,64.364,105.866008)" stroke-width=".3985" stroke-linecap="butt" stroke-miterlimit="10" stroke-linejoin="miter" fill="none" stroke="#000000" d="M -24.51126 55.7417 L -4.33366 90.6898 "/>
<path transform="matrix(1,0,0,-1,64.364,105.866008)" stroke-width=".3985" stroke-linecap="butt" stroke-miterlimit="10" stroke-linejoin="miter" fill="none" stroke="#000000" d="M 24.51126 55.7417 L 4.33366 90.6898 "/>
<path transform="matrix(1,0,0,-1,64.364,105.866008)" stroke-width=".3985" stroke-linecap="butt" stroke-miterlimit="10" stroke-linejoin="miter" fill="none" stroke="#000000" d="M -20.67548 49.09824 L 19.6792 49.09824 "/>
<path transform="matrix(1,0,0,-1,64.364,105.866008)" stroke-width=".3985" stroke-linecap="butt" stroke-miterlimit="10" stroke-linejoin="miter" fill="none" stroke="#000000" d="M -24.51126 42.45477 L -4.33365 7.50624 "/>
<path transform="matrix(1,0,0,-1,64.364,105.866008)" stroke-width=".3985" stroke-linecap="butt" stroke-miterlimit="10" stroke-linejoin="miter" fill="none" stroke="#000000" d="M 24.51126 42.45477 L 4.33365 7.50624 "/>
</g>
</svg>
