<svg xmlns="http://www.w3.org/2000/svg" role="img" xmlns:xlink="http://www.w3.org/1999/xlink" viewBox="144.62 120.37 396.76 73.76"><defs><symbol id="a" overflow="visible"><path d="M5.1875-4.70313H.48437L.32813-3.10938h.25C.67188-4.3125.875-4.45313 1.9375-4.45313h.42188c.15625.03125.15625.10938.15625.26563v3.60938c0 .23437 0 .32812-.73438.32812h-.29688V0c.34376-.03125 1-.03125 1.35938-.03125.35938 0 1 0 1.34375.03125v-.25h-.29688c-.71875 0-.71875-.09375-.71875-.32813V-4.1875c0-.15625 0-.23438.15625-.26563h.40625c.39063 0 .6875 0 .9375.125.3125.20313.35938.64063.35938.67188l.0625.54688h.25zm0 0"/></symbol><symbol id="b" overflow="visible"><path d="M1.46875-4.29688c0-.20312-.17188-.40625-.40625-.40625-.20313 0-.39063.17188-.39063.40625 0 .25.20313.40625.39063.40625.23438 0 .40625-.17187.40625-.40625zM.40625-3v.25c.4375 0 .5.04688.5.39063v1.8125C.90625-.25.84375-.25.39062-.25V0c.01563 0 .5-.03125.78126-.03125.25 0 .5.01563.73437.03125v-.25c-.40625 0-.46875 0-.46875-.29688v-2.53125zm0 0"/></symbol><symbol id="c" overflow="visible"><path d="M5.73438-2.10938c0-.60937-.3125-.96875-1.04688-.96875-.5625 0-.9375.29688-1.125.65625-.14063-.5-.51563-.65625-1.01563-.65625-.57812 0-.9375.3125-1.14062.6875v-.6875L.375-3v.25c.46875 0 .53125.04688.53125.39063v1.8125C.90625-.25.82812-.25.375-.25V0c.01563 0 .5-.03125.79688-.03125.25 0 .73437.03125.79687.03125v-.25c-.45313 0-.51563 0-.51563-.29688V-1.8125c0-.71875.57813-1.0625 1.03126-1.0625.48437 0 .54687.375.54687.73438v1.59375c0 .29687-.0625.29687-.51563.29687V0c.01563 0 .5-.03125.79688-.03125.25 0 .73438.03125.79688.03125v-.25c-.45313 0-.51563 0-.51563-.29688V-1.8125c0-.71875.57813-1.0625 1.03125-1.0625.48438 0 .54688.375.54688.73438v1.59375c0 .29687-.0625.29687-.51563.29687V0c.01563 0 .5-.03125.79688-.03125.25 0 .73437.03125.79687.03125v-.25c-.45313 0-.51563 0-.51563-.29688zm0 0"/></symbol><symbol id="d" overflow="visible"><path d="M3.0625-1.59375c.15625 0 .20313 0 .20313-.14063 0-.625-.34375-1.375-1.39063-1.375-.90625 0-1.60938.71875-1.60938 1.57813 0 .89063.78126 1.59375 1.70313 1.59375.9375 0 1.29688-.75 1.29688-.90625 0-.01563-.01563-.09375-.125-.09375-.09375 0-.10938.04688-.125.10938-.21875.5625-.75.67187-1 .67187-.32813 0-.64063-.14063-.84375-.40625-.26563-.32813-.26563-.75-.26563-1.03125zM.90625-1.76563c.07813-.98437.70313-1.14062.96875-1.14062.85938 0 .89063.96875.90625 1.14063zm0 0"/></symbol><symbol id="e" overflow="visible"><path d="M3.59375-2.21875c0-.76563-.09375-1.32813-.40625-1.8125-.21875-.3125-.65625-.59375-1.20313-.59375-1.625 0-1.625 1.90625-1.625 2.40625s0 2.35938 1.625 2.35938c1.60938 0 1.60938-1.85938 1.60938-2.35938zM1.98437-.0625c-.32812 0-.75-.1875-.89062-.75C1-1.21875 1-1.79688 1-2.3125c0-.51563 0-1.04688.09375-1.42188.15625-.54687.59375-.70312.89063-.70312.375 0 .73437.23438.85937.64063.10938.375.125.875.125 1.48437 0 .51563 0 1.03125-.09375 1.46875-.14063.64063-.60938.78125-.89063.78125zm0 0"/></symbol><symbol id="f" overflow="visible"><path d="M2.46875-2.51563c.54688-.26562.89063-.59375.89063-1.07812 0-.67188-.70313-1.03125-1.375-1.03125-.76563 0-1.39063.5-1.39063 1.15625 0 .32813.15625.5625.28125.70313.125.15625.17188.1875.57813.42187C1.0625-2.17187.375-1.79687.375-1.0625c0 .76563.79688 1.20313 1.59375 1.20313.89063 0 1.60938-.5625 1.60938-1.3125 0-.46876-.26563-.85938-.67188-1.09376-.09375-.0625-.32813-.1875-.4375-.25zm-1.125-.65625c-.1875-.10937-.375-.29687-.375-.5625 0-.4375.5-.6875 1-.6875.54688 0 1.03125.34375 1.03125.82813 0 .625-.73438.9375-.73438.9375-.01562 0-.03125 0-.07812-.03125zm.32813.96875l.96874.54688c.17188.10938.51563.3125.51563.71875 0 .53125-.57813.85938-1.17188.85938-.64062 0-1.1875-.42188-1.1875-.98438 0-.51563.375-.92188.875-1.14063zm0 0"/></symbol><symbol id="g" overflow="visible"><path d="M1.53125-2.59375c0-.25-.20313-.40625-.40625-.40625-.23438 0-.40625.1875-.40625.39063 0 .25.20313.40625.40625.40625.23438 0 .40625-.1875.40625-.39063zm0 2.20313c0-.25-.20313-.40625-.40625-.40625-.23438 0-.40625.1875-.40625.39062 0 .25.20313.40625.40625.40625.23438 0 .40625-.1875.40625-.39063zm0 0"/></symbol><symbol id="h" overflow="visible"><path d="M2.90625-2.07813c0 1.73438-.84375 2-1.26563 2-.15624 0-.53124-.01562-.71874-.23437.29687-.03125.3125-.26563.3125-.32813 0-.17187-.125-.32812-.32813-.32812-.20313 0-.32813.14063-.32813.34375 0 .46875.39063.76563 1.0625.76563 1 0 1.9375-.9375 1.9375-2.4375C3.57813-4.01563 2.8125-4.625 2-4.625c-.23438 0-.70313.03125-1.10938.42188-.23437.23437-.51562.5-.51562 1.125 0 .89062.70313 1.54687 1.51563 1.54687.5625 0 .85937-.375 1.01562-.6875zm-.96875.34375c-.28125 0-.53125-.07812-.73438-.40624-.15624-.25-.15624-.54688-.15624-.9375 0-.40625 0-.67188.20312-.95313.17188-.25.39063-.39063.75-.39063.35938 0 .57813.21875.6875.40625.1875.28125.20313.78125.20313 1.01563 0 .90625-.51563 1.26563-.95313 1.26563zm0 0"/></symbol><symbol id="i" overflow="visible"><path d="M2.32813-4.4375c0-.1875 0-.1875-.20313-.1875-.45313.4375-1.07813.4375-1.35938.4375v.25c.15626 0 .625 0 1-.1875v3.54688c0 .23437 0 .32812-.6875.32812H.8125V0c.125 0 .98438-.03125 1.23438-.03125.21875 0 1.09375.03125 1.25.03125v-.25h-.26563c-.70313 0-.70313-.09375-.70313-.32813zm0 0"/></symbol><symbol id="j" overflow="visible"><path d="M3.51563-1.26563h-.23438c-.01563.15626-.09375.5625-.1875.625-.04688.04688-.57813.04688-.6875.04688H1.125c.73438-.64063.98438-.84375 1.39063-1.17188.51562-.40624 1-.84374 1-1.5 0-.84375-.73438-1.35937-1.625-1.35937-.85938 0-1.45313.60938-1.45313 1.25 0 .34375.29688.39063.375.39063.15625 0 .35938-.125.35938-.375 0-.125-.04688-.375-.40626-.375.21876-.48438.6875-.64063 1.01563-.64063.70313 0 1.0625.54688 1.0625 1.10938 0 .60937-.4375 1.07812-.65625 1.32812L.51562-.26562C.4375-.20313.4375-.1875.4375 0h2.875zm0 0"/></symbol><symbol id="k" overflow="visible"><path d="M1.90625-2.32813c.54688 0 .9375.375.9375 1.125 0 .85938-.51563 1.125-.90625 1.125-.28125 0-.90625-.07812-1.1875-.5.32813 0 .40625-.23437.40625-.39062 0-.21875-.17188-.375-.39063-.375-.1875 0-.39062.125-.39062.40625 0 .65625.71875 1.07813 1.5625 1.07813.96875 0 1.64063-.65626 1.64063-1.34376 0-.54687-.4375-1.09374-1.20313-1.25.71875-.26562.98438-.78125.98438-1.21875 0-.54687-.625-.95312-1.40625-.95312-.76563 0-1.35938.375-1.35938.9375 0 .23438.15625.35938.35938.35938.21874 0 .35937-.15625.35937-.34375 0-.20313-.14063-.35938-.35938-.375.25-.29688.71876-.375.98438-.375.3125 0 .75.15625.75.75 0 .29687-.09375.625-.28125.82812-.21875.26563-.42188.28125-.76563.3125-.17187.01563-.1875.01563-.21874.01563-.01563 0-.07813.01562-.07813.09375 0 .09375.0625.09375.1875.09375zm0 0"/></symbol><symbol id="l" overflow="visible"><path d="M3.6875-1.14063v-.25h-.78125V-4.5c0-.14063 0-.20313-.14063-.20313-.09375 0-.125 0-.1875.10938L.26563-1.39062v.25h2.0625v.5625c0 .25 0 .32812-.57812.32812h-.1875V0c.35938-.01563.79688-.03125 1.04688-.03125.26562 0 .70312.01563 1.0625.03125v-.25h-.1875c-.57813 0-.57813-.07813-.57813-.32813v-.5625zM2.375-3.9375v2.54688H.53125zm0 0"/></symbol><symbol id="m" overflow="visible"><path d="M1.07813-3.89063c.35937.09375.5625.09375.67187.09375.92188 0 1.46875-.625 1.46875-.73437 0-.07813-.04688-.09375-.07813-.09375-.01562 0-.03125 0-.0625.01563-.17187.0625-.53125.20312-1.04687.20312-.20313 0-.5625-.01563-1.01563-.1875C.9375-4.625.92188-4.625.92188-4.625c-.09376 0-.09376.07813-.09376.1875v2.04688c0 .125 0 .20312.10938.20312.0625 0 .07813 0 .14063-.09375.29687-.375.73437-.4375.96874-.4375.42188 0 .60938.32813.64063.39063.125.23437.17188.5.17188.90625 0 .20312 0 .60937-.21875.92187-.17188.25-.46875.42188-.8125.42188-.45313 0-.92188-.25-1.09376-.71876.26563.01563.40626-.15624.40626-.34374 0-.29688-.26563-.34376-.35938-.34376 0 0-.34375 0-.34375.375 0 .625.57813 1.25 1.40625 1.25.89063 0 1.67188-.65624 1.67188-1.54687 0-.78125-.59375-1.5-1.45313-1.5-.3125 0-.67188.0625-.98438.32813zm0 0"/></symbol><symbol id="n" overflow="visible"><path d="M1.04688-2.28125c0-.5625.04687-1.07813.3125-1.51563.23437-.375.60937-.625 1.0625-.625.20312 0 .48437.04688.625.23438-.17188.01563-.32813.14063-.32813.34375 0 .17188.125.32813.32813.32813.21875 0 .34375-.14063.34375-.34375 0-.40625-.29688-.76563-.98438-.76563-1 0-2.03125.92188-2.03125 2.42188C.375-.40626 1.21875.14063 2 .14063c.84375 0 1.57813-.65626 1.57813-1.5625 0-.89063-.70313-1.54688-1.51563-1.54688-.5625 0-.85938.375-1.01563.6875zM2-.07812c-.35938 0-.625-.20313-.78125-.51563-.09375-.20313-.15625-.5625-.15625-.96875 0-.6875.40625-1.20313.96875-1.20313.3125 0 .53125.125.70313.375.17187.26563.17187.5625.17187.96875 0 .39063 0 .6875-.1875.96876-.15625.23437-.39063.375-.71875.375zm0 0"/></symbol><symbol id="o" overflow="visible"><path d="M3.73438-4.20313c.0625-.09375.0625-.10937.0625-.28125H1.96874c-.28125 0-.35938-.01562-.60938-.03125C1-4.54688.98438-4.59375.96876-4.70313H.73437l-.25 1.48438h.23438c.01563-.10938.09375-.5625.20313-.64063.04687-.03125.625-.03125.71874-.03125h1.51563c-.21875.28125-.57813.71875-.71875.92188-.90625 1.1875-1 2.29688-1 2.70313 0 .07812 0 .40625.32813.40625.34374 0 .34374-.3125.34374-.40626v-.28125c0-1.34374.28125-1.96874.57813-2.34375zm0 0"/></symbol><symbol id="u" overflow="visible"><path d="M2.46875-5.21875C1.15625-4.29687.79687-2.8125.79687-1.75c0 .98438.29688 2.51563 1.67188 3.48438.0625 0 .14063 0 .14063-.07813 0-.04688-.01563-.0625-.0625-.10938-.9375-.84374-1.26563-2.01562-1.26563-3.28125C1.28125-3.625 2-4.54688 2.5625-5.0625c.03125-.03125.04688-.04688.04688-.07813 0-.07812-.07813-.07812-.14063-.07812zm0 0"/></symbol><symbol id="v" overflow="visible"><path d="M5.1875-4.71875c0-.125 0-.1875-.09375-.1875-.03125 0-.0625 0-.125.09375l-.375.53125c-.28125-.29688-.76563-.625-1.4375-.625-1.46875 0-2.67188 1.14063-2.67188 2.51563 0 1.42187 1.23438 2.53125 2.67188 2.53125 1.23438 0 2.03125-.92188 2.03125-1.76563 0-.07813-.01563-.14063-.125-.14063-.03125 0-.10938 0-.10938.09376C4.89063-.54688 3.9375-.10938 3.25-.10938c-.73438 0-2.01563-.45313-2.01563-2.26563 0-1.89063 1.34376-2.26563 2-2.26563.70313 0 1.51563.45313 1.70313 1.65625.01563.07813.07813.07813.125.07813.125 0 .125-.04688.125-.1875zm0 0"/></symbol><symbol id="w" overflow="visible"><path d="M2.51563-3v.25c.46875 0 .51562.04688.51562.39063v1.20312c0 .60938-.39063 1.03125-.92188 1.03125-.625 0-.65625-.29688-.65625-.65625v-2.29688L.375-3v.25c.53125 0 .53125.03125.53125.64063v1.04687c0 .48438 0 1.125 1.15625 1.125.15625 0 .65625 0 1-.57813V.0625L4.10938 0v-.25c-.46875 0-.51563-.04688-.51563-.39063v-2.4375zm0 0"/></symbol><symbol id="x" overflow="visible"><path d="M1.39063-1.59375c0-.57813.26562-1.28125.9375-1.28125-.0625.04688-.125.14063-.125.25 0 .23438.1875.3125.3125.3125.17187 0 .32812-.10938.32812-.3125 0-.23438-.23438-.45313-.5625-.45313-.34375 0-.73438.21875-.9375.75v-.75L.34375-3v.25c.46875 0 .51563.04688.51563.39063v1.8125C.85938-.25.79688-.25.34374-.25V0c.03125 0 .5-.03125.79688-.03125.29687 0 .59374.01563.90624.03125v-.25h-.14062c-.51563 0-.51563-.07813-.51563-.3125zm0 0"/></symbol><symbol id="y" overflow="visible"><path d="M1.40625-2.75h1.07813V-3H1.40624v-1.28125h-.25c0 .625-.28125 1.3125-.95313 1.32813V-2.75h.64063v1.875c0 .78125.59375.9375.98438.9375.46874 0 .78124-.39063.78124-.9375v-.39063H2.375v.375c0 .48438-.21875.73438-.5.73438-.46875 0-.46875-.57813-.46875-.70313zm0 0"/></symbol><symbol id="z" overflow="visible"><path d="M3.10938-1.875c0-.35938 0-.625-.32813-.89063C2.5-3 2.17187-3.10938 1.75-3.10938c-.65625 0-1.125.25-1.125.67188 0 .23438.15625.34375.34375.34375s.32813-.14063.32813-.32813c0-.10937-.0625-.26562-.25-.3125.25-.17187.65624-.17187.6875-.17187.39062 0 .82812.25.82812.84375v.20313c-.39063.01562-.84375.04687-1.35938.23437-.625.21875-.8125.60938-.8125.92188 0 .59374.71876.76562 1.21876.76562.54687 0 .875-.3125 1.03124-.57813.01563.28126.20313.54688.53125.54688.01563 0 .6875 0 .6875-.65625v-.39063H3.625v.375c0 .07813 0 .40626-.26563.40626-.25 0-.25-.32813-.25-.40626zm-.54688.89063c0 .67187-.59375.85937-.90625.85937-.35938 0-.6875-.23438-.6875-.57813 0-.39062.32813-.92187 1.59375-.96874zm0 0"/></symbol><symbol id="A" overflow="visible"><path d="M1.4375-4.84375l-1.04688.07813v.25c.46875 0 .51563.0625.51563.39062v3.57813C.90625-.25.84375-.25.39062-.25V0c.01563 0 .5-.03125.78126-.03125.26562 0 .51562.01563.78124.03125v-.25c-.45312 0-.51562 0-.51562-.29688zm0 0"/></symbol><symbol id="B" overflow="visible"><path d="M2.48438-4.76563v.25c.46875 0 .51562.0625.51562.39063v1.45313c-.25-.25-.59375-.40625-.96875-.40625-.9375 0-1.70313.70312-1.70313 1.57812S1.0625.0625 1.9375.0625c.57813 0 .92188-.29688 1.03125-.42188V.0625L4.04688 0v-.25c-.46875 0-.51563-.04688-.51563-.39063v-4.20312zm.48437 4.03125c-.17188.32813-.53125.60938-.98438.60938-.39062 0-.67187-.23438-.8125-.4375-.14062-.20313-.21874-.48438-.21874-.92188 0-.17187 0-.6875.28124-1.01562.28126-.3125.625-.375.82813-.375.32813 0 .64063.15625.82813.40625.07812.10938.07812.10938.07812.25zm0 0"/></symbol><symbol id="C" overflow="visible"><path d="M.625-5.21875c-.04688 0-.125 0-.125.07813 0 .03125.01563.04687.0625.10937.59375.54688 1.26563 1.48438 1.26563 3.28125C1.82813-.29687 1.375.8125.625 1.48438c-.125.125-.125.125-.125.17187 0 .03125.01563.07813.07813.07813.09374 0 .75-.45313 1.21874-1.32813.29688-.57813.5-1.32813.5-2.14063C2.29688-2.71875 2-4.25.625-5.21875zm0 0"/></symbol><symbol id="p" overflow="visible"><path d="M2.3125-6.67188c-.09375-.125-.09375-.14062-.28125-.14062H.32812V-6.5H.625c.14063 0 .34375.01563.48438.01563.23437.03125.25.04687.25.23437v5.20313c0 .26562 0 .73437-1.03126.73437V0C.67188-.01563 1.17189-.03125 1.5-.03125c.32813 0 .8125.01563 1.15625.03125v-.3125c-1.01563 0-1.01563-.46875-1.01563-.73438v-5.1875c.04688.04688.04688.0625.09376.125L5.79688-.125c.09375.10938.10937.125.17187.125.14063 0 .14063-.0625.14063-.26563v-5.5c0-.26562 0-.73437 1.03125-.73437v-.3125c-.35938.01563-.84375.03125-1.17188.03125-.32813 0-.8125-.01563-1.15625-.03125V-6.5c1.01563 0 1.01563.46875 1.01563.73438V-1.5zm0 0"/></symbol><symbol id="q" overflow="visible"><path d="M4.6875-2.14063c0-1.26562-.98438-2.32812-2.1875-2.32812-1.25 0-2.21875 1.09375-2.21875 2.32813 0 1.29687 1.03125 2.25 2.20313 2.25 1.20312 0 2.20312-.98438 2.20312-2.25zm-2.1875 2c-.4375 0-.875-.20312-1.14063-.67187-.25-.4375-.25-1.04688-.25-1.40625 0-.39063 0-.92188.23438-1.35938.26563-.45312.73438-.67187 1.14063-.67187.4375 0 .85937.21875 1.125.65625.26562.42188.26562 1 .26562 1.375 0 .35938 0 .90625-.21875 1.34375-.23438.45313-.67188.73438-1.15625.73438zm0 0"/></symbol><symbol id="r" overflow="visible"><path d="M1.67188-3.3125v-1.09375l-1.39063.10938v.3125c.70313 0 .78125.0625.78125.5625V-.75c0 .4375-.10938.4375-.78125.4375V0c.39063-.01563.85938-.03125 1.14063-.03125.39062 0 .85937 0 1.26562.03125v-.3125h-.21875c-.73438 0-.75-.10938-.75-.46875V-2.3125c0-.98438.42188-1.875 1.17188-1.875.0625 0 .09375 0 .10937.01563-.03125 0-.23438.125-.23438.39062 0 .26563.21875.42188.4375.42188.17188 0 .42188-.125.42188-.4375s-.3125-.60938-.73438-.60938c-.73437 0-1.09375.67188-1.21875 1.09375zm0 0"/></symbol><symbol id="s" overflow="visible"><path d="M1.09375-3.42188V-.75c0 .4375-.10938.4375-.78125.4375V0c.35938-.01563.85938-.03125 1.14063-.03125.25 0 .76562.01563 1.10937.03125v-.3125c-.67188 0-.78125 0-.78125-.4375v-1.84375C1.78125-3.625 2.5-4.1875 3.125-4.1875c.64063 0 .75.53125.75 1.10938V-.75c0 .4375-.10938.4375-.78125.4375V0c.34375-.01563.85938-.03125 1.125-.03125.25 0 .78125.01563 1.10938.03125v-.3125c-.65625 0-.76563 0-.76563-.4375v-1.84375c0-1.03125.70313-1.59375 1.34375-1.59375.625 0 .73438.53125.73438 1.10938V-.75c0 .4375-.10938.4375-.78125.4375V0c.34375-.01563.85937-.03125 1.125-.03125.26562 0 .78125.01563 1.125.03125v-.3125c-.51563 0-.76563 0-.78125-.29688v-1.90624c0-.85938 0-1.15625-.3125-1.51563-.14063-.17188-.46875-.375-1.04688-.375-.82813 0-1.28125.59375-1.4375.98438-.14063-.875-.875-.98438-1.32813-.98438-.73437 0-1.20312.42188-1.48437 1.04688v-1.04688L.3125-4.29687v.3125c.70313 0 .78125.0625.78125.5625zm0 0"/></symbol><symbol id="E" overflow="visible"><path d="M2.9375-6.375c0-.25 0-.26563-.23438-.26563C2.07813-6 1.20313-6 .89063-6v.3125c.20313 0 .78126 0 1.29688-.26563v5.17188c0 .35938-.03125.46875-.92188.46875h-.3125V0c.34376-.03125 1.20313-.03125 1.60938-.03125.39063 0 1.26563 0 1.60938.03125v-.3125h-.3125c-.90625 0-.92188-.10938-.92188-.46875zm0 0"/></symbol><symbol id="t" overflow="visible"><path d="M3.32813-3.01563c.0625-.25.29687-1.17187.98437-1.17187.04688 0 .29688 0 .5.125-.28125.0625-.46875.29688-.46875.54688 0 .15625.10938.34375.375.34375.21875 0 .53125-.17188.53125-.57813 0-.51563-.57813-.65625-.92188-.65625-.57812 0-.92187.53125-1.04687.75-.25-.65625-.78125-.75-1.07813-.75C1.17188-4.40625.59376-3.125.59376-2.875c0 .10938.10938.10938.125.10938.07813 0 .10938-.03125.125-.10938.34375-1.0625 1-1.3125 1.34375-1.3125.1875 0 .53125.09375.53125.67188 0 .3125-.17188.96875-.53125 2.375-.15625.60937-.51563 1.03124-.95313 1.03124-.0625 0-.28124 0-.5-.125.25-.0625.46876-.26562.46876-.54687 0-.26563-.21876-.34375-.35938-.34375-.3125 0-.54688.25-.54688.57813 0 .45312.48438.65624.92188.65624.67188 0 1.03125-.70312 1.04688-.75.125.35938.48437.75 1.07812.75 1.03125 0 1.59375-1.28124 1.59375-1.53124 0-.10938-.07813-.10938-.10938-.10938-.09375 0-.10937.04688-.14062.10938-.32813 1.07812-1 1.3125-1.3125 1.3125-.39063 0-.54688-.3125-.54688-.65626 0-.21874.04688-.4375.15625-.875zm0 0"/></symbol><symbol id="D" overflow="visible"><path d="M4.84375-3.79688c.04688-.14062.04688-.15625.04688-.23437 0-.17188-.14063-.26563-.29688-.26563-.09375 0-.25.0625-.34375.20313-.01563.0625-.10938.35938-.14063.54688-.07812.25-.14062.53125-.20312.79687L3.45312-.95312c-.03125.14062-.46875.84374-1.125.84374-.5 0-.60937-.4375-.60937-.8125 0-.45312.17188-1.07812.5-1.95312.15625-.40625.20313-.51563.20313-.71875 0-.4375-.3125-.8125-.8125-.8125-.95313 0-1.3125 1.45313-1.3125 1.53125 0 .10938.09375.10938.10937.10938.10938 0 .10938-.03125.15625-.1875.28125-.9375.67188-1.23438 1.01563-1.23438.07812 0 .25 0 .25.3125 0 .25-.10938.51563-.17188.70313-.40625 1.0625-.57813 1.625-.57813 2.09375 0 .89062.625 1.1875 1.21876 1.1875.39062 0 .71875-.17188 1-.45313-.125.51563-.25 1.01563-.64063 1.54688-.26563.32812-.64063.625-1.09375.625-.14063 0-.59375-.03126-.76563-.42188.15626 0 .29688 0 .42188-.125.10938-.07813.20313-.21875.20313-.40625 0-.3125-.26563-.34375-.35938-.34375C.82812.53125.5.6875.5 1.17188c0 .5.4375.875 1.0625.875 1.01563 0 2.04688-.90625 2.32813-2.03125zm0 0"/></symbol></defs><path fill="none" stroke="#000" stroke-miterlimit="10" stroke-width=".797" d="M194.55469 175.01563H501.7539"/><path stroke="#000" stroke-miterlimit="10" stroke-width=".797" d="M505.57073 175.01563l-3.61719-2.1836v4.36328zm0 0"/><use x="492.585" y="186.488" xlink:href="#a"/><use x="498.272" y="186.488" xlink:href="#b"/><use x="500.527" y="186.488" xlink:href="#c"/><use x="507.072" y="186.488" xlink:href="#d"/><path fill="none" stroke="#000" stroke-dasharray="2.989 2.989" stroke-miterlimit="10" stroke-width=".399" d="M166.20703 175.01563h368.50781"/><path fill="none" stroke="#000" stroke-miterlimit="10" stroke-width=".399" d="M194.55469 172.02734v5.97657m28.34375-5.97657v5.97657m28.34765-5.97657v5.97657m28.34766-5.97657v5.97657m28.34766-5.97657v5.97657m28.34375-5.97657v5.97657m28.34765-5.97657v5.97657m28.34766-5.97657v5.97657m28.34766-5.97657v5.97657m28.34765-5.97657v5.97657m28.34375-5.97657v5.97657"/><use x="185.482" y="186.2" xlink:href="#e"/><use x="189.454" y="186.2" xlink:href="#f"/><use x="193.425" y="186.2" xlink:href="#g"/><use x="195.68" y="186.2" xlink:href="#e"/><use x="199.652" y="186.2" xlink:href="#e"/><use x="213.829" y="186.2" xlink:href="#e"/><use x="217.801" y="186.2" xlink:href="#h"/><use x="221.772" y="186.2" xlink:href="#g"/><use x="224.027" y="186.2" xlink:href="#e"/><use x="227.999" y="186.2" xlink:href="#e"/><use x="242.175" y="186.2" xlink:href="#i"/><use x="246.147" y="186.2" xlink:href="#e"/><use x="250.118" y="186.2" xlink:href="#g"/><use x="252.373" y="186.2" xlink:href="#e"/><use x="256.345" y="186.2" xlink:href="#e"/><use x="270.522" y="186.2" xlink:href="#i"/><use x="274.494" y="186.2" xlink:href="#i"/><use x="278.465" y="186.2" xlink:href="#g"/><use x="280.72" y="186.2" xlink:href="#e"/><use x="284.692" y="186.2" xlink:href="#e"/><g><use x="298.868" y="186.2" xlink:href="#i"/><use x="302.84" y="186.2" xlink:href="#j"/><use x="306.811" y="186.2" xlink:href="#g"/><use x="309.066" y="186.2" xlink:href="#e"/><use x="313.038" y="186.2" xlink:href="#e"/></g><g><use x="327.215" y="186.2" xlink:href="#i"/><use x="331.187" y="186.2" xlink:href="#k"/><use x="335.158" y="186.2" xlink:href="#g"/><use x="337.413" y="186.2" xlink:href="#e"/><use x="341.385" y="186.2" xlink:href="#e"/></g><g><use x="355.561" y="186.2" xlink:href="#i"/><use x="359.533" y="186.2" xlink:href="#l"/><use x="363.504" y="186.2" xlink:href="#g"/><use x="365.759" y="186.2" xlink:href="#e"/><use x="369.731" y="186.2" xlink:href="#e"/></g><g><use x="383.907" y="186.2" xlink:href="#i"/><use x="387.879" y="186.2" xlink:href="#m"/><use x="391.85" y="186.2" xlink:href="#g"/><use x="394.105" y="186.2" xlink:href="#e"/><use x="398.077" y="186.2" xlink:href="#e"/></g><g><use x="412.254" y="186.2" xlink:href="#i"/><use x="416.226" y="186.2" xlink:href="#n"/><use x="420.197" y="186.2" xlink:href="#g"/><use x="422.452" y="186.2" xlink:href="#e"/><use x="426.424" y="186.2" xlink:href="#e"/></g><g><use x="440.6" y="186.2" xlink:href="#i"/><use x="444.572" y="186.2" xlink:href="#o"/><use x="448.543" y="186.2" xlink:href="#g"/><use x="450.798" y="186.2" xlink:href="#e"/><use x="454.77" y="186.2" xlink:href="#e"/></g><g><use x="468.947" y="186.2" xlink:href="#i"/><use x="472.919" y="186.2" xlink:href="#f"/><use x="476.89" y="186.2" xlink:href="#g"/><use x="479.145" y="186.2" xlink:href="#e"/><use x="483.117" y="186.2" xlink:href="#e"/></g><path fill="none" stroke="red" stroke-miterlimit="10" stroke-width="5.978" d="M222.89844 160.83984h28.34765m0 0h28.34766m0 0h28.34766m-28.34766 0h28.34766m28.34375 0h28.34765m0 0h28.34766m0 0h28.34766m0 0h28.34765"/><path fill="none" stroke="#bfbfbf" stroke-miterlimit="10" stroke-width="5.978" d="M307.9414 132.4961h28.34376"/><path fill="none" stroke="#8f8fcf" stroke-miterlimit="10" stroke-width="5.978" d="M307.9414 132.4961h28.34376"/><path fill="none" stroke="#00f" stroke-miterlimit="10" stroke-width="5.978" d="M307.9414 132.4961h28.34376"/><g><use x="152.033" y="157.396" xlink:href="#p"/><use x="159.505" y="157.396" xlink:href="#q"/><use x="164.486" y="157.396" xlink:href="#r"/><use x="168.389" y="157.396" xlink:href="#s"/></g><g><use x="180.011" y="157.396" xlink:href="#t"/></g><g><use x="185.705" y="158.891" xlink:href="#j"/></g><g><use x="152.033" y="169.351" xlink:href="#u"/><use x="155.146" y="169.351" xlink:href="#v"/><use x="160.833" y="169.351" xlink:href="#w"/><use x="165.234" y="169.351" xlink:href="#x"/><use x="168.347" y="169.351" xlink:href="#y"/><use x="171.46" y="169.351" xlink:href="#z"/><use x="175.431" y="169.351" xlink:href="#b"/><use x="177.687" y="169.351" xlink:href="#A"/><use x="179.942" y="169.351" xlink:href="#d"/><use x="183.484" y="169.351" xlink:href="#B"/><use x="187.885" y="169.351" xlink:href="#C"/></g><g><use x="152.033" y="134.93" xlink:href="#p"/><use x="159.505" y="134.93" xlink:href="#q"/><use x="164.486" y="134.93" xlink:href="#r"/><use x="168.389" y="134.93" xlink:href="#s"/></g><g><use x="180.011" y="134.93" xlink:href="#D"/></g><g><use x="303.133" y="702.635" xlink:href="#E"/></g></svg>