<?xml version="1.0" encoding="utf-8" standalone="no"?>
<!DOCTYPE svg PUBLIC "-//W3C//DTD SVG 1.1//EN"
  "http://www.w3.org/Graphics/SVG/1.1/DTD/svg11.dtd">
<!-- Created with matplotlib (https://matplotlib.org/) -->
<svg height="288pt" version="1.1" viewBox="0 0 432 288" width="432pt" xmlns="http://www.w3.org/2000/svg" xmlns:xlink="http://www.w3.org/1999/xlink">
 <defs>
  <style type="text/css">
*{stroke-linecap:butt;stroke-linejoin:round;}
  </style>
 </defs>
 <g id="figure_1">
  <g id="patch_1">
   <path d="M 0 288 
L 432 288 
L 432 0 
L 0 0 
z
" style="fill:#ffffff;"/>
  </g>
  <g id="axes_1">
   <g id="patch_2">
    <path d="M 54 252 
L 388.8 252 
L 388.8 34.56 
L 54 34.56 
z
" style="fill:#ffffff;"/>
   </g>
   <g id="matplotlib.axis_1">
    <g id="xtick_1">
     <g id="line2d_1">
      <defs>
       <path d="M 0 0 
L 0 3.5 
" id="mab27d80c9d" style="stroke:#000000;stroke-width:0.8;"/>
      </defs>
      <g>
       <use style="stroke:#000000;stroke-width:0.8;" x="54" xlink:href="#mab27d80c9d" y="252"/>
      </g>
     </g>
     <g id="text_1">
      <!-- 0 -->
      <defs>
       <path d="M 31.78125 66.40625 
Q 24.171875 66.40625 20.328125 58.90625 
Q 16.5 51.421875 16.5 36.375 
Q 16.5 21.390625 20.328125 13.890625 
Q 24.171875 6.390625 31.78125 6.390625 
Q 39.453125 6.390625 43.28125 13.890625 
Q 47.125 21.390625 47.125 36.375 
Q 47.125 51.421875 43.28125 58.90625 
Q 39.453125 66.40625 31.78125 66.40625 
z
M 31.78125 74.21875 
Q 44.046875 74.21875 50.515625 64.515625 
Q 56.984375 54.828125 56.984375 36.375 
Q 56.984375 17.96875 50.515625 8.265625 
Q 44.046875 -1.421875 31.78125 -1.421875 
Q 19.53125 -1.421875 13.0625 8.265625 
Q 6.59375 17.96875 6.59375 36.375 
Q 6.59375 54.828125 13.0625 64.515625 
Q 19.53125 74.21875 31.78125 74.21875 
z
" id="DejaVuSans-48"/>
      </defs>
      <g transform="translate(50.81875 266.598437)scale(0.1 -0.1)">
       <use xlink:href="#DejaVuSans-48"/>
      </g>
     </g>
    </g>
    <g id="xtick_2">
     <g id="line2d_2">
      <g>
       <use style="stroke:#000000;stroke-width:0.8;" x="109.8" xlink:href="#mab27d80c9d" y="252"/>
      </g>
     </g>
     <g id="text_2">
      <!-- 20 -->
      <defs>
       <path d="M 19.1875 8.296875 
L 53.609375 8.296875 
L 53.609375 0 
L 7.328125 0 
L 7.328125 8.296875 
Q 12.9375 14.109375 22.625 23.890625 
Q 32.328125 33.6875 34.8125 36.53125 
Q 39.546875 41.84375 41.421875 45.53125 
Q 43.3125 49.21875 43.3125 52.78125 
Q 43.3125 58.59375 39.234375 62.25 
Q 35.15625 65.921875 28.609375 65.921875 
Q 23.96875 65.921875 18.8125 64.3125 
Q 13.671875 62.703125 7.8125 59.421875 
L 7.8125 69.390625 
Q 13.765625 71.78125 18.9375 73 
Q 24.125 74.21875 28.421875 74.21875 
Q 39.75 74.21875 46.484375 68.546875 
Q 53.21875 62.890625 53.21875 53.421875 
Q 53.21875 48.921875 51.53125 44.890625 
Q 49.859375 40.875 45.40625 35.40625 
Q 44.1875 33.984375 37.640625 27.21875 
Q 31.109375 20.453125 19.1875 8.296875 
z
" id="DejaVuSans-50"/>
      </defs>
      <g transform="translate(103.4375 266.598437)scale(0.1 -0.1)">
       <use xlink:href="#DejaVuSans-50"/>
       <use x="63.623047" xlink:href="#DejaVuSans-48"/>
      </g>
     </g>
    </g>
    <g id="xtick_3">
     <g id="line2d_3">
      <g>
       <use style="stroke:#000000;stroke-width:0.8;" x="165.6" xlink:href="#mab27d80c9d" y="252"/>
      </g>
     </g>
     <g id="text_3">
      <!-- 40 -->
      <defs>
       <path d="M 37.796875 64.3125 
L 12.890625 25.390625 
L 37.796875 25.390625 
z
M 35.203125 72.90625 
L 47.609375 72.90625 
L 47.609375 25.390625 
L 58.015625 25.390625 
L 58.015625 17.1875 
L 47.609375 17.1875 
L 47.609375 0 
L 37.796875 0 
L 37.796875 17.1875 
L 4.890625 17.1875 
L 4.890625 26.703125 
z
" id="DejaVuSans-52"/>
      </defs>
      <g transform="translate(159.2375 266.598437)scale(0.1 -0.1)">
       <use xlink:href="#DejaVuSans-52"/>
       <use x="63.623047" xlink:href="#DejaVuSans-48"/>
      </g>
     </g>
    </g>
    <g id="xtick_4">
     <g id="line2d_4">
      <g>
       <use style="stroke:#000000;stroke-width:0.8;" x="221.4" xlink:href="#mab27d80c9d" y="252"/>
      </g>
     </g>
     <g id="text_4">
      <!-- 60 -->
      <defs>
       <path d="M 33.015625 40.375 
Q 26.375 40.375 22.484375 35.828125 
Q 18.609375 31.296875 18.609375 23.390625 
Q 18.609375 15.53125 22.484375 10.953125 
Q 26.375 6.390625 33.015625 6.390625 
Q 39.65625 6.390625 43.53125 10.953125 
Q 47.40625 15.53125 47.40625 23.390625 
Q 47.40625 31.296875 43.53125 35.828125 
Q 39.65625 40.375 33.015625 40.375 
z
M 52.59375 71.296875 
L 52.59375 62.3125 
Q 48.875 64.0625 45.09375 64.984375 
Q 41.3125 65.921875 37.59375 65.921875 
Q 27.828125 65.921875 22.671875 59.328125 
Q 17.53125 52.734375 16.796875 39.40625 
Q 19.671875 43.65625 24.015625 45.921875 
Q 28.375 48.1875 33.59375 48.1875 
Q 44.578125 48.1875 50.953125 41.515625 
Q 57.328125 34.859375 57.328125 23.390625 
Q 57.328125 12.15625 50.6875 5.359375 
Q 44.046875 -1.421875 33.015625 -1.421875 
Q 20.359375 -1.421875 13.671875 8.265625 
Q 6.984375 17.96875 6.984375 36.375 
Q 6.984375 53.65625 15.1875 63.9375 
Q 23.390625 74.21875 37.203125 74.21875 
Q 40.921875 74.21875 44.703125 73.484375 
Q 48.484375 72.75 52.59375 71.296875 
z
" id="DejaVuSans-54"/>
      </defs>
      <g transform="translate(215.0375 266.598437)scale(0.1 -0.1)">
       <use xlink:href="#DejaVuSans-54"/>
       <use x="63.623047" xlink:href="#DejaVuSans-48"/>
      </g>
     </g>
    </g>
    <g id="xtick_5">
     <g id="line2d_5">
      <g>
       <use style="stroke:#000000;stroke-width:0.8;" x="277.2" xlink:href="#mab27d80c9d" y="252"/>
      </g>
     </g>
     <g id="text_5">
      <!-- 80 -->
      <defs>
       <path d="M 31.78125 34.625 
Q 24.75 34.625 20.71875 30.859375 
Q 16.703125 27.09375 16.703125 20.515625 
Q 16.703125 13.921875 20.71875 10.15625 
Q 24.75 6.390625 31.78125 6.390625 
Q 38.8125 6.390625 42.859375 10.171875 
Q 46.921875 13.96875 46.921875 20.515625 
Q 46.921875 27.09375 42.890625 30.859375 
Q 38.875 34.625 31.78125 34.625 
z
M 21.921875 38.8125 
Q 15.578125 40.375 12.03125 44.71875 
Q 8.5 49.078125 8.5 55.328125 
Q 8.5 64.0625 14.71875 69.140625 
Q 20.953125 74.21875 31.78125 74.21875 
Q 42.671875 74.21875 48.875 69.140625 
Q 55.078125 64.0625 55.078125 55.328125 
Q 55.078125 49.078125 51.53125 44.71875 
Q 48 40.375 41.703125 38.8125 
Q 48.828125 37.15625 52.796875 32.3125 
Q 56.78125 27.484375 56.78125 20.515625 
Q 56.78125 9.90625 50.3125 4.234375 
Q 43.84375 -1.421875 31.78125 -1.421875 
Q 19.734375 -1.421875 13.25 4.234375 
Q 6.78125 9.90625 6.78125 20.515625 
Q 6.78125 27.484375 10.78125 32.3125 
Q 14.796875 37.15625 21.921875 38.8125 
z
M 18.3125 54.390625 
Q 18.3125 48.734375 21.84375 45.5625 
Q 25.390625 42.390625 31.78125 42.390625 
Q 38.140625 42.390625 41.71875 45.5625 
Q 45.3125 48.734375 45.3125 54.390625 
Q 45.3125 60.0625 41.71875 63.234375 
Q 38.140625 66.40625 31.78125 66.40625 
Q 25.390625 66.40625 21.84375 63.234375 
Q 18.3125 60.0625 18.3125 54.390625 
z
" id="DejaVuSans-56"/>
      </defs>
      <g transform="translate(270.8375 266.598437)scale(0.1 -0.1)">
       <use xlink:href="#DejaVuSans-56"/>
       <use x="63.623047" xlink:href="#DejaVuSans-48"/>
      </g>
     </g>
    </g>
    <g id="xtick_6">
     <g id="line2d_6">
      <g>
       <use style="stroke:#000000;stroke-width:0.8;" x="333" xlink:href="#mab27d80c9d" y="252"/>
      </g>
     </g>
     <g id="text_6">
      <!-- 100 -->
      <defs>
       <path d="M 12.40625 8.296875 
L 28.515625 8.296875 
L 28.515625 63.921875 
L 10.984375 60.40625 
L 10.984375 69.390625 
L 28.421875 72.90625 
L 38.28125 72.90625 
L 38.28125 8.296875 
L 54.390625 8.296875 
L 54.390625 0 
L 12.40625 0 
z
" id="DejaVuSans-49"/>
      </defs>
      <g transform="translate(323.45625 266.598437)scale(0.1 -0.1)">
       <use xlink:href="#DejaVuSans-49"/>
       <use x="63.623047" xlink:href="#DejaVuSans-48"/>
       <use x="127.246094" xlink:href="#DejaVuSans-48"/>
      </g>
     </g>
    </g>
    <g id="xtick_7">
     <g id="line2d_7">
      <g>
       <use style="stroke:#000000;stroke-width:0.8;" x="388.8" xlink:href="#mab27d80c9d" y="252"/>
      </g>
     </g>
     <g id="text_7">
      <!-- 120 -->
      <g transform="translate(379.25625 266.598437)scale(0.1 -0.1)">
       <use xlink:href="#DejaVuSans-49"/>
       <use x="63.623047" xlink:href="#DejaVuSans-50"/>
       <use x="127.246094" xlink:href="#DejaVuSans-48"/>
      </g>
     </g>
    </g>
    <g id="text_8">
     <!-- Number of conflicts (undirected) -->
     <defs>
      <path d="M 9.8125 72.90625 
L 23.09375 72.90625 
L 55.421875 11.921875 
L 55.421875 72.90625 
L 64.984375 72.90625 
L 64.984375 0 
L 51.703125 0 
L 19.390625 60.984375 
L 19.390625 0 
L 9.8125 0 
z
" id="DejaVuSans-78"/>
      <path d="M 8.5 21.578125 
L 8.5 54.6875 
L 17.484375 54.6875 
L 17.484375 21.921875 
Q 17.484375 14.15625 20.5 10.265625 
Q 23.53125 6.390625 29.59375 6.390625 
Q 36.859375 6.390625 41.078125 11.03125 
Q 45.3125 15.671875 45.3125 23.6875 
L 45.3125 54.6875 
L 54.296875 54.6875 
L 54.296875 0 
L 45.3125 0 
L 45.3125 8.40625 
Q 42.046875 3.421875 37.71875 1 
Q 33.40625 -1.421875 27.6875 -1.421875 
Q 18.265625 -1.421875 13.375 4.4375 
Q 8.5 10.296875 8.5 21.578125 
z
M 31.109375 56 
z
" id="DejaVuSans-117"/>
      <path d="M 52 44.1875 
Q 55.375 50.25 60.0625 53.125 
Q 64.75 56 71.09375 56 
Q 79.640625 56 84.28125 50.015625 
Q 88.921875 44.046875 88.921875 33.015625 
L 88.921875 0 
L 79.890625 0 
L 79.890625 32.71875 
Q 79.890625 40.578125 77.09375 44.375 
Q 74.3125 48.1875 68.609375 48.1875 
Q 61.625 48.1875 57.5625 43.546875 
Q 53.515625 38.921875 53.515625 30.90625 
L 53.515625 0 
L 44.484375 0 
L 44.484375 32.71875 
Q 44.484375 40.625 41.703125 44.40625 
Q 38.921875 48.1875 33.109375 48.1875 
Q 26.21875 48.1875 22.15625 43.53125 
Q 18.109375 38.875 18.109375 30.90625 
L 18.109375 0 
L 9.078125 0 
L 9.078125 54.6875 
L 18.109375 54.6875 
L 18.109375 46.1875 
Q 21.1875 51.21875 25.484375 53.609375 
Q 29.78125 56 35.6875 56 
Q 41.65625 56 45.828125 52.96875 
Q 50 49.953125 52 44.1875 
z
" id="DejaVuSans-109"/>
      <path d="M 48.6875 27.296875 
Q 48.6875 37.203125 44.609375 42.84375 
Q 40.53125 48.484375 33.40625 48.484375 
Q 26.265625 48.484375 22.1875 42.84375 
Q 18.109375 37.203125 18.109375 27.296875 
Q 18.109375 17.390625 22.1875 11.75 
Q 26.265625 6.109375 33.40625 6.109375 
Q 40.53125 6.109375 44.609375 11.75 
Q 48.6875 17.390625 48.6875 27.296875 
z
M 18.109375 46.390625 
Q 20.953125 51.265625 25.265625 53.625 
Q 29.59375 56 35.59375 56 
Q 45.5625 56 51.78125 48.09375 
Q 58.015625 40.1875 58.015625 27.296875 
Q 58.015625 14.40625 51.78125 6.484375 
Q 45.5625 -1.421875 35.59375 -1.421875 
Q 29.59375 -1.421875 25.265625 0.953125 
Q 20.953125 3.328125 18.109375 8.203125 
L 18.109375 0 
L 9.078125 0 
L 9.078125 75.984375 
L 18.109375 75.984375 
z
" id="DejaVuSans-98"/>
      <path d="M 56.203125 29.59375 
L 56.203125 25.203125 
L 14.890625 25.203125 
Q 15.484375 15.921875 20.484375 11.0625 
Q 25.484375 6.203125 34.421875 6.203125 
Q 39.59375 6.203125 44.453125 7.46875 
Q 49.3125 8.734375 54.109375 11.28125 
L 54.109375 2.78125 
Q 49.265625 0.734375 44.1875 -0.34375 
Q 39.109375 -1.421875 33.890625 -1.421875 
Q 20.796875 -1.421875 13.15625 6.1875 
Q 5.515625 13.8125 5.515625 26.8125 
Q 5.515625 40.234375 12.765625 48.109375 
Q 20.015625 56 32.328125 56 
Q 43.359375 56 49.78125 48.890625 
Q 56.203125 41.796875 56.203125 29.59375 
z
M 47.21875 32.234375 
Q 47.125 39.59375 43.09375 43.984375 
Q 39.0625 48.390625 32.421875 48.390625 
Q 24.90625 48.390625 20.390625 44.140625 
Q 15.875 39.890625 15.1875 32.171875 
z
" id="DejaVuSans-101"/>
      <path d="M 41.109375 46.296875 
Q 39.59375 47.171875 37.8125 47.578125 
Q 36.03125 48 33.890625 48 
Q 26.265625 48 22.1875 43.046875 
Q 18.109375 38.09375 18.109375 28.8125 
L 18.109375 0 
L 9.078125 0 
L 9.078125 54.6875 
L 18.109375 54.6875 
L 18.109375 46.1875 
Q 20.953125 51.171875 25.484375 53.578125 
Q 30.03125 56 36.53125 56 
Q 37.453125 56 38.578125 55.875 
Q 39.703125 55.765625 41.0625 55.515625 
z
" id="DejaVuSans-114"/>
      <path id="DejaVuSans-32"/>
      <path d="M 30.609375 48.390625 
Q 23.390625 48.390625 19.1875 42.75 
Q 14.984375 37.109375 14.984375 27.296875 
Q 14.984375 17.484375 19.15625 11.84375 
Q 23.34375 6.203125 30.609375 6.203125 
Q 37.796875 6.203125 41.984375 11.859375 
Q 46.1875 17.53125 46.1875 27.296875 
Q 46.1875 37.015625 41.984375 42.703125 
Q 37.796875 48.390625 30.609375 48.390625 
z
M 30.609375 56 
Q 42.328125 56 49.015625 48.375 
Q 55.71875 40.765625 55.71875 27.296875 
Q 55.71875 13.875 49.015625 6.21875 
Q 42.328125 -1.421875 30.609375 -1.421875 
Q 18.84375 -1.421875 12.171875 6.21875 
Q 5.515625 13.875 5.515625 27.296875 
Q 5.515625 40.765625 12.171875 48.375 
Q 18.84375 56 30.609375 56 
z
" id="DejaVuSans-111"/>
      <path d="M 37.109375 75.984375 
L 37.109375 68.5 
L 28.515625 68.5 
Q 23.6875 68.5 21.796875 66.546875 
Q 19.921875 64.59375 19.921875 59.515625 
L 19.921875 54.6875 
L 34.71875 54.6875 
L 34.71875 47.703125 
L 19.921875 47.703125 
L 19.921875 0 
L 10.890625 0 
L 10.890625 47.703125 
L 2.296875 47.703125 
L 2.296875 54.6875 
L 10.890625 54.6875 
L 10.890625 58.5 
Q 10.890625 67.625 15.140625 71.796875 
Q 19.390625 75.984375 28.609375 75.984375 
z
" id="DejaVuSans-102"/>
      <path d="M 48.78125 52.59375 
L 48.78125 44.1875 
Q 44.96875 46.296875 41.140625 47.34375 
Q 37.3125 48.390625 33.40625 48.390625 
Q 24.65625 48.390625 19.8125 42.84375 
Q 14.984375 37.3125 14.984375 27.296875 
Q 14.984375 17.28125 19.8125 11.734375 
Q 24.65625 6.203125 33.40625 6.203125 
Q 37.3125 6.203125 41.140625 7.25 
Q 44.96875 8.296875 48.78125 10.40625 
L 48.78125 2.09375 
Q 45.015625 0.34375 40.984375 -0.53125 
Q 36.96875 -1.421875 32.421875 -1.421875 
Q 20.0625 -1.421875 12.78125 6.34375 
Q 5.515625 14.109375 5.515625 27.296875 
Q 5.515625 40.671875 12.859375 48.328125 
Q 20.21875 56 33.015625 56 
Q 37.15625 56 41.109375 55.140625 
Q 45.0625 54.296875 48.78125 52.59375 
z
" id="DejaVuSans-99"/>
      <path d="M 54.890625 33.015625 
L 54.890625 0 
L 45.90625 0 
L 45.90625 32.71875 
Q 45.90625 40.484375 42.875 44.328125 
Q 39.84375 48.1875 33.796875 48.1875 
Q 26.515625 48.1875 22.3125 43.546875 
Q 18.109375 38.921875 18.109375 30.90625 
L 18.109375 0 
L 9.078125 0 
L 9.078125 54.6875 
L 18.109375 54.6875 
L 18.109375 46.1875 
Q 21.34375 51.125 25.703125 53.5625 
Q 30.078125 56 35.796875 56 
Q 45.21875 56 50.046875 50.171875 
Q 54.890625 44.34375 54.890625 33.015625 
z
" id="DejaVuSans-110"/>
      <path d="M 9.421875 75.984375 
L 18.40625 75.984375 
L 18.40625 0 
L 9.421875 0 
z
" id="DejaVuSans-108"/>
      <path d="M 9.421875 54.6875 
L 18.40625 54.6875 
L 18.40625 0 
L 9.421875 0 
z
M 9.421875 75.984375 
L 18.40625 75.984375 
L 18.40625 64.59375 
L 9.421875 64.59375 
z
" id="DejaVuSans-105"/>
      <path d="M 18.3125 70.21875 
L 18.3125 54.6875 
L 36.8125 54.6875 
L 36.8125 47.703125 
L 18.3125 47.703125 
L 18.3125 18.015625 
Q 18.3125 11.328125 20.140625 9.421875 
Q 21.96875 7.515625 27.59375 7.515625 
L 36.8125 7.515625 
L 36.8125 0 
L 27.59375 0 
Q 17.1875 0 13.234375 3.875 
Q 9.28125 7.765625 9.28125 18.015625 
L 9.28125 47.703125 
L 2.6875 47.703125 
L 2.6875 54.6875 
L 9.28125 54.6875 
L 9.28125 70.21875 
z
" id="DejaVuSans-116"/>
      <path d="M 44.28125 53.078125 
L 44.28125 44.578125 
Q 40.484375 46.53125 36.375 47.5 
Q 32.28125 48.484375 27.875 48.484375 
Q 21.1875 48.484375 17.84375 46.4375 
Q 14.5 44.390625 14.5 40.28125 
Q 14.5 37.15625 16.890625 35.375 
Q 19.28125 33.59375 26.515625 31.984375 
L 29.59375 31.296875 
Q 39.15625 29.25 43.1875 25.515625 
Q 47.21875 21.78125 47.21875 15.09375 
Q 47.21875 7.46875 41.1875 3.015625 
Q 35.15625 -1.421875 24.609375 -1.421875 
Q 20.21875 -1.421875 15.453125 -0.5625 
Q 10.6875 0.296875 5.421875 2 
L 5.421875 11.28125 
Q 10.40625 8.6875 15.234375 7.390625 
Q 20.0625 6.109375 24.8125 6.109375 
Q 31.15625 6.109375 34.5625 8.28125 
Q 37.984375 10.453125 37.984375 14.40625 
Q 37.984375 18.0625 35.515625 20.015625 
Q 33.0625 21.96875 24.703125 23.78125 
L 21.578125 24.515625 
Q 13.234375 26.265625 9.515625 29.90625 
Q 5.8125 33.546875 5.8125 39.890625 
Q 5.8125 47.609375 11.28125 51.796875 
Q 16.75 56 26.8125 56 
Q 31.78125 56 36.171875 55.265625 
Q 40.578125 54.546875 44.28125 53.078125 
z
" id="DejaVuSans-115"/>
      <path d="M 31 75.875 
Q 24.46875 64.65625 21.28125 53.65625 
Q 18.109375 42.671875 18.109375 31.390625 
Q 18.109375 20.125 21.3125 9.0625 
Q 24.515625 -2 31 -13.1875 
L 23.1875 -13.1875 
Q 15.875 -1.703125 12.234375 9.375 
Q 8.59375 20.453125 8.59375 31.390625 
Q 8.59375 42.28125 12.203125 53.3125 
Q 15.828125 64.359375 23.1875 75.875 
z
" id="DejaVuSans-40"/>
      <path d="M 45.40625 46.390625 
L 45.40625 75.984375 
L 54.390625 75.984375 
L 54.390625 0 
L 45.40625 0 
L 45.40625 8.203125 
Q 42.578125 3.328125 38.25 0.953125 
Q 33.9375 -1.421875 27.875 -1.421875 
Q 17.96875 -1.421875 11.734375 6.484375 
Q 5.515625 14.40625 5.515625 27.296875 
Q 5.515625 40.1875 11.734375 48.09375 
Q 17.96875 56 27.875 56 
Q 33.9375 56 38.25 53.625 
Q 42.578125 51.265625 45.40625 46.390625 
z
M 14.796875 27.296875 
Q 14.796875 17.390625 18.875 11.75 
Q 22.953125 6.109375 30.078125 6.109375 
Q 37.203125 6.109375 41.296875 11.75 
Q 45.40625 17.390625 45.40625 27.296875 
Q 45.40625 37.203125 41.296875 42.84375 
Q 37.203125 48.484375 30.078125 48.484375 
Q 22.953125 48.484375 18.875 42.84375 
Q 14.796875 37.203125 14.796875 27.296875 
z
" id="DejaVuSans-100"/>
      <path d="M 8.015625 75.875 
L 15.828125 75.875 
Q 23.140625 64.359375 26.78125 53.3125 
Q 30.421875 42.28125 30.421875 31.390625 
Q 30.421875 20.453125 26.78125 9.375 
Q 23.140625 -1.703125 15.828125 -13.1875 
L 8.015625 -13.1875 
Q 14.5 -2 17.703125 9.0625 
Q 20.90625 20.125 20.90625 31.390625 
Q 20.90625 42.671875 17.703125 53.65625 
Q 14.5 64.65625 8.015625 75.875 
z
" id="DejaVuSans-41"/>
     </defs>
     <g transform="translate(140.004687 280.276563)scale(0.1 -0.1)">
      <use xlink:href="#DejaVuSans-78"/>
      <use x="74.804688" xlink:href="#DejaVuSans-117"/>
      <use x="138.183594" xlink:href="#DejaVuSans-109"/>
      <use x="235.595703" xlink:href="#DejaVuSans-98"/>
      <use x="299.072266" xlink:href="#DejaVuSans-101"/>
      <use x="360.595703" xlink:href="#DejaVuSans-114"/>
      <use x="401.708984" xlink:href="#DejaVuSans-32"/>
      <use x="433.496094" xlink:href="#DejaVuSans-111"/>
      <use x="494.677734" xlink:href="#DejaVuSans-102"/>
      <use x="529.882812" xlink:href="#DejaVuSans-32"/>
      <use x="561.669922" xlink:href="#DejaVuSans-99"/>
      <use x="616.650391" xlink:href="#DejaVuSans-111"/>
      <use x="677.832031" xlink:href="#DejaVuSans-110"/>
      <use x="741.210938" xlink:href="#DejaVuSans-102"/>
      <use x="776.416016" xlink:href="#DejaVuSans-108"/>
      <use x="804.199219" xlink:href="#DejaVuSans-105"/>
      <use x="831.982422" xlink:href="#DejaVuSans-99"/>
      <use x="886.962891" xlink:href="#DejaVuSans-116"/>
      <use x="926.171875" xlink:href="#DejaVuSans-115"/>
      <use x="978.271484" xlink:href="#DejaVuSans-32"/>
      <use x="1010.058594" xlink:href="#DejaVuSans-40"/>
      <use x="1049.072266" xlink:href="#DejaVuSans-117"/>
      <use x="1112.451172" xlink:href="#DejaVuSans-110"/>
      <use x="1175.830078" xlink:href="#DejaVuSans-100"/>
      <use x="1239.306641" xlink:href="#DejaVuSans-105"/>
      <use x="1267.089844" xlink:href="#DejaVuSans-114"/>
      <use x="1308.171875" xlink:href="#DejaVuSans-101"/>
      <use x="1369.695312" xlink:href="#DejaVuSans-99"/>
      <use x="1424.675781" xlink:href="#DejaVuSans-116"/>
      <use x="1463.884766" xlink:href="#DejaVuSans-101"/>
      <use x="1525.408203" xlink:href="#DejaVuSans-100"/>
      <use x="1588.884766" xlink:href="#DejaVuSans-41"/>
     </g>
    </g>
   </g>
   <g id="matplotlib.axis_2">
    <g id="ytick_1">
     <g id="line2d_8">
      <defs>
       <path d="M 0 0 
L -3.5 0 
" id="mf22dbaabc9" style="stroke:#000000;stroke-width:0.8;"/>
      </defs>
      <g>
       <use style="stroke:#000000;stroke-width:0.8;" x="54" xlink:href="#mf22dbaabc9" y="225.130279"/>
      </g>
     </g>
     <g id="text_9">
      <!-- 2.5 -->
      <defs>
       <path d="M 10.6875 12.40625 
L 21 12.40625 
L 21 0 
L 10.6875 0 
z
" id="DejaVuSans-46"/>
       <path d="M 10.796875 72.90625 
L 49.515625 72.90625 
L 49.515625 64.59375 
L 19.828125 64.59375 
L 19.828125 46.734375 
Q 21.96875 47.46875 24.109375 47.828125 
Q 26.265625 48.1875 28.421875 48.1875 
Q 40.625 48.1875 47.75 41.5 
Q 54.890625 34.8125 54.890625 23.390625 
Q 54.890625 11.625 47.5625 5.09375 
Q 40.234375 -1.421875 26.90625 -1.421875 
Q 22.3125 -1.421875 17.546875 -0.640625 
Q 12.796875 0.140625 7.71875 1.703125 
L 7.71875 11.625 
Q 12.109375 9.234375 16.796875 8.0625 
Q 21.484375 6.890625 26.703125 6.890625 
Q 35.15625 6.890625 40.078125 11.328125 
Q 45.015625 15.765625 45.015625 23.390625 
Q 45.015625 31 40.078125 35.4375 
Q 35.15625 39.890625 26.703125 39.890625 
Q 22.75 39.890625 18.8125 39.015625 
Q 14.890625 38.140625 10.796875 36.28125 
z
" id="DejaVuSans-53"/>
      </defs>
      <g transform="translate(31.096875 228.929498)scale(0.1 -0.1)">
       <use xlink:href="#DejaVuSans-50"/>
       <use x="63.623047" xlink:href="#DejaVuSans-46"/>
       <use x="95.410156" xlink:href="#DejaVuSans-53"/>
      </g>
     </g>
    </g>
    <g id="ytick_2">
     <g id="line2d_9">
      <g>
       <use style="stroke:#000000;stroke-width:0.8;" x="54" xlink:href="#mf22dbaabc9" y="196.820138"/>
      </g>
     </g>
     <g id="text_10">
      <!-- 5.0 -->
      <g transform="translate(31.096875 200.619357)scale(0.1 -0.1)">
       <use xlink:href="#DejaVuSans-53"/>
       <use x="63.623047" xlink:href="#DejaVuSans-46"/>
       <use x="95.410156" xlink:href="#DejaVuSans-48"/>
      </g>
     </g>
    </g>
    <g id="ytick_3">
     <g id="line2d_10">
      <g>
       <use style="stroke:#000000;stroke-width:0.8;" x="54" xlink:href="#mf22dbaabc9" y="168.509998"/>
      </g>
     </g>
     <g id="text_11">
      <!-- 7.5 -->
      <defs>
       <path d="M 8.203125 72.90625 
L 55.078125 72.90625 
L 55.078125 68.703125 
L 28.609375 0 
L 18.3125 0 
L 43.21875 64.59375 
L 8.203125 64.59375 
z
" id="DejaVuSans-55"/>
      </defs>
      <g transform="translate(31.096875 172.309216)scale(0.1 -0.1)">
       <use xlink:href="#DejaVuSans-55"/>
       <use x="63.623047" xlink:href="#DejaVuSans-46"/>
       <use x="95.410156" xlink:href="#DejaVuSans-53"/>
      </g>
     </g>
    </g>
    <g id="ytick_4">
     <g id="line2d_11">
      <g>
       <use style="stroke:#000000;stroke-width:0.8;" x="54" xlink:href="#mf22dbaabc9" y="140.199857"/>
      </g>
     </g>
     <g id="text_12">
      <!-- 10.0 -->
      <g transform="translate(24.734375 143.999075)scale(0.1 -0.1)">
       <use xlink:href="#DejaVuSans-49"/>
       <use x="63.623047" xlink:href="#DejaVuSans-48"/>
       <use x="127.246094" xlink:href="#DejaVuSans-46"/>
       <use x="159.033203" xlink:href="#DejaVuSans-48"/>
      </g>
     </g>
    </g>
    <g id="ytick_5">
     <g id="line2d_12">
      <g>
       <use style="stroke:#000000;stroke-width:0.8;" x="54" xlink:href="#mf22dbaabc9" y="111.889716"/>
      </g>
     </g>
     <g id="text_13">
      <!-- 12.5 -->
      <g transform="translate(24.734375 115.688935)scale(0.1 -0.1)">
       <use xlink:href="#DejaVuSans-49"/>
       <use x="63.623047" xlink:href="#DejaVuSans-50"/>
       <use x="127.246094" xlink:href="#DejaVuSans-46"/>
       <use x="159.033203" xlink:href="#DejaVuSans-53"/>
      </g>
     </g>
    </g>
    <g id="ytick_6">
     <g id="line2d_13">
      <g>
       <use style="stroke:#000000;stroke-width:0.8;" x="54" xlink:href="#mf22dbaabc9" y="83.579575"/>
      </g>
     </g>
     <g id="text_14">
      <!-- 15.0 -->
      <g transform="translate(24.734375 87.378794)scale(0.1 -0.1)">
       <use xlink:href="#DejaVuSans-49"/>
       <use x="63.623047" xlink:href="#DejaVuSans-53"/>
       <use x="127.246094" xlink:href="#DejaVuSans-46"/>
       <use x="159.033203" xlink:href="#DejaVuSans-48"/>
      </g>
     </g>
    </g>
    <g id="ytick_7">
     <g id="line2d_14">
      <g>
       <use style="stroke:#000000;stroke-width:0.8;" x="54" xlink:href="#mf22dbaabc9" y="55.269434"/>
      </g>
     </g>
     <g id="text_15">
      <!-- 17.5 -->
      <g transform="translate(24.734375 59.068653)scale(0.1 -0.1)">
       <use xlink:href="#DejaVuSans-49"/>
       <use x="63.623047" xlink:href="#DejaVuSans-55"/>
       <use x="127.246094" xlink:href="#DejaVuSans-46"/>
       <use x="159.033203" xlink:href="#DejaVuSans-53"/>
      </g>
     </g>
    </g>
    <g id="text_16">
     <!-- Heuristic score in admitted set -->
     <defs>
      <path d="M 9.8125 72.90625 
L 19.671875 72.90625 
L 19.671875 43.015625 
L 55.515625 43.015625 
L 55.515625 72.90625 
L 65.375 72.90625 
L 65.375 0 
L 55.515625 0 
L 55.515625 34.71875 
L 19.671875 34.71875 
L 19.671875 0 
L 9.8125 0 
z
" id="DejaVuSans-72"/>
      <path d="M 34.28125 27.484375 
Q 23.390625 27.484375 19.1875 25 
Q 14.984375 22.515625 14.984375 16.5 
Q 14.984375 11.71875 18.140625 8.90625 
Q 21.296875 6.109375 26.703125 6.109375 
Q 34.1875 6.109375 38.703125 11.40625 
Q 43.21875 16.703125 43.21875 25.484375 
L 43.21875 27.484375 
z
M 52.203125 31.203125 
L 52.203125 0 
L 43.21875 0 
L 43.21875 8.296875 
Q 40.140625 3.328125 35.546875 0.953125 
Q 30.953125 -1.421875 24.3125 -1.421875 
Q 15.921875 -1.421875 10.953125 3.296875 
Q 6 8.015625 6 15.921875 
Q 6 25.140625 12.171875 29.828125 
Q 18.359375 34.515625 30.609375 34.515625 
L 43.21875 34.515625 
L 43.21875 35.40625 
Q 43.21875 41.609375 39.140625 45 
Q 35.0625 48.390625 27.6875 48.390625 
Q 23 48.390625 18.546875 47.265625 
Q 14.109375 46.140625 10.015625 43.890625 
L 10.015625 52.203125 
Q 14.9375 54.109375 19.578125 55.046875 
Q 24.21875 56 28.609375 56 
Q 40.484375 56 46.34375 49.84375 
Q 52.203125 43.703125 52.203125 31.203125 
z
" id="DejaVuSans-97"/>
     </defs>
     <g transform="translate(18.654687 220.201094)rotate(-90)scale(0.1 -0.1)">
      <use xlink:href="#DejaVuSans-72"/>
      <use x="75.195312" xlink:href="#DejaVuSans-101"/>
      <use x="136.71875" xlink:href="#DejaVuSans-117"/>
      <use x="200.097656" xlink:href="#DejaVuSans-114"/>
      <use x="241.210938" xlink:href="#DejaVuSans-105"/>
      <use x="268.994141" xlink:href="#DejaVuSans-115"/>
      <use x="321.09375" xlink:href="#DejaVuSans-116"/>
      <use x="360.302734" xlink:href="#DejaVuSans-105"/>
      <use x="388.085938" xlink:href="#DejaVuSans-99"/>
      <use x="443.066406" xlink:href="#DejaVuSans-32"/>
      <use x="474.853516" xlink:href="#DejaVuSans-115"/>
      <use x="526.953125" xlink:href="#DejaVuSans-99"/>
      <use x="581.933594" xlink:href="#DejaVuSans-111"/>
      <use x="643.115234" xlink:href="#DejaVuSans-114"/>
      <use x="684.197266" xlink:href="#DejaVuSans-101"/>
      <use x="745.720703" xlink:href="#DejaVuSans-32"/>
      <use x="777.507812" xlink:href="#DejaVuSans-105"/>
      <use x="805.291016" xlink:href="#DejaVuSans-110"/>
      <use x="868.669922" xlink:href="#DejaVuSans-32"/>
      <use x="900.457031" xlink:href="#DejaVuSans-97"/>
      <use x="961.736328" xlink:href="#DejaVuSans-100"/>
      <use x="1025.212891" xlink:href="#DejaVuSans-109"/>
      <use x="1122.625" xlink:href="#DejaVuSans-105"/>
      <use x="1150.408203" xlink:href="#DejaVuSans-116"/>
      <use x="1189.617188" xlink:href="#DejaVuSans-116"/>
      <use x="1228.826172" xlink:href="#DejaVuSans-101"/>
      <use x="1290.349609" xlink:href="#DejaVuSans-100"/>
      <use x="1353.826172" xlink:href="#DejaVuSans-32"/>
      <use x="1385.613281" xlink:href="#DejaVuSans-115"/>
      <use x="1437.712891" xlink:href="#DejaVuSans-101"/>
      <use x="1499.236328" xlink:href="#DejaVuSans-116"/>
     </g>
    </g>
   </g>
   <g id="line2d_15">
    <path clip-path="url(#p2e8f622abd)" d="M 54 242.116364 
L 56.79 232.604156 
L 59.58 223.544911 
L 62.37 218.607623 
L 65.16 216.433404 
L 67.95 213.670334 
L 70.74 212.628521 
L 73.53 212.40204 
L 76.32 210.726079 
L 79.11 211.813189 
L 81.9 207.328863 
L 84.69 204.792274 
L 87.48 198.903765 
L 90.27 200.217355 
L 93.06 197.952544 
L 95.85 197.907248 
L 98.64 192.516997 
L 101.43 185.314897 
L 104.22 187.579708 
L 107.01 181.600607 
L 109.8 180.332312 
L 112.59 178.56576 
L 115.38 176.346244 
L 118.17 168.419405 
L 120.96 168.192924 
L 123.75 168.917664 
L 126.54 166.290482 
L 129.33 167.966443 
L 132.12 167.241703 
L 134.91 161.443786 
L 137.7 156.053536 
L 140.49 157.231237 
L 143.28 157.276534 
L 146.07 152.429838 
L 148.86 150.436804 
L 151.65 147.175475 
L 154.44 146.269551 
L 157.23 149.123213 
L 160.02 140.018672 
L 162.81 136.349678 
L 165.6 141.468151 
L 168.39 132.72598 
L 171.18 137.436787 
L 173.97 128.830504 
L 176.76 129.374059 
L 179.55 124.346178 
L 182.34 124.663251 
L 185.13 121.718997 
L 187.92 123.440253 
L 190.71 116.691116 
L 193.5 116.419338 
L 196.29 116.555227 
L 199.08 119.318297 
L 201.87 114.833971 
L 204.66 108.809573 
L 207.45 115.422821 
L 210.24 108.175425 
L 213.03 109.851386 
L 215.82 104.506431 
L 218.61 110.983791 
L 221.4 101.607473 
L 224.19 96.760777 
L 226.98 102.422805 
L 229.77 104.325246 
L 232.56 94.948928 
L 235.35 92.684116 
L 238.14 93.182375 
L 240.93 87.067384 
L 243.72 89.241603 
L 246.51 91.189341 
L 249.3 84.938462 
L 252.09 84.576092 
L 254.88 91.415822 
L 257.67 83.941945 
L 260.46 83.262501 
L 263.25 83.262501 
L 266.04 74.248553 
L 268.83 73.659702 
L 271.62 74.656219 
L 274.41 67.499415 
L 277.2 71.213706 
L 279.99 71.440187 
L 282.78 68.722413 
L 285.57 67.001157 
L 288.36 65.914047 
L 291.15 68.767709 
L 293.94 66.276417 
L 296.73 61.022055 
L 299.52 58.80254 
L 302.31 58.938428 
L 305.1 60.750277 
L 307.89 59.753761 
L 310.68 59.029021 
L 313.47 63.468051 
L 316.26 56.220655 
L 319.05 51.373959 
L 321.84 50.785108 
L 324.63 55.31473 
L 327.42 51.464551 
L 330.21 46.753744 
L 333 47.478483 
L 335.79 47.840853 
L 338.58 50.468034 
L 341.37 51.056885 
L 344.16 51.872217 
L 346.95 44.443636 
L 349.74 45.576042 
L 352.53 46.79904 
L 355.32 45.938412 
L 358.11 54.36351 
L 360.9 50.966293 
L 363.69 52.143995 
L 366.48 53.185808 
L 369.27 54.907064 
L 372.06 57.624838 
L 374.85 64.962826 
L 377.64 64.691049 
L 380.43 70.488966 
L 383.22 78.687583 
L 386.01 83.579575 
" style="fill:none;stroke:#800080;stroke-dasharray:1,1.65;stroke-dashoffset:0;"/>
   </g>
   <g id="line2d_16">
    <path clip-path="url(#p2e8f622abd)" d="M 54 242.116364 
L 56.79 232.604156 
L 59.58 223.544911 
L 62.37 218.607623 
L 65.16 216.433404 
L 67.95 213.625038 
L 70.74 212.628521 
L 73.53 212.40204 
L 76.32 210.771376 
L 79.11 211.6773 
L 81.9 207.192974 
L 84.69 204.746978 
L 87.48 199.175542 
L 90.27 198.677284 
L 93.06 197.544878 
L 95.85 196.231287 
L 98.64 189.48215 
L 101.43 183.185975 
L 104.22 186.71908 
L 107.01 179.245203 
L 109.8 178.928129 
L 112.59 176.844503 
L 115.38 174.534395 
L 118.17 166.607556 
L 120.96 166.245186 
L 123.75 165.792224 
L 126.54 163.753894 
L 129.33 165.520447 
L 132.12 166.381075 
L 134.91 160.311381 
L 137.7 154.604056 
L 140.49 155.64587 
L 143.28 155.962943 
L 146.07 151.161543 
L 148.86 146.450736 
L 151.65 144.865368 
L 154.44 144.865368 
L 157.23 147.537845 
L 160.02 137.482083 
L 162.81 133.541312 
L 165.6 138.297415 
L 168.39 129.147578 
L 171.18 136.259085 
L 173.97 127.698098 
L 176.76 130.053502 
L 179.55 124.164993 
L 182.34 124.255585 
L 185.13 119.861852 
L 187.92 120.903665 
L 190.71 114.381008 
L 193.5 115.604006 
L 196.29 115.060452 
L 199.08 118.140595 
L 201.87 113.15801 
L 204.66 107.586574 
L 207.45 115.332229 
L 210.24 107.586574 
L 213.03 109.171942 
L 215.82 101.924546 
L 218.61 109.715497 
L 221.4 102.015139 
L 224.19 95.537779 
L 226.98 102.196324 
L 229.77 103.374025 
L 232.56 95.356594 
L 235.35 92.185858 
L 238.14 92.955894 
L 240.93 85.889683 
L 243.72 90.283416 
L 246.51 90.509898 
L 249.3 85.300832 
L 252.09 85.617905 
L 254.88 91.551711 
L 257.67 84.168426 
L 260.46 83.217205 
L 263.25 82.900132 
L 266.04 74.15796 
L 268.83 72.527296 
L 271.62 74.022071 
L 274.41 66.865268 
L 277.2 69.130079 
L 279.99 71.75726 
L 282.78 68.269451 
L 285.57 66.95586 
L 288.36 63.649236 
L 291.15 69.809523 
L 293.94 66.457602 
L 296.73 61.022055 
L 299.52 58.213689 
L 302.31 57.534245 
L 305.1 60.931462 
L 307.89 60.976759 
L 310.68 58.80254 
L 313.47 64.419272 
L 316.26 56.76421 
L 319.05 51.917514 
L 321.84 50.150961 
L 324.63 55.948878 
L 327.42 52.823438 
L 330.21 46.980225 
L 333 47.659668 
L 335.79 48.157927 
L 338.58 50.468034 
L 341.37 51.373959 
L 344.16 52.91403 
L 346.95 45.576042 
L 349.74 45.983708 
L 352.53 47.025521 
L 355.32 46.934929 
L 358.11 55.178842 
L 360.9 51.509848 
L 363.69 52.551661 
L 366.48 54.137029 
L 369.27 55.133546 
L 372.06 57.941912 
L 374.85 66.593491 
L 377.64 64.962826 
L 380.43 70.488966 
L 383.22 78.687583 
L 386.01 83.579575 
" style="fill:none;stroke:#0000ff;stroke-linecap:square;"/>
   </g>
   <g id="patch_3">
    <path d="M 54 252 
L 54 34.56 
" style="fill:none;stroke:#000000;stroke-linecap:square;stroke-linejoin:miter;stroke-width:0.8;"/>
   </g>
   <g id="patch_4">
    <path d="M 54 252 
L 388.8 252 
" style="fill:none;stroke:#000000;stroke-linecap:square;stroke-linejoin:miter;stroke-width:0.8;"/>
   </g>
   <g id="text_17">
    <!-- Score of admitted set with $ColourResolve$ -->
    <defs>
     <path d="M 53.515625 70.515625 
L 53.515625 60.890625 
Q 47.90625 63.578125 42.921875 64.890625 
Q 37.9375 66.21875 33.296875 66.21875 
Q 25.25 66.21875 20.875 63.09375 
Q 16.5 59.96875 16.5 54.203125 
Q 16.5 49.359375 19.40625 46.890625 
Q 22.3125 44.4375 30.421875 42.921875 
L 36.375 41.703125 
Q 47.40625 39.59375 52.65625 34.296875 
Q 57.90625 29 57.90625 20.125 
Q 57.90625 9.515625 50.796875 4.046875 
Q 43.703125 -1.421875 29.984375 -1.421875 
Q 24.8125 -1.421875 18.96875 -0.25 
Q 13.140625 0.921875 6.890625 3.21875 
L 6.890625 13.375 
Q 12.890625 10.015625 18.65625 8.296875 
Q 24.421875 6.59375 29.984375 6.59375 
Q 38.421875 6.59375 43.015625 9.90625 
Q 47.609375 13.234375 47.609375 19.390625 
Q 47.609375 24.75 44.3125 27.78125 
Q 41.015625 30.8125 33.5 32.328125 
L 27.484375 33.5 
Q 16.453125 35.6875 11.515625 40.375 
Q 6.59375 45.0625 6.59375 53.421875 
Q 6.59375 63.09375 13.40625 68.65625 
Q 20.21875 74.21875 32.171875 74.21875 
Q 37.3125 74.21875 42.625 73.28125 
Q 47.953125 72.359375 53.515625 70.515625 
z
" id="DejaVuSans-83"/>
     <path d="M 4.203125 54.6875 
L 13.1875 54.6875 
L 24.421875 12.015625 
L 35.59375 54.6875 
L 46.1875 54.6875 
L 57.421875 12.015625 
L 68.609375 54.6875 
L 77.59375 54.6875 
L 63.28125 0 
L 52.6875 0 
L 40.921875 44.828125 
L 29.109375 0 
L 18.5 0 
z
" id="DejaVuSans-119"/>
     <path d="M 54.890625 33.015625 
L 54.890625 0 
L 45.90625 0 
L 45.90625 32.71875 
Q 45.90625 40.484375 42.875 44.328125 
Q 39.84375 48.1875 33.796875 48.1875 
Q 26.515625 48.1875 22.3125 43.546875 
Q 18.109375 38.921875 18.109375 30.90625 
L 18.109375 0 
L 9.078125 0 
L 9.078125 75.984375 
L 18.109375 75.984375 
L 18.109375 46.1875 
Q 21.34375 51.125 25.703125 53.5625 
Q 30.078125 56 35.796875 56 
Q 45.21875 56 50.046875 50.171875 
Q 54.890625 44.34375 54.890625 33.015625 
z
" id="DejaVuSans-104"/>
     <path d="M 69.484375 67.28125 
L 67.484375 56.890625 
Q 62.796875 61.625 57.546875 63.921875 
Q 52.296875 66.21875 46.1875 66.21875 
Q 37.84375 66.21875 31.515625 62.203125 
Q 25.203125 58.203125 20.609375 50 
Q 17.671875 44.734375 16.125 38.84375 
Q 14.59375 32.953125 14.59375 27 
Q 14.59375 17.046875 19.75 11.8125 
Q 24.90625 6.59375 34.71875 6.59375 
Q 41.5 6.59375 47.75 8.765625 
Q 54 10.9375 59.90625 15.28125 
L 57.625 3.609375 
Q 51.8125 1.125 45.875 -0.140625 
Q 39.9375 -1.421875 33.984375 -1.421875 
Q 19.96875 -1.421875 12.078125 6.1875 
Q 4.203125 13.8125 4.203125 27.390625 
Q 4.203125 36.078125 7.203125 44.46875 
Q 10.203125 52.875 15.828125 59.8125 
Q 21.78125 67.1875 29.421875 70.703125 
Q 37.0625 74.21875 47.21875 74.21875 
Q 53.46875 74.21875 59.0625 72.484375 
Q 64.65625 70.75 69.484375 67.28125 
z
" id="DejaVuSans-Oblique-67"/>
     <path d="M 25.390625 -1.421875 
Q 15.765625 -1.421875 10.171875 4.515625 
Q 4.59375 10.453125 4.59375 20.703125 
Q 4.59375 26.65625 6.515625 32.828125 
Q 8.453125 39.015625 11.53125 43.21875 
Q 16.359375 49.75 22.3125 52.875 
Q 28.265625 56 35.796875 56 
Q 45.125 56 50.859375 50.1875 
Q 56.59375 44.390625 56.59375 35.015625 
Q 56.59375 28.515625 54.6875 22.0625 
Q 52.78125 15.625 49.703125 11.375 
Q 44.921875 4.828125 38.96875 1.703125 
Q 33.015625 -1.421875 25.390625 -1.421875 
z
M 13.921875 21 
Q 13.921875 13.578125 17.015625 9.890625 
Q 20.125 6.203125 26.421875 6.203125 
Q 35.453125 6.203125 41.375 14.078125 
Q 47.3125 21.96875 47.3125 34.078125 
Q 47.3125 41.15625 44.140625 44.765625 
Q 40.96875 48.390625 34.8125 48.390625 
Q 29.734375 48.390625 25.78125 46.015625 
Q 21.828125 43.65625 18.703125 38.8125 
Q 16.40625 35.203125 15.15625 30.5625 
Q 13.921875 25.921875 13.921875 21 
z
" id="DejaVuSans-Oblique-111"/>
     <path d="M 18.3125 75.984375 
L 27.296875 75.984375 
L 12.5 0 
L 3.515625 0 
z
" id="DejaVuSans-Oblique-108"/>
     <path d="M 6.6875 21.6875 
L 13.09375 54.6875 
L 22.125 54.6875 
L 15.71875 22.015625 
Q 15.234375 19.625 15.015625 17.921875 
Q 14.796875 16.21875 14.796875 15.09375 
Q 14.796875 10.9375 17.328125 8.65625 
Q 19.875 6.390625 24.515625 6.390625 
Q 31.734375 6.390625 37 11.265625 
Q 42.28125 16.15625 43.890625 24.421875 
L 49.90625 54.6875 
L 58.890625 54.6875 
L 48.296875 0 
L 39.3125 0 
L 41.109375 8.59375 
Q 37.3125 3.8125 32.0625 1.1875 
Q 26.8125 -1.421875 20.90625 -1.421875 
Q 13.71875 -1.421875 9.71875 2.515625 
Q 5.71875 6.453125 5.71875 13.484375 
Q 5.71875 14.9375 5.953125 17.140625 
Q 6.203125 19.34375 6.6875 21.6875 
z
" id="DejaVuSans-Oblique-117"/>
     <path d="M 44.578125 46.390625 
Q 43.21875 47.125 41.453125 47.515625 
Q 39.703125 47.90625 37.703125 47.90625 
Q 30.515625 47.90625 25.140625 42.453125 
Q 19.78125 37.015625 18.015625 27.875 
L 12.5 0 
L 3.515625 0 
L 14.203125 54.6875 
L 23.1875 54.6875 
L 21.484375 46.1875 
Q 25.046875 50.921875 30 53.453125 
Q 34.96875 56 40.578125 56 
Q 42.046875 56 43.453125 55.828125 
Q 44.875 55.671875 46.296875 55.28125 
z
" id="DejaVuSans-Oblique-114"/>
     <path d="M 25.203125 64.796875 
L 20.21875 38.921875 
L 32.90625 38.921875 
Q 40.375 38.921875 44.984375 43.046875 
Q 49.609375 47.171875 49.609375 53.8125 
Q 49.609375 59.125 46.5 61.953125 
Q 43.40625 64.796875 37.59375 64.796875 
z
M 43.3125 35.015625 
Q 46.4375 34.28125 48.515625 31.390625 
Q 50.59375 28.515625 53.328125 19.921875 
L 59.515625 0 
L 49.125 0 
L 43.40625 18.703125 
Q 41.21875 25.921875 38.328125 28.359375 
Q 35.453125 30.8125 29.5 30.8125 
L 18.609375 30.8125 
L 12.59375 0 
L 2.6875 0 
L 16.890625 72.90625 
L 39.109375 72.90625 
Q 49.21875 72.90625 54.609375 68.328125 
Q 60.015625 63.765625 60.015625 55.171875 
Q 60.015625 47.5625 55.421875 41.984375 
Q 50.828125 36.421875 43.3125 35.015625 
z
" id="DejaVuSans-Oblique-82"/>
     <path d="M 48.09375 32.234375 
Q 48.25 33.015625 48.3125 33.84375 
Q 48.390625 34.671875 48.390625 35.5 
Q 48.390625 41.453125 44.890625 44.921875 
Q 41.40625 48.390625 35.40625 48.390625 
Q 28.71875 48.390625 23.578125 44.15625 
Q 18.453125 39.9375 15.828125 32.171875 
z
M 55.90625 25.203125 
L 14.109375 25.203125 
Q 13.8125 23.34375 13.71875 22.265625 
Q 13.625 21.1875 13.625 20.40625 
Q 13.625 13.625 17.796875 9.90625 
Q 21.96875 6.203125 29.59375 6.203125 
Q 35.453125 6.203125 40.671875 7.515625 
Q 45.90625 8.84375 50.390625 11.375 
L 48.6875 2.484375 
Q 43.84375 0.53125 38.6875 -0.4375 
Q 33.546875 -1.421875 28.21875 -1.421875 
Q 16.84375 -1.421875 10.71875 4.015625 
Q 4.59375 9.46875 4.59375 19.484375 
Q 4.59375 28.03125 7.640625 35.375 
Q 10.6875 42.71875 16.609375 48.484375 
Q 20.40625 52.09375 25.65625 54.046875 
Q 30.90625 56 36.8125 56 
Q 46.09375 56 51.578125 50.4375 
Q 57.078125 44.875 57.078125 35.5 
Q 57.078125 33.25 56.78125 30.6875 
Q 56.5 28.125 55.90625 25.203125 
z
" id="DejaVuSans-Oblique-101"/>
     <path d="M 50 53.078125 
L 48.296875 44.578125 
Q 44.734375 46.53125 40.765625 47.5 
Q 36.8125 48.484375 32.625 48.484375 
Q 25.53125 48.484375 21.453125 46.0625 
Q 17.390625 43.65625 17.390625 39.5 
Q 17.390625 34.671875 26.859375 32.078125 
Q 27.59375 31.890625 27.9375 31.78125 
L 30.8125 30.90625 
Q 39.796875 28.421875 42.796875 25.6875 
Q 45.796875 22.953125 45.796875 18.21875 
Q 45.796875 9.515625 38.890625 4.046875 
Q 31.984375 -1.421875 20.796875 -1.421875 
Q 16.453125 -1.421875 11.671875 -0.578125 
Q 6.890625 0.25 1.125 2 
L 2.875 11.28125 
Q 7.8125 8.734375 12.59375 7.421875 
Q 17.390625 6.109375 21.78125 6.109375 
Q 28.375 6.109375 32.5 8.9375 
Q 36.625 11.765625 36.625 16.109375 
Q 36.625 20.796875 25.78125 23.6875 
L 24.859375 23.921875 
L 21.78125 24.703125 
Q 14.9375 26.515625 11.765625 29.46875 
Q 8.59375 32.421875 8.59375 37.015625 
Q 8.59375 45.75 15.15625 50.875 
Q 21.734375 56 33.015625 56 
Q 37.453125 56 41.671875 55.265625 
Q 45.90625 54.546875 50 53.078125 
z
" id="DejaVuSans-Oblique-115"/>
     <path d="M 7.171875 54.6875 
L 16.703125 54.6875 
L 24.703125 8.203125 
L 50.875 54.6875 
L 60.40625 54.6875 
L 29.296875 0 
L 17.1875 0 
z
" id="DejaVuSans-Oblique-118"/>
    </defs>
    <g transform="translate(96.96 15.120375)scale(0.12 -0.12)">
     <use transform="translate(0 0.015625)" xlink:href="#DejaVuSans-83"/>
     <use transform="translate(63.476562 0.015625)" xlink:href="#DejaVuSans-99"/>
     <use transform="translate(118.457031 0.015625)" xlink:href="#DejaVuSans-111"/>
     <use transform="translate(179.638672 0.015625)" xlink:href="#DejaVuSans-114"/>
     <use transform="translate(220.751953 0.015625)" xlink:href="#DejaVuSans-101"/>
     <use transform="translate(282.275391 0.015625)" xlink:href="#DejaVuSans-32"/>
     <use transform="translate(314.0625 0.015625)" xlink:href="#DejaVuSans-111"/>
     <use transform="translate(375.244141 0.015625)" xlink:href="#DejaVuSans-102"/>
     <use transform="translate(410.449219 0.015625)" xlink:href="#DejaVuSans-32"/>
     <use transform="translate(442.236328 0.015625)" xlink:href="#DejaVuSans-97"/>
     <use transform="translate(503.515625 0.015625)" xlink:href="#DejaVuSans-100"/>
     <use transform="translate(566.992188 0.015625)" xlink:href="#DejaVuSans-109"/>
     <use transform="translate(664.404297 0.015625)" xlink:href="#DejaVuSans-105"/>
     <use transform="translate(692.1875 0.015625)" xlink:href="#DejaVuSans-116"/>
     <use transform="translate(731.396484 0.015625)" xlink:href="#DejaVuSans-116"/>
     <use transform="translate(770.605469 0.015625)" xlink:href="#DejaVuSans-101"/>
     <use transform="translate(832.128906 0.015625)" xlink:href="#DejaVuSans-100"/>
     <use transform="translate(895.605469 0.015625)" xlink:href="#DejaVuSans-32"/>
     <use transform="translate(927.392578 0.015625)" xlink:href="#DejaVuSans-115"/>
     <use transform="translate(979.492188 0.015625)" xlink:href="#DejaVuSans-101"/>
     <use transform="translate(1041.015625 0.015625)" xlink:href="#DejaVuSans-116"/>
     <use transform="translate(1080.224609 0.015625)" xlink:href="#DejaVuSans-32"/>
     <use transform="translate(1112.011719 0.015625)" xlink:href="#DejaVuSans-119"/>
     <use transform="translate(1193.798828 0.015625)" xlink:href="#DejaVuSans-105"/>
     <use transform="translate(1221.582031 0.015625)" xlink:href="#DejaVuSans-116"/>
     <use transform="translate(1260.791016 0.015625)" xlink:href="#DejaVuSans-104"/>
     <use transform="translate(1324.169922 0.015625)" xlink:href="#DejaVuSans-32"/>
     <use transform="translate(1355.957031 0.015625)" xlink:href="#DejaVuSans-Oblique-67"/>
     <use transform="translate(1425.78125 0.015625)" xlink:href="#DejaVuSans-Oblique-111"/>
     <use transform="translate(1486.962891 0.015625)" xlink:href="#DejaVuSans-Oblique-108"/>
     <use transform="translate(1514.746094 0.015625)" xlink:href="#DejaVuSans-Oblique-111"/>
     <use transform="translate(1575.927734 0.015625)" xlink:href="#DejaVuSans-Oblique-117"/>
     <use transform="translate(1639.306641 0.015625)" xlink:href="#DejaVuSans-Oblique-114"/>
     <use transform="translate(1680.419922 0.015625)" xlink:href="#DejaVuSans-Oblique-82"/>
     <use transform="translate(1749.902344 0.015625)" xlink:href="#DejaVuSans-Oblique-101"/>
     <use transform="translate(1811.425781 0.015625)" xlink:href="#DejaVuSans-Oblique-115"/>
     <use transform="translate(1863.525391 0.015625)" xlink:href="#DejaVuSans-Oblique-111"/>
     <use transform="translate(1924.707031 0.015625)" xlink:href="#DejaVuSans-Oblique-108"/>
     <use transform="translate(1952.490234 0.015625)" xlink:href="#DejaVuSans-Oblique-118"/>
     <use transform="translate(2011.669922 0.015625)" xlink:href="#DejaVuSans-Oblique-101"/>
    </g>
    <!--  and $ColourResolveComplete$ for different numbers of edges -->
    <defs>
     <path d="M 89.796875 33.015625 
L 83.40625 0 
L 74.421875 0 
L 80.71875 32.71875 
Q 81.109375 34.8125 81.296875 36.328125 
Q 81.5 37.84375 81.5 38.921875 
Q 81.5 43.3125 79.046875 45.75 
Q 76.609375 48.1875 72.21875 48.1875 
Q 65.671875 48.1875 60.546875 43.28125 
Q 55.421875 38.375 53.90625 30.515625 
L 47.90625 0 
L 38.921875 0 
L 45.3125 32.71875 
Q 45.703125 34.515625 45.890625 36.046875 
Q 46.09375 37.59375 46.09375 38.8125 
Q 46.09375 43.265625 43.65625 45.71875 
Q 41.21875 48.1875 36.921875 48.1875 
Q 30.28125 48.1875 25.140625 43.28125 
Q 20.015625 38.375 18.5 30.515625 
L 12.5 0 
L 3.515625 0 
L 14.203125 54.6875 
L 23.1875 54.6875 
L 21.484375 46.1875 
Q 25.140625 50.984375 30.046875 53.484375 
Q 34.96875 56 40.578125 56 
Q 46.53125 56 50.359375 52.875 
Q 54.203125 49.75 54.984375 44.1875 
Q 59.078125 49.953125 64.46875 52.96875 
Q 69.875 56 75.875 56 
Q 82.90625 56 86.734375 51.953125 
Q 90.578125 47.90625 90.578125 40.484375 
Q 90.578125 38.875 90.375 36.9375 
Q 90.1875 35.015625 89.796875 33.015625 
z
" id="DejaVuSans-Oblique-109"/>
     <path d="M 49.609375 33.6875 
Q 49.609375 40.875 46.484375 44.671875 
Q 43.359375 48.484375 37.5 48.484375 
Q 33.5 48.484375 29.859375 46.4375 
Q 26.21875 44.390625 23.390625 40.484375 
Q 20.609375 36.625 18.9375 31.15625 
Q 17.28125 25.6875 17.28125 20.3125 
Q 17.28125 13.484375 20.40625 9.796875 
Q 23.53125 6.109375 29.296875 6.109375 
Q 33.546875 6.109375 37.1875 8.109375 
Q 40.828125 10.109375 43.40625 13.921875 
Q 46.1875 17.921875 47.890625 23.34375 
Q 49.609375 28.765625 49.609375 33.6875 
z
M 21.78125 46.390625 
Q 25.390625 51.125 30.296875 53.5625 
Q 35.203125 56 41.21875 56 
Q 49.609375 56 54.25 50.5 
Q 58.890625 45.015625 58.890625 35.109375 
Q 58.890625 27 56 19.65625 
Q 53.125 12.3125 47.703125 6.5 
Q 44.09375 2.640625 39.546875 0.609375 
Q 35.015625 -1.421875 29.984375 -1.421875 
Q 24.171875 -1.421875 20.21875 1 
Q 16.265625 3.421875 14.3125 8.203125 
L 8.6875 -20.796875 
L -0.296875 -20.796875 
L 14.40625 54.6875 
L 23.390625 54.6875 
z
" id="DejaVuSans-Oblique-112"/>
     <path d="M 42.28125 54.6875 
L 40.921875 47.703125 
L 23 47.703125 
L 17.1875 18.015625 
Q 16.890625 16.359375 16.75 15.234375 
Q 16.609375 14.109375 16.609375 13.484375 
Q 16.609375 10.359375 18.484375 8.9375 
Q 20.359375 7.515625 24.515625 7.515625 
L 33.59375 7.515625 
L 32.078125 0 
L 23.484375 0 
Q 15.484375 0 11.546875 3.125 
Q 7.625 6.25 7.625 12.59375 
Q 7.625 13.71875 7.765625 15.0625 
Q 7.90625 16.40625 8.203125 18.015625 
L 14.015625 47.703125 
L 6.390625 47.703125 
L 7.8125 54.6875 
L 15.28125 54.6875 
L 18.3125 70.21875 
L 27.296875 70.21875 
L 24.3125 54.6875 
z
" id="DejaVuSans-Oblique-116"/>
     <path d="M 45.40625 27.984375 
Q 45.40625 37.75 41.375 43.109375 
Q 37.359375 48.484375 30.078125 48.484375 
Q 22.859375 48.484375 18.828125 43.109375 
Q 14.796875 37.75 14.796875 27.984375 
Q 14.796875 18.265625 18.828125 12.890625 
Q 22.859375 7.515625 30.078125 7.515625 
Q 37.359375 7.515625 41.375 12.890625 
Q 45.40625 18.265625 45.40625 27.984375 
z
M 54.390625 6.78125 
Q 54.390625 -7.171875 48.1875 -13.984375 
Q 42 -20.796875 29.203125 -20.796875 
Q 24.46875 -20.796875 20.265625 -20.09375 
Q 16.0625 -19.390625 12.109375 -17.921875 
L 12.109375 -9.1875 
Q 16.0625 -11.328125 19.921875 -12.34375 
Q 23.78125 -13.375 27.78125 -13.375 
Q 36.625 -13.375 41.015625 -8.765625 
Q 45.40625 -4.15625 45.40625 5.171875 
L 45.40625 9.625 
Q 42.625 4.78125 38.28125 2.390625 
Q 33.9375 0 27.875 0 
Q 17.828125 0 11.671875 7.65625 
Q 5.515625 15.328125 5.515625 27.984375 
Q 5.515625 40.671875 11.671875 48.328125 
Q 17.828125 56 27.875 56 
Q 33.9375 56 38.28125 53.609375 
Q 42.625 51.21875 45.40625 46.390625 
L 45.40625 54.6875 
L 54.390625 54.6875 
z
" id="DejaVuSans-103"/>
    </defs>
    <g transform="translate(40.38 28.56)scale(0.12 -0.12)">
     <use transform="translate(0 0.015625)" xlink:href="#DejaVuSans-32"/>
     <use transform="translate(31.787109 0.015625)" xlink:href="#DejaVuSans-97"/>
     <use transform="translate(93.066406 0.015625)" xlink:href="#DejaVuSans-110"/>
     <use transform="translate(156.445312 0.015625)" xlink:href="#DejaVuSans-100"/>
     <use transform="translate(219.921875 0.015625)" xlink:href="#DejaVuSans-32"/>
     <use transform="translate(251.708984 0.015625)" xlink:href="#DejaVuSans-Oblique-67"/>
     <use transform="translate(321.533203 0.015625)" xlink:href="#DejaVuSans-Oblique-111"/>
     <use transform="translate(382.714844 0.015625)" xlink:href="#DejaVuSans-Oblique-108"/>
     <use transform="translate(410.498047 0.015625)" xlink:href="#DejaVuSans-Oblique-111"/>
     <use transform="translate(471.679688 0.015625)" xlink:href="#DejaVuSans-Oblique-117"/>
     <use transform="translate(535.058594 0.015625)" xlink:href="#DejaVuSans-Oblique-114"/>
     <use transform="translate(576.171875 0.015625)" xlink:href="#DejaVuSans-Oblique-82"/>
     <use transform="translate(645.654297 0.015625)" xlink:href="#DejaVuSans-Oblique-101"/>
     <use transform="translate(707.177734 0.015625)" xlink:href="#DejaVuSans-Oblique-115"/>
     <use transform="translate(759.277344 0.015625)" xlink:href="#DejaVuSans-Oblique-111"/>
     <use transform="translate(820.458984 0.015625)" xlink:href="#DejaVuSans-Oblique-108"/>
     <use transform="translate(848.242188 0.015625)" xlink:href="#DejaVuSans-Oblique-118"/>
     <use transform="translate(907.421875 0.015625)" xlink:href="#DejaVuSans-Oblique-101"/>
     <use transform="translate(968.945312 0.015625)" xlink:href="#DejaVuSans-Oblique-67"/>
     <use transform="translate(1038.769531 0.015625)" xlink:href="#DejaVuSans-Oblique-111"/>
     <use transform="translate(1099.951172 0.015625)" xlink:href="#DejaVuSans-Oblique-109"/>
     <use transform="translate(1197.363281 0.015625)" xlink:href="#DejaVuSans-Oblique-112"/>
     <use transform="translate(1260.839844 0.015625)" xlink:href="#DejaVuSans-Oblique-108"/>
     <use transform="translate(1288.623047 0.015625)" xlink:href="#DejaVuSans-Oblique-101"/>
     <use transform="translate(1350.146484 0.015625)" xlink:href="#DejaVuSans-Oblique-116"/>
     <use transform="translate(1389.355469 0.015625)" xlink:href="#DejaVuSans-Oblique-101"/>
     <use transform="translate(1450.878906 0.015625)" xlink:href="#DejaVuSans-32"/>
     <use transform="translate(1482.666016 0.015625)" xlink:href="#DejaVuSans-102"/>
     <use transform="translate(1517.871094 0.015625)" xlink:href="#DejaVuSans-111"/>
     <use transform="translate(1579.052734 0.015625)" xlink:href="#DejaVuSans-114"/>
     <use transform="translate(1620.166016 0.015625)" xlink:href="#DejaVuSans-32"/>
     <use transform="translate(1651.953125 0.015625)" xlink:href="#DejaVuSans-100"/>
     <use transform="translate(1715.429688 0.015625)" xlink:href="#DejaVuSans-105"/>
     <use transform="translate(1743.212891 0.015625)" xlink:href="#DejaVuSans-102"/>
     <use transform="translate(1778.417969 0.015625)" xlink:href="#DejaVuSans-102"/>
     <use transform="translate(1813.623047 0.015625)" xlink:href="#DejaVuSans-101"/>
     <use transform="translate(1875.146484 0.015625)" xlink:href="#DejaVuSans-114"/>
     <use transform="translate(1916.259766 0.015625)" xlink:href="#DejaVuSans-101"/>
     <use transform="translate(1977.783203 0.015625)" xlink:href="#DejaVuSans-110"/>
     <use transform="translate(2041.162109 0.015625)" xlink:href="#DejaVuSans-116"/>
     <use transform="translate(2080.371094 0.015625)" xlink:href="#DejaVuSans-32"/>
     <use transform="translate(2112.158203 0.015625)" xlink:href="#DejaVuSans-110"/>
     <use transform="translate(2175.537109 0.015625)" xlink:href="#DejaVuSans-117"/>
     <use transform="translate(2238.916016 0.015625)" xlink:href="#DejaVuSans-109"/>
     <use transform="translate(2336.328125 0.015625)" xlink:href="#DejaVuSans-98"/>
     <use transform="translate(2399.804688 0.015625)" xlink:href="#DejaVuSans-101"/>
     <use transform="translate(2461.328125 0.015625)" xlink:href="#DejaVuSans-114"/>
     <use transform="translate(2502.441406 0.015625)" xlink:href="#DejaVuSans-115"/>
     <use transform="translate(2554.541016 0.015625)" xlink:href="#DejaVuSans-32"/>
     <use transform="translate(2586.328125 0.015625)" xlink:href="#DejaVuSans-111"/>
     <use transform="translate(2647.509766 0.015625)" xlink:href="#DejaVuSans-102"/>
     <use transform="translate(2682.714844 0.015625)" xlink:href="#DejaVuSans-32"/>
     <use transform="translate(2714.501953 0.015625)" xlink:href="#DejaVuSans-101"/>
     <use transform="translate(2776.025391 0.015625)" xlink:href="#DejaVuSans-100"/>
     <use transform="translate(2839.501953 0.015625)" xlink:href="#DejaVuSans-103"/>
     <use transform="translate(2902.978516 0.015625)" xlink:href="#DejaVuSans-101"/>
     <use transform="translate(2964.501953 0.015625)" xlink:href="#DejaVuSans-115"/>
    </g>
   </g>
   <g id="legend_1">
    <g id="patch_5">
     <path d="M 61 71.938125 
L 213 71.938125 
Q 215 71.938125 215 69.938125 
L 215 41.56 
Q 215 39.56 213 39.56 
L 61 39.56 
Q 59 39.56 59 41.56 
L 59 69.938125 
Q 59 71.938125 61 71.938125 
z
" style="fill:#ffffff;opacity:0.8;stroke:#cccccc;stroke-linejoin:miter;"/>
    </g>
    <g id="line2d_17">
     <path d="M 63 47.658438 
L 83 47.658438 
" style="fill:none;stroke:#800080;stroke-dasharray:1,1.65;stroke-dashoffset:0;"/>
    </g>
    <g id="line2d_18"/>
    <g id="text_18">
     <!-- $ColourResolve$ -->
     <g transform="translate(91 51.158438)scale(0.1 -0.1)">
      <use transform="translate(0 0.015625)" xlink:href="#DejaVuSans-Oblique-67"/>
      <use transform="translate(69.824219 0.015625)" xlink:href="#DejaVuSans-Oblique-111"/>
      <use transform="translate(131.005859 0.015625)" xlink:href="#DejaVuSans-Oblique-108"/>
      <use transform="translate(158.789062 0.015625)" xlink:href="#DejaVuSans-Oblique-111"/>
      <use transform="translate(219.970703 0.015625)" xlink:href="#DejaVuSans-Oblique-117"/>
      <use transform="translate(283.349609 0.015625)" xlink:href="#DejaVuSans-Oblique-114"/>
      <use transform="translate(324.462891 0.015625)" xlink:href="#DejaVuSans-Oblique-82"/>
      <use transform="translate(393.945312 0.015625)" xlink:href="#DejaVuSans-Oblique-101"/>
      <use transform="translate(455.46875 0.015625)" xlink:href="#DejaVuSans-Oblique-115"/>
      <use transform="translate(507.568359 0.015625)" xlink:href="#DejaVuSans-Oblique-111"/>
      <use transform="translate(568.75 0.015625)" xlink:href="#DejaVuSans-Oblique-108"/>
      <use transform="translate(596.533203 0.015625)" xlink:href="#DejaVuSans-Oblique-118"/>
      <use transform="translate(655.712891 0.015625)" xlink:href="#DejaVuSans-Oblique-101"/>
     </g>
    </g>
    <g id="line2d_19">
     <path d="M 63 62.338125 
L 83 62.338125 
" style="fill:none;stroke:#0000ff;stroke-linecap:square;"/>
    </g>
    <g id="line2d_20"/>
    <g id="text_19">
     <!-- $ColourResolveComplete$ -->
     <g transform="translate(91 65.838125)scale(0.1 -0.1)">
      <use transform="translate(0 0.015625)" xlink:href="#DejaVuSans-Oblique-67"/>
      <use transform="translate(69.824219 0.015625)" xlink:href="#DejaVuSans-Oblique-111"/>
      <use transform="translate(131.005859 0.015625)" xlink:href="#DejaVuSans-Oblique-108"/>
      <use transform="translate(158.789062 0.015625)" xlink:href="#DejaVuSans-Oblique-111"/>
      <use transform="translate(219.970703 0.015625)" xlink:href="#DejaVuSans-Oblique-117"/>
      <use transform="translate(283.349609 0.015625)" xlink:href="#DejaVuSans-Oblique-114"/>
      <use transform="translate(324.462891 0.015625)" xlink:href="#DejaVuSans-Oblique-82"/>
      <use transform="translate(393.945312 0.015625)" xlink:href="#DejaVuSans-Oblique-101"/>
      <use transform="translate(455.46875 0.015625)" xlink:href="#DejaVuSans-Oblique-115"/>
      <use transform="translate(507.568359 0.015625)" xlink:href="#DejaVuSans-Oblique-111"/>
      <use transform="translate(568.75 0.015625)" xlink:href="#DejaVuSans-Oblique-108"/>
      <use transform="translate(596.533203 0.015625)" xlink:href="#DejaVuSans-Oblique-118"/>
      <use transform="translate(655.712891 0.015625)" xlink:href="#DejaVuSans-Oblique-101"/>
      <use transform="translate(717.236328 0.015625)" xlink:href="#DejaVuSans-Oblique-67"/>
      <use transform="translate(787.060547 0.015625)" xlink:href="#DejaVuSans-Oblique-111"/>
      <use transform="translate(848.242188 0.015625)" xlink:href="#DejaVuSans-Oblique-109"/>
      <use transform="translate(945.654297 0.015625)" xlink:href="#DejaVuSans-Oblique-112"/>
      <use transform="translate(1009.130859 0.015625)" xlink:href="#DejaVuSans-Oblique-108"/>
      <use transform="translate(1036.914062 0.015625)" xlink:href="#DejaVuSans-Oblique-101"/>
      <use transform="translate(1098.4375 0.015625)" xlink:href="#DejaVuSans-Oblique-116"/>
      <use transform="translate(1137.646484 0.015625)" xlink:href="#DejaVuSans-Oblique-101"/>
     </g>
    </g>
   </g>
  </g>
 </g>
 <defs>
  <clipPath id="p2e8f622abd">
   <rect height="217.44" width="334.8" x="54" y="34.56"/>
  </clipPath>
 </defs>
</svg>
