<?xml version="1.0" encoding="utf-8" standalone="no"?>
<!DOCTYPE svg PUBLIC "-//W3C//DTD SVG 1.1//EN"
  "http://www.w3.org/Graphics/SVG/1.1/DTD/svg11.dtd">
<!-- Created with matplotlib (https://matplotlib.org/) -->
<svg height="288pt" version="1.1" viewBox="0 0 432 288" width="432pt" xmlns="http://www.w3.org/2000/svg" xmlns:xlink="http://www.w3.org/1999/xlink">
 <defs>
  <style type="text/css">
*{stroke-linecap:butt;stroke-linejoin:round;}
  </style>
 </defs>
 <g id="figure_1">
  <g id="patch_1">
   <path d="M 0 288 
L 432 288 
L 432 0 
L 0 0 
z
" style="fill:#ffffff;"/>
  </g>
  <g id="axes_1">
   <g id="patch_2">
    <path d="M 54 252 
L 388.8 252 
L 388.8 34.56 
L 54 34.56 
z
" style="fill:#ffffff;"/>
   </g>
   <g id="matplotlib.axis_1">
    <g id="xtick_1">
     <g id="line2d_1">
      <defs>
       <path d="M 0 0 
L 0 3.5 
" id="m4c189b59c3" style="stroke:#000000;stroke-width:0.8;"/>
      </defs>
      <g>
       <use style="stroke:#000000;stroke-width:0.8;" x="54" xlink:href="#m4c189b59c3" y="252"/>
      </g>
     </g>
     <g id="text_1">
      <!-- 0 -->
      <defs>
       <path d="M 31.78125 66.40625 
Q 24.171875 66.40625 20.328125 58.90625 
Q 16.5 51.421875 16.5 36.375 
Q 16.5 21.390625 20.328125 13.890625 
Q 24.171875 6.390625 31.78125 6.390625 
Q 39.453125 6.390625 43.28125 13.890625 
Q 47.125 21.390625 47.125 36.375 
Q 47.125 51.421875 43.28125 58.90625 
Q 39.453125 66.40625 31.78125 66.40625 
z
M 31.78125 74.21875 
Q 44.046875 74.21875 50.515625 64.515625 
Q 56.984375 54.828125 56.984375 36.375 
Q 56.984375 17.96875 50.515625 8.265625 
Q 44.046875 -1.421875 31.78125 -1.421875 
Q 19.53125 -1.421875 13.0625 8.265625 
Q 6.59375 17.96875 6.59375 36.375 
Q 6.59375 54.828125 13.0625 64.515625 
Q 19.53125 74.21875 31.78125 74.21875 
z
" id="DejaVuSans-48"/>
      </defs>
      <g transform="translate(50.81875 266.598437)scale(0.1 -0.1)">
       <use xlink:href="#DejaVuSans-48"/>
      </g>
     </g>
    </g>
    <g id="xtick_2">
     <g id="line2d_2">
      <g>
       <use style="stroke:#000000;stroke-width:0.8;" x="120.96" xlink:href="#m4c189b59c3" y="252"/>
      </g>
     </g>
     <g id="text_2">
      <!-- 50 -->
      <defs>
       <path d="M 10.796875 72.90625 
L 49.515625 72.90625 
L 49.515625 64.59375 
L 19.828125 64.59375 
L 19.828125 46.734375 
Q 21.96875 47.46875 24.109375 47.828125 
Q 26.265625 48.1875 28.421875 48.1875 
Q 40.625 48.1875 47.75 41.5 
Q 54.890625 34.8125 54.890625 23.390625 
Q 54.890625 11.625 47.5625 5.09375 
Q 40.234375 -1.421875 26.90625 -1.421875 
Q 22.3125 -1.421875 17.546875 -0.640625 
Q 12.796875 0.140625 7.71875 1.703125 
L 7.71875 11.625 
Q 12.109375 9.234375 16.796875 8.0625 
Q 21.484375 6.890625 26.703125 6.890625 
Q 35.15625 6.890625 40.078125 11.328125 
Q 45.015625 15.765625 45.015625 23.390625 
Q 45.015625 31 40.078125 35.4375 
Q 35.15625 39.890625 26.703125 39.890625 
Q 22.75 39.890625 18.8125 39.015625 
Q 14.890625 38.140625 10.796875 36.28125 
z
" id="DejaVuSans-53"/>
      </defs>
      <g transform="translate(114.5975 266.598437)scale(0.1 -0.1)">
       <use xlink:href="#DejaVuSans-53"/>
       <use x="63.623047" xlink:href="#DejaVuSans-48"/>
      </g>
     </g>
    </g>
    <g id="xtick_3">
     <g id="line2d_3">
      <g>
       <use style="stroke:#000000;stroke-width:0.8;" x="187.92" xlink:href="#m4c189b59c3" y="252"/>
      </g>
     </g>
     <g id="text_3">
      <!-- 100 -->
      <defs>
       <path d="M 12.40625 8.296875 
L 28.515625 8.296875 
L 28.515625 63.921875 
L 10.984375 60.40625 
L 10.984375 69.390625 
L 28.421875 72.90625 
L 38.28125 72.90625 
L 38.28125 8.296875 
L 54.390625 8.296875 
L 54.390625 0 
L 12.40625 0 
z
" id="DejaVuSans-49"/>
      </defs>
      <g transform="translate(178.37625 266.598437)scale(0.1 -0.1)">
       <use xlink:href="#DejaVuSans-49"/>
       <use x="63.623047" xlink:href="#DejaVuSans-48"/>
       <use x="127.246094" xlink:href="#DejaVuSans-48"/>
      </g>
     </g>
    </g>
    <g id="xtick_4">
     <g id="line2d_4">
      <g>
       <use style="stroke:#000000;stroke-width:0.8;" x="254.88" xlink:href="#m4c189b59c3" y="252"/>
      </g>
     </g>
     <g id="text_4">
      <!-- 150 -->
      <g transform="translate(245.33625 266.598437)scale(0.1 -0.1)">
       <use xlink:href="#DejaVuSans-49"/>
       <use x="63.623047" xlink:href="#DejaVuSans-53"/>
       <use x="127.246094" xlink:href="#DejaVuSans-48"/>
      </g>
     </g>
    </g>
    <g id="xtick_5">
     <g id="line2d_5">
      <g>
       <use style="stroke:#000000;stroke-width:0.8;" x="321.84" xlink:href="#m4c189b59c3" y="252"/>
      </g>
     </g>
     <g id="text_5">
      <!-- 200 -->
      <defs>
       <path d="M 19.1875 8.296875 
L 53.609375 8.296875 
L 53.609375 0 
L 7.328125 0 
L 7.328125 8.296875 
Q 12.9375 14.109375 22.625 23.890625 
Q 32.328125 33.6875 34.8125 36.53125 
Q 39.546875 41.84375 41.421875 45.53125 
Q 43.3125 49.21875 43.3125 52.78125 
Q 43.3125 58.59375 39.234375 62.25 
Q 35.15625 65.921875 28.609375 65.921875 
Q 23.96875 65.921875 18.8125 64.3125 
Q 13.671875 62.703125 7.8125 59.421875 
L 7.8125 69.390625 
Q 13.765625 71.78125 18.9375 73 
Q 24.125 74.21875 28.421875 74.21875 
Q 39.75 74.21875 46.484375 68.546875 
Q 53.21875 62.890625 53.21875 53.421875 
Q 53.21875 48.921875 51.53125 44.890625 
Q 49.859375 40.875 45.40625 35.40625 
Q 44.1875 33.984375 37.640625 27.21875 
Q 31.109375 20.453125 19.1875 8.296875 
z
" id="DejaVuSans-50"/>
      </defs>
      <g transform="translate(312.29625 266.598437)scale(0.1 -0.1)">
       <use xlink:href="#DejaVuSans-50"/>
       <use x="63.623047" xlink:href="#DejaVuSans-48"/>
       <use x="127.246094" xlink:href="#DejaVuSans-48"/>
      </g>
     </g>
    </g>
    <g id="xtick_6">
     <g id="line2d_6">
      <g>
       <use style="stroke:#000000;stroke-width:0.8;" x="388.8" xlink:href="#m4c189b59c3" y="252"/>
      </g>
     </g>
     <g id="text_6">
      <!-- 250 -->
      <g transform="translate(379.25625 266.598437)scale(0.1 -0.1)">
       <use xlink:href="#DejaVuSans-50"/>
       <use x="63.623047" xlink:href="#DejaVuSans-53"/>
       <use x="127.246094" xlink:href="#DejaVuSans-48"/>
      </g>
     </g>
    </g>
    <g id="text_7">
     <!-- Number of conflicts -->
     <defs>
      <path d="M 9.8125 72.90625 
L 23.09375 72.90625 
L 55.421875 11.921875 
L 55.421875 72.90625 
L 64.984375 72.90625 
L 64.984375 0 
L 51.703125 0 
L 19.390625 60.984375 
L 19.390625 0 
L 9.8125 0 
z
" id="DejaVuSans-78"/>
      <path d="M 8.5 21.578125 
L 8.5 54.6875 
L 17.484375 54.6875 
L 17.484375 21.921875 
Q 17.484375 14.15625 20.5 10.265625 
Q 23.53125 6.390625 29.59375 6.390625 
Q 36.859375 6.390625 41.078125 11.03125 
Q 45.3125 15.671875 45.3125 23.6875 
L 45.3125 54.6875 
L 54.296875 54.6875 
L 54.296875 0 
L 45.3125 0 
L 45.3125 8.40625 
Q 42.046875 3.421875 37.71875 1 
Q 33.40625 -1.421875 27.6875 -1.421875 
Q 18.265625 -1.421875 13.375 4.4375 
Q 8.5 10.296875 8.5 21.578125 
z
M 31.109375 56 
z
" id="DejaVuSans-117"/>
      <path d="M 52 44.1875 
Q 55.375 50.25 60.0625 53.125 
Q 64.75 56 71.09375 56 
Q 79.640625 56 84.28125 50.015625 
Q 88.921875 44.046875 88.921875 33.015625 
L 88.921875 0 
L 79.890625 0 
L 79.890625 32.71875 
Q 79.890625 40.578125 77.09375 44.375 
Q 74.3125 48.1875 68.609375 48.1875 
Q 61.625 48.1875 57.5625 43.546875 
Q 53.515625 38.921875 53.515625 30.90625 
L 53.515625 0 
L 44.484375 0 
L 44.484375 32.71875 
Q 44.484375 40.625 41.703125 44.40625 
Q 38.921875 48.1875 33.109375 48.1875 
Q 26.21875 48.1875 22.15625 43.53125 
Q 18.109375 38.875 18.109375 30.90625 
L 18.109375 0 
L 9.078125 0 
L 9.078125 54.6875 
L 18.109375 54.6875 
L 18.109375 46.1875 
Q 21.1875 51.21875 25.484375 53.609375 
Q 29.78125 56 35.6875 56 
Q 41.65625 56 45.828125 52.96875 
Q 50 49.953125 52 44.1875 
z
" id="DejaVuSans-109"/>
      <path d="M 48.6875 27.296875 
Q 48.6875 37.203125 44.609375 42.84375 
Q 40.53125 48.484375 33.40625 48.484375 
Q 26.265625 48.484375 22.1875 42.84375 
Q 18.109375 37.203125 18.109375 27.296875 
Q 18.109375 17.390625 22.1875 11.75 
Q 26.265625 6.109375 33.40625 6.109375 
Q 40.53125 6.109375 44.609375 11.75 
Q 48.6875 17.390625 48.6875 27.296875 
z
M 18.109375 46.390625 
Q 20.953125 51.265625 25.265625 53.625 
Q 29.59375 56 35.59375 56 
Q 45.5625 56 51.78125 48.09375 
Q 58.015625 40.1875 58.015625 27.296875 
Q 58.015625 14.40625 51.78125 6.484375 
Q 45.5625 -1.421875 35.59375 -1.421875 
Q 29.59375 -1.421875 25.265625 0.953125 
Q 20.953125 3.328125 18.109375 8.203125 
L 18.109375 0 
L 9.078125 0 
L 9.078125 75.984375 
L 18.109375 75.984375 
z
" id="DejaVuSans-98"/>
      <path d="M 56.203125 29.59375 
L 56.203125 25.203125 
L 14.890625 25.203125 
Q 15.484375 15.921875 20.484375 11.0625 
Q 25.484375 6.203125 34.421875 6.203125 
Q 39.59375 6.203125 44.453125 7.46875 
Q 49.3125 8.734375 54.109375 11.28125 
L 54.109375 2.78125 
Q 49.265625 0.734375 44.1875 -0.34375 
Q 39.109375 -1.421875 33.890625 -1.421875 
Q 20.796875 -1.421875 13.15625 6.1875 
Q 5.515625 13.8125 5.515625 26.8125 
Q 5.515625 40.234375 12.765625 48.109375 
Q 20.015625 56 32.328125 56 
Q 43.359375 56 49.78125 48.890625 
Q 56.203125 41.796875 56.203125 29.59375 
z
M 47.21875 32.234375 
Q 47.125 39.59375 43.09375 43.984375 
Q 39.0625 48.390625 32.421875 48.390625 
Q 24.90625 48.390625 20.390625 44.140625 
Q 15.875 39.890625 15.1875 32.171875 
z
" id="DejaVuSans-101"/>
      <path d="M 41.109375 46.296875 
Q 39.59375 47.171875 37.8125 47.578125 
Q 36.03125 48 33.890625 48 
Q 26.265625 48 22.1875 43.046875 
Q 18.109375 38.09375 18.109375 28.8125 
L 18.109375 0 
L 9.078125 0 
L 9.078125 54.6875 
L 18.109375 54.6875 
L 18.109375 46.1875 
Q 20.953125 51.171875 25.484375 53.578125 
Q 30.03125 56 36.53125 56 
Q 37.453125 56 38.578125 55.875 
Q 39.703125 55.765625 41.0625 55.515625 
z
" id="DejaVuSans-114"/>
      <path id="DejaVuSans-32"/>
      <path d="M 30.609375 48.390625 
Q 23.390625 48.390625 19.1875 42.75 
Q 14.984375 37.109375 14.984375 27.296875 
Q 14.984375 17.484375 19.15625 11.84375 
Q 23.34375 6.203125 30.609375 6.203125 
Q 37.796875 6.203125 41.984375 11.859375 
Q 46.1875 17.53125 46.1875 27.296875 
Q 46.1875 37.015625 41.984375 42.703125 
Q 37.796875 48.390625 30.609375 48.390625 
z
M 30.609375 56 
Q 42.328125 56 49.015625 48.375 
Q 55.71875 40.765625 55.71875 27.296875 
Q 55.71875 13.875 49.015625 6.21875 
Q 42.328125 -1.421875 30.609375 -1.421875 
Q 18.84375 -1.421875 12.171875 6.21875 
Q 5.515625 13.875 5.515625 27.296875 
Q 5.515625 40.765625 12.171875 48.375 
Q 18.84375 56 30.609375 56 
z
" id="DejaVuSans-111"/>
      <path d="M 37.109375 75.984375 
L 37.109375 68.5 
L 28.515625 68.5 
Q 23.6875 68.5 21.796875 66.546875 
Q 19.921875 64.59375 19.921875 59.515625 
L 19.921875 54.6875 
L 34.71875 54.6875 
L 34.71875 47.703125 
L 19.921875 47.703125 
L 19.921875 0 
L 10.890625 0 
L 10.890625 47.703125 
L 2.296875 47.703125 
L 2.296875 54.6875 
L 10.890625 54.6875 
L 10.890625 58.5 
Q 10.890625 67.625 15.140625 71.796875 
Q 19.390625 75.984375 28.609375 75.984375 
z
" id="DejaVuSans-102"/>
      <path d="M 48.78125 52.59375 
L 48.78125 44.1875 
Q 44.96875 46.296875 41.140625 47.34375 
Q 37.3125 48.390625 33.40625 48.390625 
Q 24.65625 48.390625 19.8125 42.84375 
Q 14.984375 37.3125 14.984375 27.296875 
Q 14.984375 17.28125 19.8125 11.734375 
Q 24.65625 6.203125 33.40625 6.203125 
Q 37.3125 6.203125 41.140625 7.25 
Q 44.96875 8.296875 48.78125 10.40625 
L 48.78125 2.09375 
Q 45.015625 0.34375 40.984375 -0.53125 
Q 36.96875 -1.421875 32.421875 -1.421875 
Q 20.0625 -1.421875 12.78125 6.34375 
Q 5.515625 14.109375 5.515625 27.296875 
Q 5.515625 40.671875 12.859375 48.328125 
Q 20.21875 56 33.015625 56 
Q 37.15625 56 41.109375 55.140625 
Q 45.0625 54.296875 48.78125 52.59375 
z
" id="DejaVuSans-99"/>
      <path d="M 54.890625 33.015625 
L 54.890625 0 
L 45.90625 0 
L 45.90625 32.71875 
Q 45.90625 40.484375 42.875 44.328125 
Q 39.84375 48.1875 33.796875 48.1875 
Q 26.515625 48.1875 22.3125 43.546875 
Q 18.109375 38.921875 18.109375 30.90625 
L 18.109375 0 
L 9.078125 0 
L 9.078125 54.6875 
L 18.109375 54.6875 
L 18.109375 46.1875 
Q 21.34375 51.125 25.703125 53.5625 
Q 30.078125 56 35.796875 56 
Q 45.21875 56 50.046875 50.171875 
Q 54.890625 44.34375 54.890625 33.015625 
z
" id="DejaVuSans-110"/>
      <path d="M 9.421875 75.984375 
L 18.40625 75.984375 
L 18.40625 0 
L 9.421875 0 
z
" id="DejaVuSans-108"/>
      <path d="M 9.421875 54.6875 
L 18.40625 54.6875 
L 18.40625 0 
L 9.421875 0 
z
M 9.421875 75.984375 
L 18.40625 75.984375 
L 18.40625 64.59375 
L 9.421875 64.59375 
z
" id="DejaVuSans-105"/>
      <path d="M 18.3125 70.21875 
L 18.3125 54.6875 
L 36.8125 54.6875 
L 36.8125 47.703125 
L 18.3125 47.703125 
L 18.3125 18.015625 
Q 18.3125 11.328125 20.140625 9.421875 
Q 21.96875 7.515625 27.59375 7.515625 
L 36.8125 7.515625 
L 36.8125 0 
L 27.59375 0 
Q 17.1875 0 13.234375 3.875 
Q 9.28125 7.765625 9.28125 18.015625 
L 9.28125 47.703125 
L 2.6875 47.703125 
L 2.6875 54.6875 
L 9.28125 54.6875 
L 9.28125 70.21875 
z
" id="DejaVuSans-116"/>
      <path d="M 44.28125 53.078125 
L 44.28125 44.578125 
Q 40.484375 46.53125 36.375 47.5 
Q 32.28125 48.484375 27.875 48.484375 
Q 21.1875 48.484375 17.84375 46.4375 
Q 14.5 44.390625 14.5 40.28125 
Q 14.5 37.15625 16.890625 35.375 
Q 19.28125 33.59375 26.515625 31.984375 
L 29.59375 31.296875 
Q 39.15625 29.25 43.1875 25.515625 
Q 47.21875 21.78125 47.21875 15.09375 
Q 47.21875 7.46875 41.1875 3.015625 
Q 35.15625 -1.421875 24.609375 -1.421875 
Q 20.21875 -1.421875 15.453125 -0.5625 
Q 10.6875 0.296875 5.421875 2 
L 5.421875 11.28125 
Q 10.40625 8.6875 15.234375 7.390625 
Q 20.0625 6.109375 24.8125 6.109375 
Q 31.15625 6.109375 34.5625 8.28125 
Q 37.984375 10.453125 37.984375 14.40625 
Q 37.984375 18.0625 35.515625 20.015625 
Q 33.0625 21.96875 24.703125 23.78125 
L 21.578125 24.515625 
Q 13.234375 26.265625 9.515625 29.90625 
Q 5.8125 33.546875 5.8125 39.890625 
Q 5.8125 47.609375 11.28125 51.796875 
Q 16.75 56 26.8125 56 
Q 31.78125 56 36.171875 55.265625 
Q 40.578125 54.546875 44.28125 53.078125 
z
" id="DejaVuSans-115"/>
     </defs>
     <g transform="translate(172.486719 280.276563)scale(0.1 -0.1)">
      <use xlink:href="#DejaVuSans-78"/>
      <use x="74.804688" xlink:href="#DejaVuSans-117"/>
      <use x="138.183594" xlink:href="#DejaVuSans-109"/>
      <use x="235.595703" xlink:href="#DejaVuSans-98"/>
      <use x="299.072266" xlink:href="#DejaVuSans-101"/>
      <use x="360.595703" xlink:href="#DejaVuSans-114"/>
      <use x="401.708984" xlink:href="#DejaVuSans-32"/>
      <use x="433.496094" xlink:href="#DejaVuSans-111"/>
      <use x="494.677734" xlink:href="#DejaVuSans-102"/>
      <use x="529.882812" xlink:href="#DejaVuSans-32"/>
      <use x="561.669922" xlink:href="#DejaVuSans-99"/>
      <use x="616.650391" xlink:href="#DejaVuSans-111"/>
      <use x="677.832031" xlink:href="#DejaVuSans-110"/>
      <use x="741.210938" xlink:href="#DejaVuSans-102"/>
      <use x="776.416016" xlink:href="#DejaVuSans-108"/>
      <use x="804.199219" xlink:href="#DejaVuSans-105"/>
      <use x="831.982422" xlink:href="#DejaVuSans-99"/>
      <use x="886.962891" xlink:href="#DejaVuSans-116"/>
      <use x="926.171875" xlink:href="#DejaVuSans-115"/>
     </g>
    </g>
   </g>
   <g id="matplotlib.axis_2">
    <g id="ytick_1">
     <g id="line2d_7">
      <defs>
       <path d="M 0 0 
L -3.5 0 
" id="ma3079a88ed" style="stroke:#000000;stroke-width:0.8;"/>
      </defs>
      <g>
       <use style="stroke:#000000;stroke-width:0.8;" x="54" xlink:href="#ma3079a88ed" y="227.996883"/>
      </g>
     </g>
     <g id="text_8">
      <!-- 2 -->
      <g transform="translate(40.6375 231.796102)scale(0.1 -0.1)">
       <use xlink:href="#DejaVuSans-50"/>
      </g>
     </g>
    </g>
    <g id="ytick_2">
     <g id="line2d_8">
      <g>
       <use style="stroke:#000000;stroke-width:0.8;" x="54" xlink:href="#ma3079a88ed" y="199.757922"/>
      </g>
     </g>
     <g id="text_9">
      <!-- 4 -->
      <defs>
       <path d="M 37.796875 64.3125 
L 12.890625 25.390625 
L 37.796875 25.390625 
z
M 35.203125 72.90625 
L 47.609375 72.90625 
L 47.609375 25.390625 
L 58.015625 25.390625 
L 58.015625 17.1875 
L 47.609375 17.1875 
L 47.609375 0 
L 37.796875 0 
L 37.796875 17.1875 
L 4.890625 17.1875 
L 4.890625 26.703125 
z
" id="DejaVuSans-52"/>
      </defs>
      <g transform="translate(40.6375 203.557141)scale(0.1 -0.1)">
       <use xlink:href="#DejaVuSans-52"/>
      </g>
     </g>
    </g>
    <g id="ytick_3">
     <g id="line2d_9">
      <g>
       <use style="stroke:#000000;stroke-width:0.8;" x="54" xlink:href="#ma3079a88ed" y="171.518961"/>
      </g>
     </g>
     <g id="text_10">
      <!-- 6 -->
      <defs>
       <path d="M 33.015625 40.375 
Q 26.375 40.375 22.484375 35.828125 
Q 18.609375 31.296875 18.609375 23.390625 
Q 18.609375 15.53125 22.484375 10.953125 
Q 26.375 6.390625 33.015625 6.390625 
Q 39.65625 6.390625 43.53125 10.953125 
Q 47.40625 15.53125 47.40625 23.390625 
Q 47.40625 31.296875 43.53125 35.828125 
Q 39.65625 40.375 33.015625 40.375 
z
M 52.59375 71.296875 
L 52.59375 62.3125 
Q 48.875 64.0625 45.09375 64.984375 
Q 41.3125 65.921875 37.59375 65.921875 
Q 27.828125 65.921875 22.671875 59.328125 
Q 17.53125 52.734375 16.796875 39.40625 
Q 19.671875 43.65625 24.015625 45.921875 
Q 28.375 48.1875 33.59375 48.1875 
Q 44.578125 48.1875 50.953125 41.515625 
Q 57.328125 34.859375 57.328125 23.390625 
Q 57.328125 12.15625 50.6875 5.359375 
Q 44.046875 -1.421875 33.015625 -1.421875 
Q 20.359375 -1.421875 13.671875 8.265625 
Q 6.984375 17.96875 6.984375 36.375 
Q 6.984375 53.65625 15.1875 63.9375 
Q 23.390625 74.21875 37.203125 74.21875 
Q 40.921875 74.21875 44.703125 73.484375 
Q 48.484375 72.75 52.59375 71.296875 
z
" id="DejaVuSans-54"/>
      </defs>
      <g transform="translate(40.6375 175.31818)scale(0.1 -0.1)">
       <use xlink:href="#DejaVuSans-54"/>
      </g>
     </g>
    </g>
    <g id="ytick_4">
     <g id="line2d_10">
      <g>
       <use style="stroke:#000000;stroke-width:0.8;" x="54" xlink:href="#ma3079a88ed" y="143.28"/>
      </g>
     </g>
     <g id="text_11">
      <!-- 8 -->
      <defs>
       <path d="M 31.78125 34.625 
Q 24.75 34.625 20.71875 30.859375 
Q 16.703125 27.09375 16.703125 20.515625 
Q 16.703125 13.921875 20.71875 10.15625 
Q 24.75 6.390625 31.78125 6.390625 
Q 38.8125 6.390625 42.859375 10.171875 
Q 46.921875 13.96875 46.921875 20.515625 
Q 46.921875 27.09375 42.890625 30.859375 
Q 38.875 34.625 31.78125 34.625 
z
M 21.921875 38.8125 
Q 15.578125 40.375 12.03125 44.71875 
Q 8.5 49.078125 8.5 55.328125 
Q 8.5 64.0625 14.71875 69.140625 
Q 20.953125 74.21875 31.78125 74.21875 
Q 42.671875 74.21875 48.875 69.140625 
Q 55.078125 64.0625 55.078125 55.328125 
Q 55.078125 49.078125 51.53125 44.71875 
Q 48 40.375 41.703125 38.8125 
Q 48.828125 37.15625 52.796875 32.3125 
Q 56.78125 27.484375 56.78125 20.515625 
Q 56.78125 9.90625 50.3125 4.234375 
Q 43.84375 -1.421875 31.78125 -1.421875 
Q 19.734375 -1.421875 13.25 4.234375 
Q 6.78125 9.90625 6.78125 20.515625 
Q 6.78125 27.484375 10.78125 32.3125 
Q 14.796875 37.15625 21.921875 38.8125 
z
M 18.3125 54.390625 
Q 18.3125 48.734375 21.84375 45.5625 
Q 25.390625 42.390625 31.78125 42.390625 
Q 38.140625 42.390625 41.71875 45.5625 
Q 45.3125 48.734375 45.3125 54.390625 
Q 45.3125 60.0625 41.71875 63.234375 
Q 38.140625 66.40625 31.78125 66.40625 
Q 25.390625 66.40625 21.84375 63.234375 
Q 18.3125 60.0625 18.3125 54.390625 
z
" id="DejaVuSans-56"/>
      </defs>
      <g transform="translate(40.6375 147.079219)scale(0.1 -0.1)">
       <use xlink:href="#DejaVuSans-56"/>
      </g>
     </g>
    </g>
    <g id="ytick_5">
     <g id="line2d_11">
      <g>
       <use style="stroke:#000000;stroke-width:0.8;" x="54" xlink:href="#ma3079a88ed" y="115.041039"/>
      </g>
     </g>
     <g id="text_12">
      <!-- 10 -->
      <g transform="translate(34.275 118.840258)scale(0.1 -0.1)">
       <use xlink:href="#DejaVuSans-49"/>
       <use x="63.623047" xlink:href="#DejaVuSans-48"/>
      </g>
     </g>
    </g>
    <g id="ytick_6">
     <g id="line2d_12">
      <g>
       <use style="stroke:#000000;stroke-width:0.8;" x="54" xlink:href="#ma3079a88ed" y="86.802078"/>
      </g>
     </g>
     <g id="text_13">
      <!-- 12 -->
      <g transform="translate(34.275 90.601297)scale(0.1 -0.1)">
       <use xlink:href="#DejaVuSans-49"/>
       <use x="63.623047" xlink:href="#DejaVuSans-50"/>
      </g>
     </g>
    </g>
    <g id="ytick_7">
     <g id="line2d_13">
      <g>
       <use style="stroke:#000000;stroke-width:0.8;" x="54" xlink:href="#ma3079a88ed" y="58.563117"/>
      </g>
     </g>
     <g id="text_14">
      <!-- 14 -->
      <g transform="translate(34.275 62.362336)scale(0.1 -0.1)">
       <use xlink:href="#DejaVuSans-49"/>
       <use x="63.623047" xlink:href="#DejaVuSans-52"/>
      </g>
     </g>
    </g>
    <g id="text_15">
     <!-- Number of norms admitted -->
     <defs>
      <path d="M 34.28125 27.484375 
Q 23.390625 27.484375 19.1875 25 
Q 14.984375 22.515625 14.984375 16.5 
Q 14.984375 11.71875 18.140625 8.90625 
Q 21.296875 6.109375 26.703125 6.109375 
Q 34.1875 6.109375 38.703125 11.40625 
Q 43.21875 16.703125 43.21875 25.484375 
L 43.21875 27.484375 
z
M 52.203125 31.203125 
L 52.203125 0 
L 43.21875 0 
L 43.21875 8.296875 
Q 40.140625 3.328125 35.546875 0.953125 
Q 30.953125 -1.421875 24.3125 -1.421875 
Q 15.921875 -1.421875 10.953125 3.296875 
Q 6 8.015625 6 15.921875 
Q 6 25.140625 12.171875 29.828125 
Q 18.359375 34.515625 30.609375 34.515625 
L 43.21875 34.515625 
L 43.21875 35.40625 
Q 43.21875 41.609375 39.140625 45 
Q 35.0625 48.390625 27.6875 48.390625 
Q 23 48.390625 18.546875 47.265625 
Q 14.109375 46.140625 10.015625 43.890625 
L 10.015625 52.203125 
Q 14.9375 54.109375 19.578125 55.046875 
Q 24.21875 56 28.609375 56 
Q 40.484375 56 46.34375 49.84375 
Q 52.203125 43.703125 52.203125 31.203125 
z
" id="DejaVuSans-97"/>
      <path d="M 45.40625 46.390625 
L 45.40625 75.984375 
L 54.390625 75.984375 
L 54.390625 0 
L 45.40625 0 
L 45.40625 8.203125 
Q 42.578125 3.328125 38.25 0.953125 
Q 33.9375 -1.421875 27.875 -1.421875 
Q 17.96875 -1.421875 11.734375 6.484375 
Q 5.515625 14.40625 5.515625 27.296875 
Q 5.515625 40.1875 11.734375 48.09375 
Q 17.96875 56 27.875 56 
Q 33.9375 56 38.25 53.625 
Q 42.578125 51.265625 45.40625 46.390625 
z
M 14.796875 27.296875 
Q 14.796875 17.390625 18.875 11.75 
Q 22.953125 6.109375 30.078125 6.109375 
Q 37.203125 6.109375 41.296875 11.75 
Q 45.40625 17.390625 45.40625 27.296875 
Q 45.40625 37.203125 41.296875 42.84375 
Q 37.203125 48.484375 30.078125 48.484375 
Q 22.953125 48.484375 18.875 42.84375 
Q 14.796875 37.203125 14.796875 27.296875 
z
" id="DejaVuSans-100"/>
     </defs>
     <g transform="translate(28.195312 211.379219)rotate(-90)scale(0.1 -0.1)">
      <use xlink:href="#DejaVuSans-78"/>
      <use x="74.804688" xlink:href="#DejaVuSans-117"/>
      <use x="138.183594" xlink:href="#DejaVuSans-109"/>
      <use x="235.595703" xlink:href="#DejaVuSans-98"/>
      <use x="299.072266" xlink:href="#DejaVuSans-101"/>
      <use x="360.595703" xlink:href="#DejaVuSans-114"/>
      <use x="401.708984" xlink:href="#DejaVuSans-32"/>
      <use x="433.496094" xlink:href="#DejaVuSans-111"/>
      <use x="494.677734" xlink:href="#DejaVuSans-102"/>
      <use x="529.882812" xlink:href="#DejaVuSans-32"/>
      <use x="561.669922" xlink:href="#DejaVuSans-110"/>
      <use x="625.048828" xlink:href="#DejaVuSans-111"/>
      <use x="686.230469" xlink:href="#DejaVuSans-114"/>
      <use x="727.328125" xlink:href="#DejaVuSans-109"/>
      <use x="824.740234" xlink:href="#DejaVuSans-115"/>
      <use x="876.839844" xlink:href="#DejaVuSans-32"/>
      <use x="908.626953" xlink:href="#DejaVuSans-97"/>
      <use x="969.90625" xlink:href="#DejaVuSans-100"/>
      <use x="1033.382812" xlink:href="#DejaVuSans-109"/>
      <use x="1130.794922" xlink:href="#DejaVuSans-105"/>
      <use x="1158.578125" xlink:href="#DejaVuSans-116"/>
      <use x="1197.787109" xlink:href="#DejaVuSans-116"/>
      <use x="1236.996094" xlink:href="#DejaVuSans-101"/>
      <use x="1298.519531" xlink:href="#DejaVuSans-100"/>
     </g>
    </g>
   </g>
   <g id="line2d_14">
    <path clip-path="url(#p0de6c2f062)" d="M 54 44.443636 
L 55.3392 58.563117 
L 56.6784 67.034805 
L 58.0176 88.214026 
L 59.3568 102.333506 
L 60.696 126.336623 
L 62.0352 129.160519 
L 63.3744 119.276883 
L 64.7136 124.924675 
L 67.392 147.515844 
L 68.7312 130.572468 
L 70.0704 131.984416 
L 71.4096 141.868052 
L 72.7488 150.33974 
L 74.088 157.399481 
L 75.4272 160.223377 
L 76.7664 155.987532 
L 78.1056 157.399481 
L 79.4448 170.107013 
L 80.784 155.987532 
L 82.1232 167.283117 
L 83.4624 158.811429 
L 84.8016 175.754805 
L 86.1408 171.518961 
L 87.48 179.990649 
L 88.8192 172.930909 
L 90.1584 181.402597 
L 91.4976 177.166753 
L 92.8368 177.166753 
L 94.176 170.107013 
L 95.5152 174.342857 
L 96.8544 177.166753 
L 98.1936 177.166753 
L 99.5328 174.342857 
L 100.872 184.226494 
L 102.2112 189.874286 
L 104.8896 184.226494 
L 106.2288 179.990649 
L 107.568 195.522078 
L 108.9072 199.757922 
L 110.2464 188.462338 
L 111.5856 187.05039 
L 112.9248 192.698182 
L 114.264 189.874286 
L 115.6032 195.522078 
L 116.9424 189.874286 
L 118.2816 199.757922 
L 119.6208 188.462338 
L 120.96 192.698182 
L 122.2992 201.16987 
L 123.6384 191.286234 
L 124.9776 189.874286 
L 126.3168 201.16987 
L 127.656 198.345974 
L 128.9952 196.934026 
L 130.3344 202.581818 
L 131.6736 196.934026 
L 133.0128 203.993766 
L 134.352 198.345974 
L 135.6912 201.16987 
L 137.0304 202.581818 
L 138.3696 194.11013 
L 142.3872 206.817662 
L 143.7264 203.993766 
L 145.0656 205.405714 
L 146.4048 209.641558 
L 147.744 202.581818 
L 149.0832 213.877403 
L 150.4224 208.22961 
L 151.7616 206.817662 
L 153.1008 208.22961 
L 154.44 211.053506 
L 155.7792 206.817662 
L 157.1184 213.877403 
L 158.4576 203.993766 
L 159.7968 206.817662 
L 161.136 212.465455 
L 162.4752 211.053506 
L 166.4928 211.053506 
L 167.832 215.289351 
L 169.1712 209.641558 
L 170.5104 211.053506 
L 171.8496 215.289351 
L 173.1888 213.877403 
L 174.528 209.641558 
L 175.8672 216.701299 
L 177.2064 212.465455 
L 178.5456 215.289351 
L 179.8848 215.289351 
L 181.224 218.113247 
L 182.5632 216.701299 
L 183.9024 218.113247 
L 185.2416 216.701299 
L 186.5808 219.525195 
L 187.92 213.877403 
L 189.2592 215.289351 
L 191.9376 220.937143 
L 193.2768 220.937143 
L 194.616 216.701299 
L 195.9552 223.761039 
L 197.2944 216.701299 
L 198.6336 218.113247 
L 199.9728 223.761039 
L 201.312 219.525195 
L 202.6512 216.701299 
L 203.9904 218.113247 
L 205.3296 225.172987 
L 206.6688 219.525195 
L 208.008 218.113247 
L 209.3472 222.349091 
L 210.6864 219.525195 
L 212.0256 222.349091 
L 213.3648 223.761039 
L 214.704 220.937143 
L 216.0432 222.349091 
L 217.3824 220.937143 
L 220.0608 223.761039 
L 221.4 227.996883 
L 222.7392 227.996883 
L 224.0784 223.761039 
L 225.4176 223.761039 
L 226.7568 225.172987 
L 228.096 225.172987 
L 229.4352 223.761039 
L 230.7744 225.172987 
L 232.1136 225.172987 
L 233.4528 226.584935 
L 234.792 225.172987 
L 236.1312 226.584935 
L 237.4704 222.349091 
L 238.8096 225.172987 
L 240.1488 226.584935 
L 242.8272 226.584935 
L 244.1664 229.408831 
L 245.5056 225.172987 
L 246.8448 226.584935 
L 248.184 225.172987 
L 249.5232 229.408831 
L 253.5408 229.408831 
L 256.2192 226.584935 
L 257.5584 229.408831 
L 258.8976 229.408831 
L 260.2368 226.584935 
L 261.576 230.820779 
L 262.9152 229.408831 
L 264.2544 232.232727 
L 265.5936 227.996883 
L 266.9328 232.232727 
L 268.272 226.584935 
L 269.6112 229.408831 
L 270.9504 233.644675 
L 273.6288 230.820779 
L 274.968 232.232727 
L 276.3072 230.820779 
L 277.6464 232.232727 
L 278.9856 230.820779 
L 280.3248 232.232727 
L 281.664 232.232727 
L 283.0032 230.820779 
L 284.3424 230.820779 
L 285.6816 233.644675 
L 287.0208 233.644675 
L 288.36 230.820779 
L 289.6992 232.232727 
L 291.0384 230.820779 
L 292.3776 233.644675 
L 293.7168 232.232727 
L 296.3952 232.232727 
L 297.7344 230.820779 
L 300.4128 236.468571 
L 301.752 229.408831 
L 303.0912 233.644675 
L 305.7696 230.820779 
L 307.1088 236.468571 
L 308.448 233.644675 
L 309.7872 235.056623 
L 311.1264 235.056623 
L 312.4656 232.232727 
L 313.8048 239.292468 
L 315.144 235.056623 
L 316.4832 237.880519 
L 317.8224 236.468571 
L 319.1616 232.232727 
L 320.5008 237.880519 
L 321.84 237.880519 
L 323.1792 236.468571 
L 325.8576 236.468571 
L 327.1968 237.880519 
L 328.536 240.704416 
L 329.8752 237.880519 
L 331.2144 237.880519 
L 332.5536 239.292468 
L 333.8928 236.468571 
L 335.232 242.116364 
L 336.5712 239.292468 
L 337.9104 237.880519 
L 339.2496 237.880519 
L 340.5888 242.116364 
L 341.928 239.292468 
L 343.2672 242.116364 
L 344.6064 239.292468 
L 345.9456 239.292468 
L 347.2848 240.704416 
L 348.624 239.292468 
L 349.9632 239.292468 
L 351.3024 242.116364 
L 352.6416 240.704416 
L 353.9808 242.116364 
L 357.9984 242.116364 
L 359.3376 240.704416 
L 360.6768 240.704416 
L 362.016 242.116364 
L 374.0688 242.116364 
L 374.0688 242.116364 
" style="fill:none;stroke:#0000ff;stroke-dasharray:1,1.65;stroke-dashoffset:0;"/>
   </g>
   <g id="line2d_15">
    <path clip-path="url(#p0de6c2f062)" d="M 54 44.443636 
L 55.3392 58.563117 
L 56.6784 67.034805 
L 58.0176 74.094545 
L 59.3568 88.214026 
L 60.696 95.273766 
L 62.0352 100.921558 
L 63.3744 110.805195 
L 64.7136 107.981299 
L 66.0528 113.629091 
L 67.392 123.512727 
L 68.7312 129.160519 
L 70.0704 122.100779 
L 71.4096 131.984416 
L 72.7488 140.456104 
L 74.088 141.868052 
L 75.4272 137.632208 
L 76.7664 146.103896 
L 78.1056 140.456104 
L 79.4448 143.28 
L 80.784 153.163636 
L 84.8016 153.163636 
L 86.1408 158.811429 
L 87.48 157.399481 
L 88.8192 160.223377 
L 90.1584 157.399481 
L 91.4976 165.871169 
L 92.8368 164.459221 
L 94.176 165.871169 
L 96.8544 163.047273 
L 99.5328 165.871169 
L 100.872 171.518961 
L 102.2112 167.283117 
L 103.5504 170.107013 
L 104.8896 171.518961 
L 106.2288 168.695065 
L 107.568 174.342857 
L 108.9072 178.578701 
L 110.2464 179.990649 
L 112.9248 177.166753 
L 114.264 178.578701 
L 115.6032 185.638442 
L 116.9424 182.814545 
L 118.2816 181.402597 
L 119.6208 184.226494 
L 120.96 184.226494 
L 122.2992 185.638442 
L 123.6384 181.402597 
L 124.9776 185.638442 
L 126.3168 187.05039 
L 127.656 189.874286 
L 128.9952 188.462338 
L 130.3344 188.462338 
L 131.6736 192.698182 
L 133.0128 192.698182 
L 134.352 194.11013 
L 135.6912 192.698182 
L 137.0304 192.698182 
L 138.3696 188.462338 
L 139.7088 194.11013 
L 142.3872 191.286234 
L 143.7264 194.11013 
L 145.0656 195.522078 
L 146.4048 192.698182 
L 147.744 198.345974 
L 149.0832 198.345974 
L 151.7616 195.522078 
L 153.1008 201.16987 
L 154.44 195.522078 
L 155.7792 198.345974 
L 157.1184 198.345974 
L 158.4576 201.16987 
L 159.7968 198.345974 
L 161.136 198.345974 
L 163.8144 201.16987 
L 165.1536 201.16987 
L 166.4928 199.757922 
L 167.832 203.993766 
L 169.1712 203.993766 
L 170.5104 206.817662 
L 171.8496 203.993766 
L 173.1888 205.405714 
L 174.528 203.993766 
L 175.8672 208.22961 
L 178.5456 205.405714 
L 179.8848 209.641558 
L 182.5632 206.817662 
L 183.9024 211.053506 
L 185.2416 205.405714 
L 186.5808 208.22961 
L 187.92 206.817662 
L 189.2592 209.641558 
L 190.5984 209.641558 
L 191.9376 208.22961 
L 193.2768 208.22961 
L 194.616 211.053506 
L 195.9552 209.641558 
L 197.2944 209.641558 
L 198.6336 206.817662 
L 199.9728 213.877403 
L 201.312 211.053506 
L 202.6512 213.877403 
L 203.9904 212.465455 
L 205.3296 208.22961 
L 206.6688 212.465455 
L 208.008 209.641558 
L 209.3472 208.22961 
L 210.6864 212.465455 
L 212.0256 209.641558 
L 213.3648 215.289351 
L 216.0432 212.465455 
L 220.0608 212.465455 
L 221.4 216.701299 
L 222.7392 215.289351 
L 224.0784 212.465455 
L 225.4176 218.113247 
L 226.7568 216.701299 
L 228.096 213.877403 
L 229.4352 216.701299 
L 230.7744 218.113247 
L 232.1136 215.289351 
L 233.4528 216.701299 
L 234.792 215.289351 
L 237.4704 218.113247 
L 238.8096 218.113247 
L 240.1488 222.349091 
L 241.488 220.937143 
L 242.8272 220.937143 
L 244.1664 222.349091 
L 245.5056 218.113247 
L 246.8448 216.701299 
L 248.184 219.525195 
L 249.5232 218.113247 
L 250.8624 222.349091 
L 252.2016 220.937143 
L 253.5408 222.349091 
L 254.88 220.937143 
L 256.2192 222.349091 
L 258.8976 222.349091 
L 260.2368 220.937143 
L 261.576 223.761039 
L 262.9152 216.701299 
L 264.2544 223.761039 
L 265.5936 225.172987 
L 266.9328 225.172987 
L 268.272 226.584935 
L 269.6112 225.172987 
L 270.9504 225.172987 
L 272.2896 222.349091 
L 273.6288 226.584935 
L 274.968 225.172987 
L 276.3072 227.996883 
L 277.6464 227.996883 
L 278.9856 222.349091 
L 280.3248 226.584935 
L 281.664 225.172987 
L 283.0032 227.996883 
L 285.6816 227.996883 
L 287.0208 225.172987 
L 288.36 227.996883 
L 289.6992 227.996883 
L 291.0384 225.172987 
L 292.3776 227.996883 
L 295.056 227.996883 
L 296.3952 226.584935 
L 300.4128 226.584935 
L 301.752 227.996883 
L 305.7696 227.996883 
L 307.1088 226.584935 
L 308.448 227.996883 
L 317.8224 227.996883 
L 319.1616 229.408831 
L 321.84 229.408831 
L 323.1792 227.996883 
L 331.2144 227.996883 
L 332.5536 229.408831 
L 335.232 229.408831 
L 337.9104 232.232727 
L 339.2496 232.232727 
L 340.5888 230.820779 
L 341.928 232.232727 
L 343.2672 230.820779 
L 344.6064 232.232727 
L 345.9456 230.820779 
L 347.2848 237.880519 
L 348.624 237.880519 
L 349.9632 235.056623 
L 351.3024 240.704416 
L 352.6416 235.056623 
L 353.9808 235.056623 
L 355.32 240.704416 
L 356.6592 237.880519 
L 357.9984 237.880519 
L 359.3376 236.468571 
L 360.6768 237.880519 
L 362.016 240.704416 
L 363.3552 242.116364 
L 364.6944 242.116364 
L 366.0336 237.880519 
L 367.3728 242.116364 
L 368.712 242.116364 
L 370.0512 240.704416 
L 371.3904 242.116364 
L 374.0688 242.116364 
L 374.0688 242.116364 
" style="fill:none;stroke:#ff0000;stroke-dasharray:1,1.65;stroke-dashoffset:0;"/>
   </g>
   <g id="line2d_16">
    <path clip-path="url(#p0de6c2f062)" d="M 54 44.443636 
L 55.3392 58.563117 
L 56.6784 67.034805 
L 58.0176 74.094545 
L 59.3568 91.037922 
L 60.696 93.861818 
L 62.0352 99.50961 
L 63.3744 103.745455 
L 64.7136 112.217143 
L 67.392 126.336623 
L 68.7312 127.748571 
L 70.0704 119.276883 
L 71.4096 134.808312 
L 72.7488 136.22026 
L 74.088 140.456104 
L 75.4272 143.28 
L 76.7664 144.691948 
L 78.1056 144.691948 
L 80.784 155.987532 
L 82.1232 151.751688 
L 83.4624 154.575584 
L 84.8016 155.987532 
L 87.48 161.635325 
L 88.8192 163.047273 
L 90.1584 170.107013 
L 91.4976 172.930909 
L 92.8368 174.342857 
L 94.176 168.695065 
L 95.5152 174.342857 
L 96.8544 168.695065 
L 98.1936 171.518961 
L 99.5328 170.107013 
L 100.872 177.166753 
L 102.2112 181.402597 
L 103.5504 175.754805 
L 104.8896 178.578701 
L 106.2288 172.930909 
L 107.568 185.638442 
L 108.9072 189.874286 
L 111.5856 184.226494 
L 112.9248 188.462338 
L 114.264 188.462338 
L 115.6032 194.11013 
L 116.9424 185.638442 
L 118.2816 195.522078 
L 119.6208 188.462338 
L 120.96 191.286234 
L 122.2992 198.345974 
L 123.6384 188.462338 
L 124.9776 189.874286 
L 126.3168 198.345974 
L 127.656 198.345974 
L 128.9952 195.522078 
L 130.3344 198.345974 
L 131.6736 195.522078 
L 133.0128 198.345974 
L 134.352 195.522078 
L 135.6912 199.757922 
L 137.0304 198.345974 
L 138.3696 192.698182 
L 141.048 201.16987 
L 142.3872 203.993766 
L 143.7264 199.757922 
L 146.4048 205.405714 
L 147.744 202.581818 
L 149.0832 206.817662 
L 150.4224 205.405714 
L 151.7616 206.817662 
L 153.1008 206.817662 
L 154.44 208.22961 
L 155.7792 205.405714 
L 157.1184 208.22961 
L 158.4576 202.581818 
L 159.7968 206.817662 
L 161.136 212.465455 
L 162.4752 209.641558 
L 165.1536 209.641558 
L 166.4928 206.817662 
L 167.832 213.877403 
L 169.1712 209.641558 
L 171.8496 209.641558 
L 173.1888 212.465455 
L 174.528 208.22961 
L 175.8672 213.877403 
L 177.2064 212.465455 
L 178.5456 215.289351 
L 179.8848 213.877403 
L 181.224 216.701299 
L 182.5632 212.465455 
L 183.9024 215.289351 
L 186.5808 218.113247 
L 187.92 212.465455 
L 191.9376 220.937143 
L 193.2768 220.937143 
L 194.616 216.701299 
L 195.9552 223.761039 
L 197.2944 216.701299 
L 198.6336 216.701299 
L 199.9728 222.349091 
L 201.312 216.701299 
L 202.6512 216.701299 
L 203.9904 218.113247 
L 205.3296 220.937143 
L 206.6688 219.525195 
L 208.008 215.289351 
L 209.3472 222.349091 
L 210.6864 216.701299 
L 212.0256 222.349091 
L 213.3648 223.761039 
L 214.704 220.937143 
L 218.7216 220.937143 
L 220.0608 222.349091 
L 221.4 226.584935 
L 224.0784 223.761039 
L 225.4176 223.761039 
L 226.7568 225.172987 
L 228.096 225.172987 
L 229.4352 223.761039 
L 230.7744 225.172987 
L 232.1136 222.349091 
L 233.4528 226.584935 
L 234.792 225.172987 
L 236.1312 226.584935 
L 237.4704 222.349091 
L 238.8096 225.172987 
L 240.1488 226.584935 
L 241.488 225.172987 
L 242.8272 225.172987 
L 244.1664 229.408831 
L 245.5056 225.172987 
L 246.8448 226.584935 
L 248.184 222.349091 
L 249.5232 229.408831 
L 252.2016 229.408831 
L 253.5408 227.996883 
L 254.88 227.996883 
L 256.2192 226.584935 
L 257.5584 229.408831 
L 258.8976 229.408831 
L 260.2368 226.584935 
L 261.576 229.408831 
L 262.9152 227.996883 
L 264.2544 232.232727 
L 265.5936 227.996883 
L 266.9328 229.408831 
L 268.272 226.584935 
L 270.9504 232.232727 
L 272.2896 230.820779 
L 273.6288 230.820779 
L 274.968 232.232727 
L 276.3072 230.820779 
L 277.6464 232.232727 
L 278.9856 230.820779 
L 280.3248 232.232727 
L 281.664 232.232727 
L 283.0032 230.820779 
L 284.3424 230.820779 
L 285.6816 233.644675 
L 287.0208 233.644675 
L 288.36 230.820779 
L 289.6992 232.232727 
L 291.0384 230.820779 
L 292.3776 233.644675 
L 293.7168 232.232727 
L 296.3952 232.232727 
L 297.7344 230.820779 
L 299.0736 232.232727 
L 300.4128 236.468571 
L 301.752 229.408831 
L 303.0912 233.644675 
L 305.7696 230.820779 
L 307.1088 236.468571 
L 308.448 233.644675 
L 309.7872 235.056623 
L 312.4656 232.232727 
L 313.8048 239.292468 
L 315.144 235.056623 
L 316.4832 237.880519 
L 317.8224 236.468571 
L 319.1616 232.232727 
L 320.5008 237.880519 
L 321.84 237.880519 
L 323.1792 236.468571 
L 325.8576 236.468571 
L 327.1968 237.880519 
L 328.536 240.704416 
L 329.8752 237.880519 
L 331.2144 237.880519 
L 332.5536 239.292468 
L 333.8928 236.468571 
L 335.232 242.116364 
L 336.5712 239.292468 
L 337.9104 237.880519 
L 339.2496 237.880519 
L 340.5888 242.116364 
L 341.928 239.292468 
L 343.2672 242.116364 
L 344.6064 239.292468 
L 345.9456 239.292468 
L 347.2848 240.704416 
L 348.624 239.292468 
L 349.9632 239.292468 
L 351.3024 242.116364 
L 352.6416 240.704416 
L 353.9808 242.116364 
L 357.9984 242.116364 
L 359.3376 240.704416 
L 360.6768 240.704416 
L 362.016 242.116364 
L 374.0688 242.116364 
L 374.0688 242.116364 
" style="fill:none;stroke:#0000ff;stroke-linecap:square;"/>
   </g>
   <g id="line2d_17">
    <path clip-path="url(#p0de6c2f062)" d="M 54 44.443636 
L 55.3392 58.563117 
L 56.6784 67.034805 
L 58.0176 74.094545 
L 59.3568 88.214026 
L 60.696 95.273766 
L 62.0352 100.921558 
L 63.3744 110.805195 
L 64.7136 107.981299 
L 66.0528 113.629091 
L 67.392 120.688831 
L 68.7312 129.160519 
L 70.0704 122.100779 
L 71.4096 131.984416 
L 72.7488 137.632208 
L 74.088 139.044156 
L 75.4272 131.984416 
L 76.7664 143.28 
L 78.1056 134.808312 
L 79.4448 141.868052 
L 80.784 153.163636 
L 82.1232 147.515844 
L 83.4624 151.751688 
L 86.1408 154.575584 
L 87.48 151.751688 
L 88.8192 157.399481 
L 90.1584 155.987532 
L 91.4976 164.459221 
L 92.8368 164.459221 
L 94.176 161.635325 
L 95.5152 163.047273 
L 96.8544 160.223377 
L 98.1936 163.047273 
L 99.5328 163.047273 
L 100.872 167.283117 
L 102.2112 167.283117 
L 103.5504 168.695065 
L 104.8896 171.518961 
L 106.2288 167.283117 
L 107.568 170.107013 
L 108.9072 174.342857 
L 110.2464 174.342857 
L 111.5856 178.578701 
L 112.9248 177.166753 
L 114.264 177.166753 
L 115.6032 185.638442 
L 116.9424 181.402597 
L 118.2816 178.578701 
L 119.6208 184.226494 
L 120.96 182.814545 
L 122.2992 184.226494 
L 123.6384 179.990649 
L 124.9776 185.638442 
L 126.3168 184.226494 
L 127.656 188.462338 
L 130.3344 188.462338 
L 131.6736 191.286234 
L 133.0128 191.286234 
L 134.352 192.698182 
L 137.0304 192.698182 
L 138.3696 188.462338 
L 139.7088 194.11013 
L 142.3872 191.286234 
L 143.7264 191.286234 
L 145.0656 195.522078 
L 146.4048 191.286234 
L 147.744 198.345974 
L 149.0832 195.522078 
L 151.7616 195.522078 
L 153.1008 201.16987 
L 154.44 195.522078 
L 155.7792 198.345974 
L 157.1184 198.345974 
L 158.4576 201.16987 
L 159.7968 196.934026 
L 163.8144 201.16987 
L 165.1536 201.16987 
L 166.4928 198.345974 
L 167.832 203.993766 
L 169.1712 203.993766 
L 170.5104 205.405714 
L 171.8496 203.993766 
L 173.1888 205.405714 
L 174.528 203.993766 
L 175.8672 208.22961 
L 178.5456 205.405714 
L 179.8848 209.641558 
L 182.5632 206.817662 
L 183.9024 211.053506 
L 185.2416 205.405714 
L 186.5808 206.817662 
L 187.92 206.817662 
L 189.2592 209.641558 
L 190.5984 209.641558 
L 191.9376 208.22961 
L 193.2768 208.22961 
L 194.616 211.053506 
L 195.9552 209.641558 
L 197.2944 209.641558 
L 198.6336 205.405714 
L 199.9728 211.053506 
L 201.312 209.641558 
L 202.6512 213.877403 
L 203.9904 212.465455 
L 205.3296 208.22961 
L 206.6688 212.465455 
L 208.008 209.641558 
L 209.3472 208.22961 
L 210.6864 212.465455 
L 212.0256 209.641558 
L 213.3648 215.289351 
L 214.704 213.877403 
L 216.0432 211.053506 
L 217.3824 212.465455 
L 220.0608 212.465455 
L 221.4 216.701299 
L 222.7392 215.289351 
L 224.0784 212.465455 
L 225.4176 218.113247 
L 226.7568 216.701299 
L 228.096 213.877403 
L 229.4352 216.701299 
L 230.7744 218.113247 
L 232.1136 215.289351 
L 234.792 215.289351 
L 237.4704 218.113247 
L 238.8096 218.113247 
L 240.1488 222.349091 
L 241.488 220.937143 
L 242.8272 220.937143 
L 244.1664 222.349091 
L 245.5056 218.113247 
L 246.8448 216.701299 
L 248.184 219.525195 
L 249.5232 218.113247 
L 250.8624 222.349091 
L 252.2016 220.937143 
L 253.5408 222.349091 
L 254.88 220.937143 
L 256.2192 222.349091 
L 258.8976 222.349091 
L 260.2368 220.937143 
L 261.576 223.761039 
L 262.9152 216.701299 
L 264.2544 223.761039 
L 265.5936 225.172987 
L 266.9328 223.761039 
L 268.272 226.584935 
L 269.6112 225.172987 
L 270.9504 225.172987 
L 272.2896 222.349091 
L 273.6288 226.584935 
L 274.968 225.172987 
L 276.3072 227.996883 
L 277.6464 227.996883 
L 278.9856 222.349091 
L 280.3248 226.584935 
L 281.664 225.172987 
L 283.0032 227.996883 
L 285.6816 227.996883 
L 287.0208 225.172987 
L 289.6992 227.996883 
L 291.0384 225.172987 
L 292.3776 227.996883 
L 295.056 227.996883 
L 296.3952 226.584935 
L 300.4128 226.584935 
L 301.752 227.996883 
L 305.7696 227.996883 
L 307.1088 226.584935 
L 308.448 227.996883 
L 317.8224 227.996883 
L 319.1616 229.408831 
L 321.84 229.408831 
L 323.1792 227.996883 
L 331.2144 227.996883 
L 332.5536 229.408831 
L 335.232 229.408831 
L 337.9104 232.232727 
L 339.2496 232.232727 
L 340.5888 230.820779 
L 341.928 232.232727 
L 343.2672 230.820779 
L 344.6064 232.232727 
L 345.9456 230.820779 
L 347.2848 237.880519 
L 348.624 237.880519 
L 349.9632 235.056623 
L 351.3024 240.704416 
L 352.6416 235.056623 
L 353.9808 235.056623 
L 355.32 240.704416 
L 356.6592 237.880519 
L 357.9984 237.880519 
L 359.3376 236.468571 
L 360.6768 237.880519 
L 362.016 240.704416 
L 363.3552 242.116364 
L 364.6944 242.116364 
L 366.0336 237.880519 
L 367.3728 242.116364 
L 368.712 242.116364 
L 370.0512 240.704416 
L 371.3904 242.116364 
L 374.0688 242.116364 
L 374.0688 242.116364 
" style="fill:none;stroke:#ff0000;stroke-linecap:square;"/>
   </g>
   <g id="patch_3">
    <path d="M 54 252 
L 54 34.56 
" style="fill:none;stroke:#000000;stroke-linecap:square;stroke-linejoin:miter;stroke-width:0.8;"/>
   </g>
   <g id="patch_4">
    <path d="M 54 252 
L 388.8 252 
" style="fill:none;stroke:#000000;stroke-linecap:square;stroke-linejoin:miter;stroke-width:0.8;"/>
   </g>
   <g id="text_16">
    <!-- Number of norms admitted by $ColourResolve$ and $ColourResolveComplete$ -->
    <defs>
     <path d="M 32.171875 -5.078125 
Q 28.375 -14.84375 24.75 -17.8125 
Q 21.140625 -20.796875 15.09375 -20.796875 
L 7.90625 -20.796875 
L 7.90625 -13.28125 
L 13.1875 -13.28125 
Q 16.890625 -13.28125 18.9375 -11.515625 
Q 21 -9.765625 23.484375 -3.21875 
L 25.09375 0.875 
L 2.984375 54.6875 
L 12.5 54.6875 
L 29.59375 11.921875 
L 46.6875 54.6875 
L 56.203125 54.6875 
z
" id="DejaVuSans-121"/>
     <path d="M 69.484375 67.28125 
L 67.484375 56.890625 
Q 62.796875 61.625 57.546875 63.921875 
Q 52.296875 66.21875 46.1875 66.21875 
Q 37.84375 66.21875 31.515625 62.203125 
Q 25.203125 58.203125 20.609375 50 
Q 17.671875 44.734375 16.125 38.84375 
Q 14.59375 32.953125 14.59375 27 
Q 14.59375 17.046875 19.75 11.8125 
Q 24.90625 6.59375 34.71875 6.59375 
Q 41.5 6.59375 47.75 8.765625 
Q 54 10.9375 59.90625 15.28125 
L 57.625 3.609375 
Q 51.8125 1.125 45.875 -0.140625 
Q 39.9375 -1.421875 33.984375 -1.421875 
Q 19.96875 -1.421875 12.078125 6.1875 
Q 4.203125 13.8125 4.203125 27.390625 
Q 4.203125 36.078125 7.203125 44.46875 
Q 10.203125 52.875 15.828125 59.8125 
Q 21.78125 67.1875 29.421875 70.703125 
Q 37.0625 74.21875 47.21875 74.21875 
Q 53.46875 74.21875 59.0625 72.484375 
Q 64.65625 70.75 69.484375 67.28125 
z
" id="DejaVuSans-Oblique-67"/>
     <path d="M 25.390625 -1.421875 
Q 15.765625 -1.421875 10.171875 4.515625 
Q 4.59375 10.453125 4.59375 20.703125 
Q 4.59375 26.65625 6.515625 32.828125 
Q 8.453125 39.015625 11.53125 43.21875 
Q 16.359375 49.75 22.3125 52.875 
Q 28.265625 56 35.796875 56 
Q 45.125 56 50.859375 50.1875 
Q 56.59375 44.390625 56.59375 35.015625 
Q 56.59375 28.515625 54.6875 22.0625 
Q 52.78125 15.625 49.703125 11.375 
Q 44.921875 4.828125 38.96875 1.703125 
Q 33.015625 -1.421875 25.390625 -1.421875 
z
M 13.921875 21 
Q 13.921875 13.578125 17.015625 9.890625 
Q 20.125 6.203125 26.421875 6.203125 
Q 35.453125 6.203125 41.375 14.078125 
Q 47.3125 21.96875 47.3125 34.078125 
Q 47.3125 41.15625 44.140625 44.765625 
Q 40.96875 48.390625 34.8125 48.390625 
Q 29.734375 48.390625 25.78125 46.015625 
Q 21.828125 43.65625 18.703125 38.8125 
Q 16.40625 35.203125 15.15625 30.5625 
Q 13.921875 25.921875 13.921875 21 
z
" id="DejaVuSans-Oblique-111"/>
     <path d="M 18.3125 75.984375 
L 27.296875 75.984375 
L 12.5 0 
L 3.515625 0 
z
" id="DejaVuSans-Oblique-108"/>
     <path d="M 6.6875 21.6875 
L 13.09375 54.6875 
L 22.125 54.6875 
L 15.71875 22.015625 
Q 15.234375 19.625 15.015625 17.921875 
Q 14.796875 16.21875 14.796875 15.09375 
Q 14.796875 10.9375 17.328125 8.65625 
Q 19.875 6.390625 24.515625 6.390625 
Q 31.734375 6.390625 37 11.265625 
Q 42.28125 16.15625 43.890625 24.421875 
L 49.90625 54.6875 
L 58.890625 54.6875 
L 48.296875 0 
L 39.3125 0 
L 41.109375 8.59375 
Q 37.3125 3.8125 32.0625 1.1875 
Q 26.8125 -1.421875 20.90625 -1.421875 
Q 13.71875 -1.421875 9.71875 2.515625 
Q 5.71875 6.453125 5.71875 13.484375 
Q 5.71875 14.9375 5.953125 17.140625 
Q 6.203125 19.34375 6.6875 21.6875 
z
" id="DejaVuSans-Oblique-117"/>
     <path d="M 44.578125 46.390625 
Q 43.21875 47.125 41.453125 47.515625 
Q 39.703125 47.90625 37.703125 47.90625 
Q 30.515625 47.90625 25.140625 42.453125 
Q 19.78125 37.015625 18.015625 27.875 
L 12.5 0 
L 3.515625 0 
L 14.203125 54.6875 
L 23.1875 54.6875 
L 21.484375 46.1875 
Q 25.046875 50.921875 30 53.453125 
Q 34.96875 56 40.578125 56 
Q 42.046875 56 43.453125 55.828125 
Q 44.875 55.671875 46.296875 55.28125 
z
" id="DejaVuSans-Oblique-114"/>
     <path d="M 25.203125 64.796875 
L 20.21875 38.921875 
L 32.90625 38.921875 
Q 40.375 38.921875 44.984375 43.046875 
Q 49.609375 47.171875 49.609375 53.8125 
Q 49.609375 59.125 46.5 61.953125 
Q 43.40625 64.796875 37.59375 64.796875 
z
M 43.3125 35.015625 
Q 46.4375 34.28125 48.515625 31.390625 
Q 50.59375 28.515625 53.328125 19.921875 
L 59.515625 0 
L 49.125 0 
L 43.40625 18.703125 
Q 41.21875 25.921875 38.328125 28.359375 
Q 35.453125 30.8125 29.5 30.8125 
L 18.609375 30.8125 
L 12.59375 0 
L 2.6875 0 
L 16.890625 72.90625 
L 39.109375 72.90625 
Q 49.21875 72.90625 54.609375 68.328125 
Q 60.015625 63.765625 60.015625 55.171875 
Q 60.015625 47.5625 55.421875 41.984375 
Q 50.828125 36.421875 43.3125 35.015625 
z
" id="DejaVuSans-Oblique-82"/>
     <path d="M 48.09375 32.234375 
Q 48.25 33.015625 48.3125 33.84375 
Q 48.390625 34.671875 48.390625 35.5 
Q 48.390625 41.453125 44.890625 44.921875 
Q 41.40625 48.390625 35.40625 48.390625 
Q 28.71875 48.390625 23.578125 44.15625 
Q 18.453125 39.9375 15.828125 32.171875 
z
M 55.90625 25.203125 
L 14.109375 25.203125 
Q 13.8125 23.34375 13.71875 22.265625 
Q 13.625 21.1875 13.625 20.40625 
Q 13.625 13.625 17.796875 9.90625 
Q 21.96875 6.203125 29.59375 6.203125 
Q 35.453125 6.203125 40.671875 7.515625 
Q 45.90625 8.84375 50.390625 11.375 
L 48.6875 2.484375 
Q 43.84375 0.53125 38.6875 -0.4375 
Q 33.546875 -1.421875 28.21875 -1.421875 
Q 16.84375 -1.421875 10.71875 4.015625 
Q 4.59375 9.46875 4.59375 19.484375 
Q 4.59375 28.03125 7.640625 35.375 
Q 10.6875 42.71875 16.609375 48.484375 
Q 20.40625 52.09375 25.65625 54.046875 
Q 30.90625 56 36.8125 56 
Q 46.09375 56 51.578125 50.4375 
Q 57.078125 44.875 57.078125 35.5 
Q 57.078125 33.25 56.78125 30.6875 
Q 56.5 28.125 55.90625 25.203125 
z
" id="DejaVuSans-Oblique-101"/>
     <path d="M 50 53.078125 
L 48.296875 44.578125 
Q 44.734375 46.53125 40.765625 47.5 
Q 36.8125 48.484375 32.625 48.484375 
Q 25.53125 48.484375 21.453125 46.0625 
Q 17.390625 43.65625 17.390625 39.5 
Q 17.390625 34.671875 26.859375 32.078125 
Q 27.59375 31.890625 27.9375 31.78125 
L 30.8125 30.90625 
Q 39.796875 28.421875 42.796875 25.6875 
Q 45.796875 22.953125 45.796875 18.21875 
Q 45.796875 9.515625 38.890625 4.046875 
Q 31.984375 -1.421875 20.796875 -1.421875 
Q 16.453125 -1.421875 11.671875 -0.578125 
Q 6.890625 0.25 1.125 2 
L 2.875 11.28125 
Q 7.8125 8.734375 12.59375 7.421875 
Q 17.390625 6.109375 21.78125 6.109375 
Q 28.375 6.109375 32.5 8.9375 
Q 36.625 11.765625 36.625 16.109375 
Q 36.625 20.796875 25.78125 23.6875 
L 24.859375 23.921875 
L 21.78125 24.703125 
Q 14.9375 26.515625 11.765625 29.46875 
Q 8.59375 32.421875 8.59375 37.015625 
Q 8.59375 45.75 15.15625 50.875 
Q 21.734375 56 33.015625 56 
Q 37.453125 56 41.671875 55.265625 
Q 45.90625 54.546875 50 53.078125 
z
" id="DejaVuSans-Oblique-115"/>
     <path d="M 7.171875 54.6875 
L 16.703125 54.6875 
L 24.703125 8.203125 
L 50.875 54.6875 
L 60.40625 54.6875 
L 29.296875 0 
L 17.1875 0 
z
" id="DejaVuSans-Oblique-118"/>
     <path d="M 89.796875 33.015625 
L 83.40625 0 
L 74.421875 0 
L 80.71875 32.71875 
Q 81.109375 34.8125 81.296875 36.328125 
Q 81.5 37.84375 81.5 38.921875 
Q 81.5 43.3125 79.046875 45.75 
Q 76.609375 48.1875 72.21875 48.1875 
Q 65.671875 48.1875 60.546875 43.28125 
Q 55.421875 38.375 53.90625 30.515625 
L 47.90625 0 
L 38.921875 0 
L 45.3125 32.71875 
Q 45.703125 34.515625 45.890625 36.046875 
Q 46.09375 37.59375 46.09375 38.8125 
Q 46.09375 43.265625 43.65625 45.71875 
Q 41.21875 48.1875 36.921875 48.1875 
Q 30.28125 48.1875 25.140625 43.28125 
Q 20.015625 38.375 18.5 30.515625 
L 12.5 0 
L 3.515625 0 
L 14.203125 54.6875 
L 23.1875 54.6875 
L 21.484375 46.1875 
Q 25.140625 50.984375 30.046875 53.484375 
Q 34.96875 56 40.578125 56 
Q 46.53125 56 50.359375 52.875 
Q 54.203125 49.75 54.984375 44.1875 
Q 59.078125 49.953125 64.46875 52.96875 
Q 69.875 56 75.875 56 
Q 82.90625 56 86.734375 51.953125 
Q 90.578125 47.90625 90.578125 40.484375 
Q 90.578125 38.875 90.375 36.9375 
Q 90.1875 35.015625 89.796875 33.015625 
z
" id="DejaVuSans-Oblique-109"/>
     <path d="M 49.609375 33.6875 
Q 49.609375 40.875 46.484375 44.671875 
Q 43.359375 48.484375 37.5 48.484375 
Q 33.5 48.484375 29.859375 46.4375 
Q 26.21875 44.390625 23.390625 40.484375 
Q 20.609375 36.625 18.9375 31.15625 
Q 17.28125 25.6875 17.28125 20.3125 
Q 17.28125 13.484375 20.40625 9.796875 
Q 23.53125 6.109375 29.296875 6.109375 
Q 33.546875 6.109375 37.1875 8.109375 
Q 40.828125 10.109375 43.40625 13.921875 
Q 46.1875 17.921875 47.890625 23.34375 
Q 49.609375 28.765625 49.609375 33.6875 
z
M 21.78125 46.390625 
Q 25.390625 51.125 30.296875 53.5625 
Q 35.203125 56 41.21875 56 
Q 49.609375 56 54.25 50.5 
Q 58.890625 45.015625 58.890625 35.109375 
Q 58.890625 27 56 19.65625 
Q 53.125 12.3125 47.703125 6.5 
Q 44.09375 2.640625 39.546875 0.609375 
Q 35.015625 -1.421875 29.984375 -1.421875 
Q 24.171875 -1.421875 20.21875 1 
Q 16.265625 3.421875 14.3125 8.203125 
L 8.6875 -20.796875 
L -0.296875 -20.796875 
L 14.40625 54.6875 
L 23.390625 54.6875 
z
" id="DejaVuSans-Oblique-112"/>
     <path d="M 42.28125 54.6875 
L 40.921875 47.703125 
L 23 47.703125 
L 17.1875 18.015625 
Q 16.890625 16.359375 16.75 15.234375 
Q 16.609375 14.109375 16.609375 13.484375 
Q 16.609375 10.359375 18.484375 8.9375 
Q 20.359375 7.515625 24.515625 7.515625 
L 33.59375 7.515625 
L 32.078125 0 
L 23.484375 0 
Q 15.484375 0 11.546875 3.125 
Q 7.625 6.25 7.625 12.59375 
Q 7.625 13.71875 7.765625 15.0625 
Q 7.90625 16.40625 8.203125 18.015625 
L 14.015625 47.703125 
L 6.390625 47.703125 
L 7.8125 54.6875 
L 15.28125 54.6875 
L 18.3125 70.21875 
L 27.296875 70.21875 
L 24.3125 54.6875 
z
" id="DejaVuSans-Oblique-116"/>
    </defs>
    <g transform="translate(-1.62 15.09825)scale(0.12 -0.12)">
     <use transform="translate(0 0.015625)" xlink:href="#DejaVuSans-78"/>
     <use transform="translate(74.804688 0.015625)" xlink:href="#DejaVuSans-117"/>
     <use transform="translate(138.183594 0.015625)" xlink:href="#DejaVuSans-109"/>
     <use transform="translate(235.595703 0.015625)" xlink:href="#DejaVuSans-98"/>
     <use transform="translate(299.072266 0.015625)" xlink:href="#DejaVuSans-101"/>
     <use transform="translate(360.595703 0.015625)" xlink:href="#DejaVuSans-114"/>
     <use transform="translate(401.708984 0.015625)" xlink:href="#DejaVuSans-32"/>
     <use transform="translate(433.496094 0.015625)" xlink:href="#DejaVuSans-111"/>
     <use transform="translate(494.677734 0.015625)" xlink:href="#DejaVuSans-102"/>
     <use transform="translate(529.882812 0.015625)" xlink:href="#DejaVuSans-32"/>
     <use transform="translate(561.669922 0.015625)" xlink:href="#DejaVuSans-110"/>
     <use transform="translate(625.048828 0.015625)" xlink:href="#DejaVuSans-111"/>
     <use transform="translate(686.230469 0.015625)" xlink:href="#DejaVuSans-114"/>
     <use transform="translate(727.34375 0.015625)" xlink:href="#DejaVuSans-109"/>
     <use transform="translate(824.755859 0.015625)" xlink:href="#DejaVuSans-115"/>
     <use transform="translate(876.855469 0.015625)" xlink:href="#DejaVuSans-32"/>
     <use transform="translate(908.642578 0.015625)" xlink:href="#DejaVuSans-97"/>
     <use transform="translate(969.921875 0.015625)" xlink:href="#DejaVuSans-100"/>
     <use transform="translate(1033.398438 0.015625)" xlink:href="#DejaVuSans-109"/>
     <use transform="translate(1130.810547 0.015625)" xlink:href="#DejaVuSans-105"/>
     <use transform="translate(1158.59375 0.015625)" xlink:href="#DejaVuSans-116"/>
     <use transform="translate(1197.802734 0.015625)" xlink:href="#DejaVuSans-116"/>
     <use transform="translate(1237.011719 0.015625)" xlink:href="#DejaVuSans-101"/>
     <use transform="translate(1298.535156 0.015625)" xlink:href="#DejaVuSans-100"/>
     <use transform="translate(1362.011719 0.015625)" xlink:href="#DejaVuSans-32"/>
     <use transform="translate(1393.798828 0.015625)" xlink:href="#DejaVuSans-98"/>
     <use transform="translate(1457.275391 0.015625)" xlink:href="#DejaVuSans-121"/>
     <use transform="translate(1516.455078 0.015625)" xlink:href="#DejaVuSans-32"/>
     <use transform="translate(1548.242188 0.015625)" xlink:href="#DejaVuSans-Oblique-67"/>
     <use transform="translate(1618.066406 0.015625)" xlink:href="#DejaVuSans-Oblique-111"/>
     <use transform="translate(1679.248047 0.015625)" xlink:href="#DejaVuSans-Oblique-108"/>
     <use transform="translate(1707.03125 0.015625)" xlink:href="#DejaVuSans-Oblique-111"/>
     <use transform="translate(1768.212891 0.015625)" xlink:href="#DejaVuSans-Oblique-117"/>
     <use transform="translate(1831.591797 0.015625)" xlink:href="#DejaVuSans-Oblique-114"/>
     <use transform="translate(1872.705078 0.015625)" xlink:href="#DejaVuSans-Oblique-82"/>
     <use transform="translate(1942.1875 0.015625)" xlink:href="#DejaVuSans-Oblique-101"/>
     <use transform="translate(2003.710938 0.015625)" xlink:href="#DejaVuSans-Oblique-115"/>
     <use transform="translate(2055.810547 0.015625)" xlink:href="#DejaVuSans-Oblique-111"/>
     <use transform="translate(2116.992188 0.015625)" xlink:href="#DejaVuSans-Oblique-108"/>
     <use transform="translate(2144.775391 0.015625)" xlink:href="#DejaVuSans-Oblique-118"/>
     <use transform="translate(2203.955078 0.015625)" xlink:href="#DejaVuSans-Oblique-101"/>
     <use transform="translate(2265.478516 0.015625)" xlink:href="#DejaVuSans-32"/>
     <use transform="translate(2297.265625 0.015625)" xlink:href="#DejaVuSans-97"/>
     <use transform="translate(2358.544922 0.015625)" xlink:href="#DejaVuSans-110"/>
     <use transform="translate(2421.923828 0.015625)" xlink:href="#DejaVuSans-100"/>
     <use transform="translate(2485.400391 0.015625)" xlink:href="#DejaVuSans-32"/>
     <use transform="translate(2517.1875 0.015625)" xlink:href="#DejaVuSans-Oblique-67"/>
     <use transform="translate(2587.011719 0.015625)" xlink:href="#DejaVuSans-Oblique-111"/>
     <use transform="translate(2648.193359 0.015625)" xlink:href="#DejaVuSans-Oblique-108"/>
     <use transform="translate(2675.976562 0.015625)" xlink:href="#DejaVuSans-Oblique-111"/>
     <use transform="translate(2737.158203 0.015625)" xlink:href="#DejaVuSans-Oblique-117"/>
     <use transform="translate(2800.537109 0.015625)" xlink:href="#DejaVuSans-Oblique-114"/>
     <use transform="translate(2841.650391 0.015625)" xlink:href="#DejaVuSans-Oblique-82"/>
     <use transform="translate(2911.132812 0.015625)" xlink:href="#DejaVuSans-Oblique-101"/>
     <use transform="translate(2972.65625 0.015625)" xlink:href="#DejaVuSans-Oblique-115"/>
     <use transform="translate(3024.755859 0.015625)" xlink:href="#DejaVuSans-Oblique-111"/>
     <use transform="translate(3085.9375 0.015625)" xlink:href="#DejaVuSans-Oblique-108"/>
     <use transform="translate(3113.720703 0.015625)" xlink:href="#DejaVuSans-Oblique-118"/>
     <use transform="translate(3172.900391 0.015625)" xlink:href="#DejaVuSans-Oblique-101"/>
     <use transform="translate(3234.423828 0.015625)" xlink:href="#DejaVuSans-Oblique-67"/>
     <use transform="translate(3304.248047 0.015625)" xlink:href="#DejaVuSans-Oblique-111"/>
     <use transform="translate(3365.429688 0.015625)" xlink:href="#DejaVuSans-Oblique-109"/>
     <use transform="translate(3462.841797 0.015625)" xlink:href="#DejaVuSans-Oblique-112"/>
     <use transform="translate(3526.318359 0.015625)" xlink:href="#DejaVuSans-Oblique-108"/>
     <use transform="translate(3554.101562 0.015625)" xlink:href="#DejaVuSans-Oblique-101"/>
     <use transform="translate(3615.625 0.015625)" xlink:href="#DejaVuSans-Oblique-116"/>
     <use transform="translate(3654.833984 0.015625)" xlink:href="#DejaVuSans-Oblique-101"/>
    </g>
    <!--  for different numbers of edges in a 16-vertex conflict graph -->
    <defs>
     <path d="M 45.40625 27.984375 
Q 45.40625 37.75 41.375 43.109375 
Q 37.359375 48.484375 30.078125 48.484375 
Q 22.859375 48.484375 18.828125 43.109375 
Q 14.796875 37.75 14.796875 27.984375 
Q 14.796875 18.265625 18.828125 12.890625 
Q 22.859375 7.515625 30.078125 7.515625 
Q 37.359375 7.515625 41.375 12.890625 
Q 45.40625 18.265625 45.40625 27.984375 
z
M 54.390625 6.78125 
Q 54.390625 -7.171875 48.1875 -13.984375 
Q 42 -20.796875 29.203125 -20.796875 
Q 24.46875 -20.796875 20.265625 -20.09375 
Q 16.0625 -19.390625 12.109375 -17.921875 
L 12.109375 -9.1875 
Q 16.0625 -11.328125 19.921875 -12.34375 
Q 23.78125 -13.375 27.78125 -13.375 
Q 36.625 -13.375 41.015625 -8.765625 
Q 45.40625 -4.15625 45.40625 5.171875 
L 45.40625 9.625 
Q 42.625 4.78125 38.28125 2.390625 
Q 33.9375 0 27.875 0 
Q 17.828125 0 11.671875 7.65625 
Q 5.515625 15.328125 5.515625 27.984375 
Q 5.515625 40.671875 11.671875 48.328125 
Q 17.828125 56 27.875 56 
Q 33.9375 56 38.28125 53.609375 
Q 42.625 51.21875 45.40625 46.390625 
L 45.40625 54.6875 
L 54.390625 54.6875 
z
" id="DejaVuSans-103"/>
     <path d="M 4.890625 31.390625 
L 31.203125 31.390625 
L 31.203125 23.390625 
L 4.890625 23.390625 
z
" id="DejaVuSans-45"/>
     <path d="M 2.984375 54.6875 
L 12.5 54.6875 
L 29.59375 8.796875 
L 46.6875 54.6875 
L 56.203125 54.6875 
L 35.6875 0 
L 23.484375 0 
z
" id="DejaVuSans-118"/>
     <path d="M 54.890625 54.6875 
L 35.109375 28.078125 
L 55.90625 0 
L 45.3125 0 
L 29.390625 21.484375 
L 13.484375 0 
L 2.875 0 
L 24.125 28.609375 
L 4.6875 54.6875 
L 15.28125 54.6875 
L 29.78125 35.203125 
L 44.28125 54.6875 
z
" id="DejaVuSans-120"/>
     <path d="M 18.109375 8.203125 
L 18.109375 -20.796875 
L 9.078125 -20.796875 
L 9.078125 54.6875 
L 18.109375 54.6875 
L 18.109375 46.390625 
Q 20.953125 51.265625 25.265625 53.625 
Q 29.59375 56 35.59375 56 
Q 45.5625 56 51.78125 48.09375 
Q 58.015625 40.1875 58.015625 27.296875 
Q 58.015625 14.40625 51.78125 6.484375 
Q 45.5625 -1.421875 35.59375 -1.421875 
Q 29.59375 -1.421875 25.265625 0.953125 
Q 20.953125 3.328125 18.109375 8.203125 
z
M 48.6875 27.296875 
Q 48.6875 37.203125 44.609375 42.84375 
Q 40.53125 48.484375 33.40625 48.484375 
Q 26.265625 48.484375 22.1875 42.84375 
Q 18.109375 37.203125 18.109375 27.296875 
Q 18.109375 17.390625 22.1875 11.75 
Q 26.265625 6.109375 33.40625 6.109375 
Q 40.53125 6.109375 44.609375 11.75 
Q 48.6875 17.390625 48.6875 27.296875 
z
" id="DejaVuSans-112"/>
     <path d="M 54.890625 33.015625 
L 54.890625 0 
L 45.90625 0 
L 45.90625 32.71875 
Q 45.90625 40.484375 42.875 44.328125 
Q 39.84375 48.1875 33.796875 48.1875 
Q 26.515625 48.1875 22.3125 43.546875 
Q 18.109375 38.921875 18.109375 30.90625 
L 18.109375 0 
L 9.078125 0 
L 9.078125 75.984375 
L 18.109375 75.984375 
L 18.109375 46.1875 
Q 21.34375 51.125 25.703125 53.5625 
Q 30.078125 56 35.796875 56 
Q 45.21875 56 50.046875 50.171875 
Q 54.890625 44.34375 54.890625 33.015625 
z
" id="DejaVuSans-104"/>
    </defs>
    <g transform="translate(40.242188 28.56)scale(0.12 -0.12)">
     <use xlink:href="#DejaVuSans-32"/>
     <use x="31.787109" xlink:href="#DejaVuSans-102"/>
     <use x="66.992188" xlink:href="#DejaVuSans-111"/>
     <use x="128.173828" xlink:href="#DejaVuSans-114"/>
     <use x="169.287109" xlink:href="#DejaVuSans-32"/>
     <use x="201.074219" xlink:href="#DejaVuSans-100"/>
     <use x="264.550781" xlink:href="#DejaVuSans-105"/>
     <use x="292.333984" xlink:href="#DejaVuSans-102"/>
     <use x="327.539062" xlink:href="#DejaVuSans-102"/>
     <use x="362.744141" xlink:href="#DejaVuSans-101"/>
     <use x="424.267578" xlink:href="#DejaVuSans-114"/>
     <use x="465.349609" xlink:href="#DejaVuSans-101"/>
     <use x="526.873047" xlink:href="#DejaVuSans-110"/>
     <use x="590.251953" xlink:href="#DejaVuSans-116"/>
     <use x="629.460938" xlink:href="#DejaVuSans-32"/>
     <use x="661.248047" xlink:href="#DejaVuSans-110"/>
     <use x="724.626953" xlink:href="#DejaVuSans-117"/>
     <use x="788.005859" xlink:href="#DejaVuSans-109"/>
     <use x="885.417969" xlink:href="#DejaVuSans-98"/>
     <use x="948.894531" xlink:href="#DejaVuSans-101"/>
     <use x="1010.417969" xlink:href="#DejaVuSans-114"/>
     <use x="1051.53125" xlink:href="#DejaVuSans-115"/>
     <use x="1103.630859" xlink:href="#DejaVuSans-32"/>
     <use x="1135.417969" xlink:href="#DejaVuSans-111"/>
     <use x="1196.599609" xlink:href="#DejaVuSans-102"/>
     <use x="1231.804688" xlink:href="#DejaVuSans-32"/>
     <use x="1263.591797" xlink:href="#DejaVuSans-101"/>
     <use x="1325.115234" xlink:href="#DejaVuSans-100"/>
     <use x="1388.591797" xlink:href="#DejaVuSans-103"/>
     <use x="1452.068359" xlink:href="#DejaVuSans-101"/>
     <use x="1513.591797" xlink:href="#DejaVuSans-115"/>
     <use x="1565.691406" xlink:href="#DejaVuSans-32"/>
     <use x="1597.478516" xlink:href="#DejaVuSans-105"/>
     <use x="1625.261719" xlink:href="#DejaVuSans-110"/>
     <use x="1688.640625" xlink:href="#DejaVuSans-32"/>
     <use x="1720.427734" xlink:href="#DejaVuSans-97"/>
     <use x="1781.707031" xlink:href="#DejaVuSans-32"/>
     <use x="1813.494141" xlink:href="#DejaVuSans-49"/>
     <use x="1877.117188" xlink:href="#DejaVuSans-54"/>
     <use x="1940.740234" xlink:href="#DejaVuSans-45"/>
     <use x="1976.792969" xlink:href="#DejaVuSans-118"/>
     <use x="2035.972656" xlink:href="#DejaVuSans-101"/>
     <use x="2097.496094" xlink:href="#DejaVuSans-114"/>
     <use x="2138.609375" xlink:href="#DejaVuSans-116"/>
     <use x="2177.818359" xlink:href="#DejaVuSans-101"/>
     <use x="2239.326172" xlink:href="#DejaVuSans-120"/>
     <use x="2298.505859" xlink:href="#DejaVuSans-32"/>
     <use x="2330.292969" xlink:href="#DejaVuSans-99"/>
     <use x="2385.273438" xlink:href="#DejaVuSans-111"/>
     <use x="2446.455078" xlink:href="#DejaVuSans-110"/>
     <use x="2509.833984" xlink:href="#DejaVuSans-102"/>
     <use x="2545.039062" xlink:href="#DejaVuSans-108"/>
     <use x="2572.822266" xlink:href="#DejaVuSans-105"/>
     <use x="2600.605469" xlink:href="#DejaVuSans-99"/>
     <use x="2655.585938" xlink:href="#DejaVuSans-116"/>
     <use x="2694.794922" xlink:href="#DejaVuSans-32"/>
     <use x="2726.582031" xlink:href="#DejaVuSans-103"/>
     <use x="2790.058594" xlink:href="#DejaVuSans-114"/>
     <use x="2831.171875" xlink:href="#DejaVuSans-97"/>
     <use x="2892.451172" xlink:href="#DejaVuSans-112"/>
     <use x="2955.927734" xlink:href="#DejaVuSans-104"/>
    </g>
   </g>
   <g id="legend_1">
    <g id="patch_5">
     <path d="M 89.7 101.338125 
L 381.8 101.338125 
Q 383.8 101.338125 383.8 99.338125 
L 383.8 41.56 
Q 383.8 39.56 381.8 39.56 
L 89.7 39.56 
Q 87.7 39.56 87.7 41.56 
L 87.7 99.338125 
Q 87.7 101.338125 89.7 101.338125 
z
" style="fill:#ffffff;opacity:0.8;stroke:#cccccc;stroke-linejoin:miter;"/>
    </g>
    <g id="line2d_18">
     <path d="M 91.7 47.66 
L 111.7 47.66 
" style="fill:none;stroke:#0000ff;stroke-dasharray:1,1.65;stroke-dashoffset:0;"/>
    </g>
    <g id="line2d_19"/>
    <g id="text_17">
     <!-- Arbitrary weak ordering ($ColourResolve$) -->
     <defs>
      <path d="M 34.1875 63.1875 
L 20.796875 26.90625 
L 47.609375 26.90625 
z
M 28.609375 72.90625 
L 39.796875 72.90625 
L 67.578125 0 
L 57.328125 0 
L 50.6875 18.703125 
L 17.828125 18.703125 
L 11.1875 0 
L 0.78125 0 
z
" id="DejaVuSans-65"/>
      <path d="M 4.203125 54.6875 
L 13.1875 54.6875 
L 24.421875 12.015625 
L 35.59375 54.6875 
L 46.1875 54.6875 
L 57.421875 12.015625 
L 68.609375 54.6875 
L 77.59375 54.6875 
L 63.28125 0 
L 52.6875 0 
L 40.921875 44.828125 
L 29.109375 0 
L 18.5 0 
z
" id="DejaVuSans-119"/>
      <path d="M 9.078125 75.984375 
L 18.109375 75.984375 
L 18.109375 31.109375 
L 44.921875 54.6875 
L 56.390625 54.6875 
L 27.390625 29.109375 
L 57.625 0 
L 45.90625 0 
L 18.109375 26.703125 
L 18.109375 0 
L 9.078125 0 
z
" id="DejaVuSans-107"/>
      <path d="M 31 75.875 
Q 24.46875 64.65625 21.28125 53.65625 
Q 18.109375 42.671875 18.109375 31.390625 
Q 18.109375 20.125 21.3125 9.0625 
Q 24.515625 -2 31 -13.1875 
L 23.1875 -13.1875 
Q 15.875 -1.703125 12.234375 9.375 
Q 8.59375 20.453125 8.59375 31.390625 
Q 8.59375 42.28125 12.203125 53.3125 
Q 15.828125 64.359375 23.1875 75.875 
z
" id="DejaVuSans-40"/>
      <path d="M 8.015625 75.875 
L 15.828125 75.875 
Q 23.140625 64.359375 26.78125 53.3125 
Q 30.421875 42.28125 30.421875 31.390625 
Q 30.421875 20.453125 26.78125 9.375 
Q 23.140625 -1.703125 15.828125 -13.1875 
L 8.015625 -13.1875 
Q 14.5 -2 17.703125 9.0625 
Q 20.90625 20.125 20.90625 31.390625 
Q 20.90625 42.671875 17.703125 53.65625 
Q 14.5 64.65625 8.015625 75.875 
z
" id="DejaVuSans-41"/>
     </defs>
     <g transform="translate(119.7 51.16)scale(0.1 -0.1)">
      <use transform="translate(0 0.015625)" xlink:href="#DejaVuSans-65"/>
      <use transform="translate(68.408203 0.015625)" xlink:href="#DejaVuSans-114"/>
      <use transform="translate(109.521484 0.015625)" xlink:href="#DejaVuSans-98"/>
      <use transform="translate(172.998047 0.015625)" xlink:href="#DejaVuSans-105"/>
      <use transform="translate(200.78125 0.015625)" xlink:href="#DejaVuSans-116"/>
      <use transform="translate(239.990234 0.015625)" xlink:href="#DejaVuSans-114"/>
      <use transform="translate(281.103516 0.015625)" xlink:href="#DejaVuSans-97"/>
      <use transform="translate(342.382812 0.015625)" xlink:href="#DejaVuSans-114"/>
      <use transform="translate(383.496094 0.015625)" xlink:href="#DejaVuSans-121"/>
      <use transform="translate(442.675781 0.015625)" xlink:href="#DejaVuSans-32"/>
      <use transform="translate(474.462891 0.015625)" xlink:href="#DejaVuSans-119"/>
      <use transform="translate(556.25 0.015625)" xlink:href="#DejaVuSans-101"/>
      <use transform="translate(617.773438 0.015625)" xlink:href="#DejaVuSans-97"/>
      <use transform="translate(679.052734 0.015625)" xlink:href="#DejaVuSans-107"/>
      <use transform="translate(736.962891 0.015625)" xlink:href="#DejaVuSans-32"/>
      <use transform="translate(768.75 0.015625)" xlink:href="#DejaVuSans-111"/>
      <use transform="translate(829.931641 0.015625)" xlink:href="#DejaVuSans-114"/>
      <use transform="translate(871.044922 0.015625)" xlink:href="#DejaVuSans-100"/>
      <use transform="translate(934.521484 0.015625)" xlink:href="#DejaVuSans-101"/>
      <use transform="translate(996.044922 0.015625)" xlink:href="#DejaVuSans-114"/>
      <use transform="translate(1037.158203 0.015625)" xlink:href="#DejaVuSans-105"/>
      <use transform="translate(1064.941406 0.015625)" xlink:href="#DejaVuSans-110"/>
      <use transform="translate(1128.320312 0.015625)" xlink:href="#DejaVuSans-103"/>
      <use transform="translate(1191.796875 0.015625)" xlink:href="#DejaVuSans-32"/>
      <use transform="translate(1223.583984 0.015625)" xlink:href="#DejaVuSans-40"/>
      <use transform="translate(1262.597656 0.015625)" xlink:href="#DejaVuSans-Oblique-67"/>
      <use transform="translate(1332.421875 0.015625)" xlink:href="#DejaVuSans-Oblique-111"/>
      <use transform="translate(1393.603516 0.015625)" xlink:href="#DejaVuSans-Oblique-108"/>
      <use transform="translate(1421.386719 0.015625)" xlink:href="#DejaVuSans-Oblique-111"/>
      <use transform="translate(1482.568359 0.015625)" xlink:href="#DejaVuSans-Oblique-117"/>
      <use transform="translate(1545.947266 0.015625)" xlink:href="#DejaVuSans-Oblique-114"/>
      <use transform="translate(1587.060547 0.015625)" xlink:href="#DejaVuSans-Oblique-82"/>
      <use transform="translate(1656.542969 0.015625)" xlink:href="#DejaVuSans-Oblique-101"/>
      <use transform="translate(1718.066406 0.015625)" xlink:href="#DejaVuSans-Oblique-115"/>
      <use transform="translate(1770.166016 0.015625)" xlink:href="#DejaVuSans-Oblique-111"/>
      <use transform="translate(1831.347656 0.015625)" xlink:href="#DejaVuSans-Oblique-108"/>
      <use transform="translate(1859.130859 0.015625)" xlink:href="#DejaVuSans-Oblique-118"/>
      <use transform="translate(1918.310547 0.015625)" xlink:href="#DejaVuSans-Oblique-101"/>
      <use transform="translate(1979.833984 0.015625)" xlink:href="#DejaVuSans-41"/>
     </g>
    </g>
    <g id="line2d_20">
     <path d="M 91.7 62.358438 
L 111.7 62.358438 
" style="fill:none;stroke:#ff0000;stroke-dasharray:1,1.65;stroke-dashoffset:0;"/>
    </g>
    <g id="line2d_21"/>
    <g id="text_18">
     <!-- Max colour class heuristic ($ColourResolve$) -->
     <defs>
      <path d="M 9.8125 72.90625 
L 24.515625 72.90625 
L 43.109375 23.296875 
L 61.8125 72.90625 
L 76.515625 72.90625 
L 76.515625 0 
L 66.890625 0 
L 66.890625 64.015625 
L 48.09375 14.015625 
L 38.1875 14.015625 
L 19.390625 64.015625 
L 19.390625 0 
L 9.8125 0 
z
" id="DejaVuSans-77"/>
     </defs>
     <g transform="translate(119.7 65.858438)scale(0.1 -0.1)">
      <use transform="translate(0 0.015625)" xlink:href="#DejaVuSans-77"/>
      <use transform="translate(86.279297 0.015625)" xlink:href="#DejaVuSans-97"/>
      <use transform="translate(147.558594 0.015625)" xlink:href="#DejaVuSans-120"/>
      <use transform="translate(206.738281 0.015625)" xlink:href="#DejaVuSans-32"/>
      <use transform="translate(238.525391 0.015625)" xlink:href="#DejaVuSans-99"/>
      <use transform="translate(293.505859 0.015625)" xlink:href="#DejaVuSans-111"/>
      <use transform="translate(354.6875 0.015625)" xlink:href="#DejaVuSans-108"/>
      <use transform="translate(382.470703 0.015625)" xlink:href="#DejaVuSans-111"/>
      <use transform="translate(443.652344 0.015625)" xlink:href="#DejaVuSans-117"/>
      <use transform="translate(507.03125 0.015625)" xlink:href="#DejaVuSans-114"/>
      <use transform="translate(548.144531 0.015625)" xlink:href="#DejaVuSans-32"/>
      <use transform="translate(579.931641 0.015625)" xlink:href="#DejaVuSans-99"/>
      <use transform="translate(634.912109 0.015625)" xlink:href="#DejaVuSans-108"/>
      <use transform="translate(662.695312 0.015625)" xlink:href="#DejaVuSans-97"/>
      <use transform="translate(723.974609 0.015625)" xlink:href="#DejaVuSans-115"/>
      <use transform="translate(776.074219 0.015625)" xlink:href="#DejaVuSans-115"/>
      <use transform="translate(828.173828 0.015625)" xlink:href="#DejaVuSans-32"/>
      <use transform="translate(859.960938 0.015625)" xlink:href="#DejaVuSans-104"/>
      <use transform="translate(923.339844 0.015625)" xlink:href="#DejaVuSans-101"/>
      <use transform="translate(984.863281 0.015625)" xlink:href="#DejaVuSans-117"/>
      <use transform="translate(1048.242188 0.015625)" xlink:href="#DejaVuSans-114"/>
      <use transform="translate(1089.355469 0.015625)" xlink:href="#DejaVuSans-105"/>
      <use transform="translate(1117.138672 0.015625)" xlink:href="#DejaVuSans-115"/>
      <use transform="translate(1169.238281 0.015625)" xlink:href="#DejaVuSans-116"/>
      <use transform="translate(1208.447266 0.015625)" xlink:href="#DejaVuSans-105"/>
      <use transform="translate(1236.230469 0.015625)" xlink:href="#DejaVuSans-99"/>
      <use transform="translate(1291.210938 0.015625)" xlink:href="#DejaVuSans-32"/>
      <use transform="translate(1322.998047 0.015625)" xlink:href="#DejaVuSans-40"/>
      <use transform="translate(1362.011719 0.015625)" xlink:href="#DejaVuSans-Oblique-67"/>
      <use transform="translate(1431.835938 0.015625)" xlink:href="#DejaVuSans-Oblique-111"/>
      <use transform="translate(1493.017578 0.015625)" xlink:href="#DejaVuSans-Oblique-108"/>
      <use transform="translate(1520.800781 0.015625)" xlink:href="#DejaVuSans-Oblique-111"/>
      <use transform="translate(1581.982422 0.015625)" xlink:href="#DejaVuSans-Oblique-117"/>
      <use transform="translate(1645.361328 0.015625)" xlink:href="#DejaVuSans-Oblique-114"/>
      <use transform="translate(1686.474609 0.015625)" xlink:href="#DejaVuSans-Oblique-82"/>
      <use transform="translate(1755.957031 0.015625)" xlink:href="#DejaVuSans-Oblique-101"/>
      <use transform="translate(1817.480469 0.015625)" xlink:href="#DejaVuSans-Oblique-115"/>
      <use transform="translate(1869.580078 0.015625)" xlink:href="#DejaVuSans-Oblique-111"/>
      <use transform="translate(1930.761719 0.015625)" xlink:href="#DejaVuSans-Oblique-108"/>
      <use transform="translate(1958.544922 0.015625)" xlink:href="#DejaVuSans-Oblique-118"/>
      <use transform="translate(2017.724609 0.015625)" xlink:href="#DejaVuSans-Oblique-101"/>
      <use transform="translate(2079.248047 0.015625)" xlink:href="#DejaVuSans-41"/>
     </g>
    </g>
    <g id="line2d_22">
     <path d="M 91.7 77.038125 
L 111.7 77.038125 
" style="fill:none;stroke:#0000ff;stroke-linecap:square;"/>
    </g>
    <g id="line2d_23"/>
    <g id="text_19">
     <!-- Arbitrary weak ordering ($ColourResolveComplete$) -->
     <g transform="translate(119.7 80.538125)scale(0.1 -0.1)">
      <use transform="translate(0 0.015625)" xlink:href="#DejaVuSans-65"/>
      <use transform="translate(68.408203 0.015625)" xlink:href="#DejaVuSans-114"/>
      <use transform="translate(109.521484 0.015625)" xlink:href="#DejaVuSans-98"/>
      <use transform="translate(172.998047 0.015625)" xlink:href="#DejaVuSans-105"/>
      <use transform="translate(200.78125 0.015625)" xlink:href="#DejaVuSans-116"/>
      <use transform="translate(239.990234 0.015625)" xlink:href="#DejaVuSans-114"/>
      <use transform="translate(281.103516 0.015625)" xlink:href="#DejaVuSans-97"/>
      <use transform="translate(342.382812 0.015625)" xlink:href="#DejaVuSans-114"/>
      <use transform="translate(383.496094 0.015625)" xlink:href="#DejaVuSans-121"/>
      <use transform="translate(442.675781 0.015625)" xlink:href="#DejaVuSans-32"/>
      <use transform="translate(474.462891 0.015625)" xlink:href="#DejaVuSans-119"/>
      <use transform="translate(556.25 0.015625)" xlink:href="#DejaVuSans-101"/>
      <use transform="translate(617.773438 0.015625)" xlink:href="#DejaVuSans-97"/>
      <use transform="translate(679.052734 0.015625)" xlink:href="#DejaVuSans-107"/>
      <use transform="translate(736.962891 0.015625)" xlink:href="#DejaVuSans-32"/>
      <use transform="translate(768.75 0.015625)" xlink:href="#DejaVuSans-111"/>
      <use transform="translate(829.931641 0.015625)" xlink:href="#DejaVuSans-114"/>
      <use transform="translate(871.044922 0.015625)" xlink:href="#DejaVuSans-100"/>
      <use transform="translate(934.521484 0.015625)" xlink:href="#DejaVuSans-101"/>
      <use transform="translate(996.044922 0.015625)" xlink:href="#DejaVuSans-114"/>
      <use transform="translate(1037.158203 0.015625)" xlink:href="#DejaVuSans-105"/>
      <use transform="translate(1064.941406 0.015625)" xlink:href="#DejaVuSans-110"/>
      <use transform="translate(1128.320312 0.015625)" xlink:href="#DejaVuSans-103"/>
      <use transform="translate(1191.796875 0.015625)" xlink:href="#DejaVuSans-32"/>
      <use transform="translate(1223.583984 0.015625)" xlink:href="#DejaVuSans-40"/>
      <use transform="translate(1262.597656 0.015625)" xlink:href="#DejaVuSans-Oblique-67"/>
      <use transform="translate(1332.421875 0.015625)" xlink:href="#DejaVuSans-Oblique-111"/>
      <use transform="translate(1393.603516 0.015625)" xlink:href="#DejaVuSans-Oblique-108"/>
      <use transform="translate(1421.386719 0.015625)" xlink:href="#DejaVuSans-Oblique-111"/>
      <use transform="translate(1482.568359 0.015625)" xlink:href="#DejaVuSans-Oblique-117"/>
      <use transform="translate(1545.947266 0.015625)" xlink:href="#DejaVuSans-Oblique-114"/>
      <use transform="translate(1587.060547 0.015625)" xlink:href="#DejaVuSans-Oblique-82"/>
      <use transform="translate(1656.542969 0.015625)" xlink:href="#DejaVuSans-Oblique-101"/>
      <use transform="translate(1718.066406 0.015625)" xlink:href="#DejaVuSans-Oblique-115"/>
      <use transform="translate(1770.166016 0.015625)" xlink:href="#DejaVuSans-Oblique-111"/>
      <use transform="translate(1831.347656 0.015625)" xlink:href="#DejaVuSans-Oblique-108"/>
      <use transform="translate(1859.130859 0.015625)" xlink:href="#DejaVuSans-Oblique-118"/>
      <use transform="translate(1918.310547 0.015625)" xlink:href="#DejaVuSans-Oblique-101"/>
      <use transform="translate(1979.833984 0.015625)" xlink:href="#DejaVuSans-Oblique-67"/>
      <use transform="translate(2049.658203 0.015625)" xlink:href="#DejaVuSans-Oblique-111"/>
      <use transform="translate(2110.839844 0.015625)" xlink:href="#DejaVuSans-Oblique-109"/>
      <use transform="translate(2208.251953 0.015625)" xlink:href="#DejaVuSans-Oblique-112"/>
      <use transform="translate(2271.728516 0.015625)" xlink:href="#DejaVuSans-Oblique-108"/>
      <use transform="translate(2299.511719 0.015625)" xlink:href="#DejaVuSans-Oblique-101"/>
      <use transform="translate(2361.035156 0.015625)" xlink:href="#DejaVuSans-Oblique-116"/>
      <use transform="translate(2400.244141 0.015625)" xlink:href="#DejaVuSans-Oblique-101"/>
      <use transform="translate(2461.767578 0.015625)" xlink:href="#DejaVuSans-41"/>
     </g>
    </g>
    <g id="line2d_24">
     <path d="M 91.7 91.738125 
L 111.7 91.738125 
" style="fill:none;stroke:#ff0000;stroke-linecap:square;"/>
    </g>
    <g id="line2d_25"/>
    <g id="text_20">
     <!-- Max colour class heuristic ($ColourResolveComplete$) -->
     <g transform="translate(119.7 95.238125)scale(0.1 -0.1)">
      <use transform="translate(0 0.015625)" xlink:href="#DejaVuSans-77"/>
      <use transform="translate(86.279297 0.015625)" xlink:href="#DejaVuSans-97"/>
      <use transform="translate(147.558594 0.015625)" xlink:href="#DejaVuSans-120"/>
      <use transform="translate(206.738281 0.015625)" xlink:href="#DejaVuSans-32"/>
      <use transform="translate(238.525391 0.015625)" xlink:href="#DejaVuSans-99"/>
      <use transform="translate(293.505859 0.015625)" xlink:href="#DejaVuSans-111"/>
      <use transform="translate(354.6875 0.015625)" xlink:href="#DejaVuSans-108"/>
      <use transform="translate(382.470703 0.015625)" xlink:href="#DejaVuSans-111"/>
      <use transform="translate(443.652344 0.015625)" xlink:href="#DejaVuSans-117"/>
      <use transform="translate(507.03125 0.015625)" xlink:href="#DejaVuSans-114"/>
      <use transform="translate(548.144531 0.015625)" xlink:href="#DejaVuSans-32"/>
      <use transform="translate(579.931641 0.015625)" xlink:href="#DejaVuSans-99"/>
      <use transform="translate(634.912109 0.015625)" xlink:href="#DejaVuSans-108"/>
      <use transform="translate(662.695312 0.015625)" xlink:href="#DejaVuSans-97"/>
      <use transform="translate(723.974609 0.015625)" xlink:href="#DejaVuSans-115"/>
      <use transform="translate(776.074219 0.015625)" xlink:href="#DejaVuSans-115"/>
      <use transform="translate(828.173828 0.015625)" xlink:href="#DejaVuSans-32"/>
      <use transform="translate(859.960938 0.015625)" xlink:href="#DejaVuSans-104"/>
      <use transform="translate(923.339844 0.015625)" xlink:href="#DejaVuSans-101"/>
      <use transform="translate(984.863281 0.015625)" xlink:href="#DejaVuSans-117"/>
      <use transform="translate(1048.242188 0.015625)" xlink:href="#DejaVuSans-114"/>
      <use transform="translate(1089.355469 0.015625)" xlink:href="#DejaVuSans-105"/>
      <use transform="translate(1117.138672 0.015625)" xlink:href="#DejaVuSans-115"/>
      <use transform="translate(1169.238281 0.015625)" xlink:href="#DejaVuSans-116"/>
      <use transform="translate(1208.447266 0.015625)" xlink:href="#DejaVuSans-105"/>
      <use transform="translate(1236.230469 0.015625)" xlink:href="#DejaVuSans-99"/>
      <use transform="translate(1291.210938 0.015625)" xlink:href="#DejaVuSans-32"/>
      <use transform="translate(1322.998047 0.015625)" xlink:href="#DejaVuSans-40"/>
      <use transform="translate(1362.011719 0.015625)" xlink:href="#DejaVuSans-Oblique-67"/>
      <use transform="translate(1431.835938 0.015625)" xlink:href="#DejaVuSans-Oblique-111"/>
      <use transform="translate(1493.017578 0.015625)" xlink:href="#DejaVuSans-Oblique-108"/>
      <use transform="translate(1520.800781 0.015625)" xlink:href="#DejaVuSans-Oblique-111"/>
      <use transform="translate(1581.982422 0.015625)" xlink:href="#DejaVuSans-Oblique-117"/>
      <use transform="translate(1645.361328 0.015625)" xlink:href="#DejaVuSans-Oblique-114"/>
      <use transform="translate(1686.474609 0.015625)" xlink:href="#DejaVuSans-Oblique-82"/>
      <use transform="translate(1755.957031 0.015625)" xlink:href="#DejaVuSans-Oblique-101"/>
      <use transform="translate(1817.480469 0.015625)" xlink:href="#DejaVuSans-Oblique-115"/>
      <use transform="translate(1869.580078 0.015625)" xlink:href="#DejaVuSans-Oblique-111"/>
      <use transform="translate(1930.761719 0.015625)" xlink:href="#DejaVuSans-Oblique-108"/>
      <use transform="translate(1958.544922 0.015625)" xlink:href="#DejaVuSans-Oblique-118"/>
      <use transform="translate(2017.724609 0.015625)" xlink:href="#DejaVuSans-Oblique-101"/>
      <use transform="translate(2079.248047 0.015625)" xlink:href="#DejaVuSans-Oblique-67"/>
      <use transform="translate(2149.072266 0.015625)" xlink:href="#DejaVuSans-Oblique-111"/>
      <use transform="translate(2210.253906 0.015625)" xlink:href="#DejaVuSans-Oblique-109"/>
      <use transform="translate(2307.666016 0.015625)" xlink:href="#DejaVuSans-Oblique-112"/>
      <use transform="translate(2371.142578 0.015625)" xlink:href="#DejaVuSans-Oblique-108"/>
      <use transform="translate(2398.925781 0.015625)" xlink:href="#DejaVuSans-Oblique-101"/>
      <use transform="translate(2460.449219 0.015625)" xlink:href="#DejaVuSans-Oblique-116"/>
      <use transform="translate(2499.658203 0.015625)" xlink:href="#DejaVuSans-Oblique-101"/>
      <use transform="translate(2561.181641 0.015625)" xlink:href="#DejaVuSans-41"/>
     </g>
    </g>
   </g>
  </g>
 </g>
 <defs>
  <clipPath id="p0de6c2f062">
   <rect height="217.44" width="334.8" x="54" y="34.56"/>
  </clipPath>
 </defs>
</svg>
